999
DXF file: D:\2 Side projects\1 Booms\4 Pro-E\2015-07-21_Boom\lines.dxf
999
Pro/ENGINEER 2012060 by Parametric Technology Corporation
  0
SECTION
  2
HEADER
  9
$ACADVER
  1
AC1021
  9
$DWGCODEPAGE
  3
ANSI_1252
  9
$EXTMAX
 10
297.0
 20
210.0
 30
0.0
  9
$EXTMIN
 10
0.0
 20
0.0
 30
0.0
  9
$LIMMIN
 10
0.0
 20
0.0
  9
$LIMMAX
 10
297.0
 20
210.0
  9
$VIEWCTR
 10
148.5
 20
105.0
  9
$VIEWSIZE
 40
210.0
  9
$CLAYER
  8
0
  9
$LTSCALE
 40
16.335
  9
$CELTYPE
  6
BYLAYER
  9
$DIMSCALE
 40
1.0
  9
$DIMASZ
 40
3.5
  9
$DIMEXO
 40
1.0
  9
$DIMDLI
 40
11.286
  9
$DIMEXE
 40
1.5
  9
$DIMCEN
 40
2.673
  9
$DIMLFAC
 40
1.0
  9
$DIMBLK
  1
_FILLED
  9
$DIMTXT
 40
3.5
  9
$DIMTOL
 70
1
  9
$DIMLIM
 70
0
  9
$DIMTFAC
 40
1.0
  9
$DIMTP
 40
0.01
  9
$DIMTM
 40
0.01
  9
$DIMGAP
 40
0.625
  9
$DIMDSEP
 70
44
  9
$PDMODE
 70
3
  9
$PDSIZE
 40
8.0
  9
$HANDSEED
  5
5FA
  9
$TILEMODE
 70
1
  9
$MEASUREMENT
 70
1
  9
$INSUNITS
 70
4
  0
ENDSEC
  0
SECTION
  2
CLASSES
  0
CLASS
  1
ACDBDICTIONARYWDFLT
  2
AcDbDictionaryWithDefault
  3
AutoCAD 2000
 90
0
 91
1
280
0
281
0
  0
CLASS
  1
ACDBPLACEHOLDER
  2
AcDbPlaceHolder
  3
AutoCAD 2000
 90
0
 91
1
280
0
281
0
  0
CLASS
  1
LAYOUT
  2
AcDbLayout
  3
AutoCAD 2000
 90
0
 91
0
280
0
281
0
  0
ENDSEC
  0
SECTION
  2
TABLES
  0
TABLE
  2
VPORT
  5
8
100
AcDbSymbolTable
 70
2
  0
VPORT
  5
1F4
100
AcDbSymbolTableRecord
100
AcDbViewportTableRecord
  2
*ACTIVE
 70
0
 10
0.0
 20
0.0
 11
1.0
 21
1.0
 12
148.5
 22
105.0
 13
0.0
 23
0.0
 14
1.0
 24
1.0
 15
0.0
 25
0.0
 16
0.0
 26
0.0
 36
1.0
 17
0.0
 27
0.0
 37
0.0
 40
210.0
 41
1.4142857143
 42
50.0
 43
0.0
 44
0.0
 50
0.0
 51
0.0
 71
0
 72
100
 73
1
 74
1
 75
0
 76
0
 77
0
 78
0
  0
ENDTAB
  0
TABLE
  2
LTYPE
  5
5
100
AcDbSymbolTable
 70
6
  0
LTYPE
  5
14
100
AcDbSymbolTableRecord
100
AcDbLinetypeTableRecord
  2
BYBLOCK
 70
0
  3

 72
65
 73
0
 40
0.0
  0
LTYPE
  5
15
100
AcDbSymbolTableRecord
100
AcDbLinetypeTableRecord
  2
BYLAYER
 70
0
  3

 72
65
 73
0
 40
0.0
  0
LTYPE
  5
16
100
AcDbSymbolTableRecord
100
AcDbLinetypeTableRecord
  2
CONTINUOUS
 70
64
  3
Solid line
 72
65
 73
0
 40
0.0
  0
LTYPE
  5
1F5
100
AcDbSymbolTableRecord
100
AcDbLinetypeTableRecord
  2
CENTER
 70
64
  3
____ _ ____ _ ____ _ ____ _ ____ _ ____ _ ____
 72
65
 73
4
 40
0.6
 49
0.375
 74
0
 49
-0.075
 74
0
 49
0.075
 74
0
 49
-0.075
 74
0
  0
LTYPE
  5
1F6
100
AcDbSymbolTableRecord
100
AcDbLinetypeTableRecord
  2
HIDDEN
 70
64
  3
- - - - - - - - - - - - - - - - - - - -
 72
65
 73
2
 40
0.2
 49
0.1
 74
0
 49
-0.1
 74
0
  0
LTYPE
  5
1F7
100
AcDbSymbolTableRecord
100
AcDbLinetypeTableRecord
  2
PHANTOM
 70
64
  3
_____ _ _ _____ _ _ _____ _ _ _____
 72
65
 73
6
 40
0.8
 49
0.45
 74
0
 49
-0.05
 74
0
 49
0.1
 74
0
 49
-0.05
 74
0
 49
0.1
 74
0
 49
-0.05
 74
0
  0
LTYPE
  5
1F8
100
AcDbSymbolTableRecord
100
AcDbLinetypeTableRecord
  2
DOT
 70
64
  3
. . . . . . . . . . . . . . . . . . . .
 72
65
 73
2
 40
0.2
 49
0.1
 74
0
 49
-0.1
 74
0
  0
LTYPE
  5
1F9
100
AcDbSymbolTableRecord
100
AcDbLinetypeTableRecord
  2
DASHED
 70
64
  3
- - - - - - - - - - - - - - - - - - - -
 72
65
 73
2
 40
0.2
 49
0.1
 74
0
 49
-0.1
 74
0
  0
ENDTAB
  0
TABLE
  2
LAYER
  5
2
100
AcDbSymbolTable
 70
36
  0
LAYER
  5
10
100
AcDbSymbolTableRecord
100
AcDbLayerTableRecord
  2
0
 70
0
 62
7
  6
CONTINUOUS
370
-3
390
F
  0
LAYER
  5
1FA
100
AcDbSymbolTableRecord
100
AcDbLayerTableRecord
  2
DEFAULT_1
 70
0
 62
7
  6
CENTER
370
-3
390
F
  0
LAYER
  5
1FB
100
AcDbSymbolTableRecord
100
AcDbLayerTableRecord
  2
DEFAULT_2
 70
0
 62
8
  6
HIDDEN
370
-3
390
F
  0
LAYER
  5
1FC
100
AcDbSymbolTableRecord
100
AcDbLayerTableRecord
  2
DEFAULT_3
 70
0
 62
7
  6
PHANTOM
370
-3
390
F
  0
LAYER
  5
1FD
100
AcDbSymbolTableRecord
100
AcDbLayerTableRecord
  2
01___PRT_ALL_DTM_PLN
 70
0
 62
7
  6
CONTINUOUS
370
-3
390
F
  0
LAYER
  5
1FE
100
AcDbSymbolTableRecord
100
AcDbLayerTableRecord
  2
01___PRT_DEF_DTM_PLN
 70
0
 62
7
  6
CONTINUOUS
370
-3
390
F
  0
LAYER
  5
1FF
100
AcDbSymbolTableRecord
100
AcDbLayerTableRecord
  2
02___PRT_ALL_AXES
 70
0
 62
7
  6
CONTINUOUS
370
-3
390
F
  0
LAYER
  5
200
100
AcDbSymbolTableRecord
100
AcDbLayerTableRecord
  2
03___PRT_ALL_CURVES
 70
0
 62
7
  6
CONTINUOUS
370
-3
390
F
  0
LAYER
  5
201
100
AcDbSymbolTableRecord
100
AcDbLayerTableRecord
  2
04___PRT_ALL_DTM_PNT
 70
0
 62
7
  6
CONTINUOUS
370
-3
390
F
  0
LAYER
  5
202
100
AcDbSymbolTableRecord
100
AcDbLayerTableRecord
  2
05___PRT_ALL_DTM_CSYS
 70
0
 62
7
  6
CONTINUOUS
370
-3
390
F
  0
LAYER
  5
203
100
AcDbSymbolTableRecord
100
AcDbLayerTableRecord
  2
05___PRT_DEF_DTM_CSYS
 70
0
 62
7
  6
CONTINUOUS
370
-3
390
F
  0
LAYER
  5
204
100
AcDbSymbolTableRecord
100
AcDbLayerTableRecord
  2
06___PRT_ALL_SURFS
 70
0
 62
7
  6
CONTINUOUS
370
-3
390
F
  0
LAYER
  5
205
100
AcDbSymbolTableRecord
100
AcDbLayerTableRecord
  2
3_ALL_SYMBOLS
 70
0
 62
7
  6
CONTINUOUS
370
-3
390
F
  0
ENDTAB
  0
TABLE
  2
STYLE
  5
3
100
AcDbSymbolTable
 70
1
  0
STYLE
  5
11
100
AcDbSymbolTableRecord
100
AcDbTextStyleTableRecord
  2
STANDARD
 70
0
 40
0.0
 41
0.85
 50
0.0
 71
0
 42
0.2
  3
txt
  4

  0
STYLE
  5
206
100
AcDbSymbolTableRecord
100
AcDbTextStyleTableRecord
  2
TEXTSTYLE_1
 70
0
 40
0.0
 41
0.8
 50
0.0
 71
0
 42
0.2
  3
gdt
  4

  0
ENDTAB
  0
TABLE
  2
VIEW
  5
6
100
AcDbSymbolTable
 70
0
  0
ENDTAB
  0
TABLE
  2
UCS
  5
7
100
AcDbSymbolTable
 70
0
  0
ENDTAB
  0
TABLE
  2
APPID
  5
9
100
AcDbSymbolTable
 70
1
  0
APPID
  5
207
100
AcDbSymbolTableRecord
100
AcDbRegAppTableRecord
  2
ACAD
 70
0
  0
ENDTAB
  0
TABLE
  2
BLOCK_RECORD
  5
1
100
AcDbSymbolTable
 70
0
  0
BLOCK_RECORD
  5
208
100
AcDbSymbolTableRecord
100
AcDbBlockTableRecord
  2
*Model_Space
  0
BLOCK_RECORD
  5
209
100
AcDbSymbolTableRecord
100
AcDbBlockTableRecord
  2
*Paper_Space
  0
ENDTAB
  0
TABLE
  2
DIMSTYLE
  5
A
100
AcDbSymbolTable
 70
1
100
AcDbDimStyleTable
 71
0
  0
DIMSTYLE
105
20A
100
AcDbSymbolTableRecord
100
AcDbDimStyleTableRecord
  2
STANDARD
 70
0
  3

  4

 40
1.0
 41
3.5
 42
1.0
 43
0.38
 44
1.5
 45
0.0
 46
0.0
 47
0.01
 48
0.01
140
3.5
141
0.09
142
0.0
143
25.4
144
1.0
145
0.0
146
1.0
147
0.625
 71
1.0
 72
0.0
 73
0
 74
0
 75
0
 76
0
 77
1
 78
8
170
0
171
2
172
0
173
0
174
0
175
0
176
0
177
0
178
0
270
2
271
2
272
2
273
2
274
2
275
0
280
0
281
0
282
0
283
1
284
8
285
0
286
0
287
3
288
0
340
11
278
44
  0
ENDTAB
  0
ENDSEC
  0
SECTION
  2
BLOCKS
  0
BLOCK
  5
20
100
AcDbEntity
  8
0
100
AcDbBlockBegin
  2
*Model_Space
 70
0
 10
0.0
 20
0.0
 30
0.0
  3
*Model_Space
  1

  0
ENDBLK
  5
21
100
AcDbEntity
  8
0
100
AcDbBlockEnd
  0
BLOCK
  5
1C
100
AcDbEntity
  8
0
100
AcDbBlockBegin
  2
*Paper_Space
 70
0
 10
0.0
 20
0.0
 30
0.0
  3
*Paper_Space
  1

  0
ENDBLK
  5
1D
100
AcDbEntity
  8
0
100
AcDbBlockEnd
  0
ENDSEC
  0
SECTION
  2
ENTITIES
  0
LINE
  5
20B
100
AcDbEntity
  8
0
100
AcDbLine
 62
7
  6
CONTINUOUS
 10
0.0
 20
0.0
 11
0.0
 21
210.0
  0
LINE
  5
20C
100
AcDbEntity
  8
0
100
AcDbLine
 62
7
  6
CONTINUOUS
 10
0.0
 20
0.0
 11
297.0
 21
0.0
  0
LINE
  5
20D
100
AcDbEntity
  8
0
100
AcDbLine
 62
7
  6
CONTINUOUS
 10
0.0
 20
210.0
 11
297.0
 21
210.0
  0
LINE
  5
20E
100
AcDbEntity
  8
0
100
AcDbLine
 62
7
  6
CONTINUOUS
 10
297.0
 20
0.0
 11
297.0
 21
210.0
  0
LINE
  5
20F
100
AcDbEntity
  8
03___PRT_ALL_CURVES
100
AcDbLine
 62
4
  6
CONTINUOUS
 10
55.3054223549
 20
126.0449552048
 11
55.3054223549
 21
96.0449552048
  0
LINE
  5
210
100
AcDbEntity
  8
03___PRT_ALL_CURVES
100
AcDbLine
 62
4
  6
CONTINUOUS
 10
55.3354223549
 20
126.0449552048
 11
55.3354223549
 21
96.0449552048
  0
LINE
  5
211
100
AcDbEntity
  8
03___PRT_ALL_CURVES
100
AcDbLine
 62
4
  6
CONTINUOUS
 10
55.3654223549
 20
126.0449552048
 11
55.3654223549
 21
96.0449552048
  0
LINE
  5
212
100
AcDbEntity
  8
03___PRT_ALL_CURVES
100
AcDbLine
 62
4
  6
CONTINUOUS
 10
55.3954223549
 20
126.0449552048
 11
55.3954223549
 21
96.0449552048
  0
LINE
  5
213
100
AcDbEntity
  8
03___PRT_ALL_CURVES
100
AcDbLine
 62
4
  6
CONTINUOUS
 10
55.4254223549
 20
126.0449552048
 11
55.4254223549
 21
96.0449552048
  0
LINE
  5
214
100
AcDbEntity
  8
03___PRT_ALL_CURVES
100
AcDbLine
 62
4
  6
CONTINUOUS
 10
55.4554223549
 20
126.0449552048
 11
55.4554223549
 21
96.0449552048
  0
LINE
  5
215
100
AcDbEntity
  8
03___PRT_ALL_CURVES
100
AcDbLine
 62
4
  6
CONTINUOUS
 10
55.4854223549
 20
126.0449552048
 11
55.4854223549
 21
96.0449552048
  0
LINE
  5
216
100
AcDbEntity
  8
03___PRT_ALL_CURVES
100
AcDbLine
 62
4
  6
CONTINUOUS
 10
55.5154223549
 20
126.0449552048
 11
55.5154223549
 21
96.0449552048
  0
LINE
  5
217
100
AcDbEntity
  8
03___PRT_ALL_CURVES
100
AcDbLine
 62
4
  6
CONTINUOUS
 10
55.5454223549
 20
126.0449552048
 11
55.5454223549
 21
96.0449552048
  0
LINE
  5
218
100
AcDbEntity
  8
03___PRT_ALL_CURVES
100
AcDbLine
 62
4
  6
CONTINUOUS
 10
55.5754223549
 20
126.0449552048
 11
55.5754223549
 21
96.0449552048
  0
LINE
  5
219
100
AcDbEntity
  8
03___PRT_ALL_CURVES
100
AcDbLine
 62
4
  6
CONTINUOUS
 10
55.6054223549
 20
126.0449552048
 11
55.6054223549
 21
96.0449552048
  0
LINE
  5
21A
100
AcDbEntity
  8
03___PRT_ALL_CURVES
100
AcDbLine
 62
4
  6
CONTINUOUS
 10
55.6354223549
 20
126.0449552048
 11
55.6354223549
 21
96.0449552048
  0
LINE
  5
21B
100
AcDbEntity
  8
03___PRT_ALL_CURVES
100
AcDbLine
 62
4
  6
CONTINUOUS
 10
55.6654223549
 20
126.0449552048
 11
55.6654223549
 21
96.0449552048
  0
LINE
  5
21C
100
AcDbEntity
  8
03___PRT_ALL_CURVES
100
AcDbLine
 62
4
  6
CONTINUOUS
 10
55.6954223549
 20
126.0449552048
 11
55.6954223549
 21
96.0449552048
  0
LINE
  5
21D
100
AcDbEntity
  8
03___PRT_ALL_CURVES
100
AcDbLine
 62
4
  6
CONTINUOUS
 10
55.7254223549
 20
126.0449552048
 11
55.7254223549
 21
96.0449552048
  0
LINE
  5
21E
100
AcDbEntity
  8
03___PRT_ALL_CURVES
100
AcDbLine
 62
4
  6
CONTINUOUS
 10
55.7554223549
 20
126.0449552048
 11
55.7554223549
 21
96.0449552048
  0
LINE
  5
21F
100
AcDbEntity
  8
03___PRT_ALL_CURVES
100
AcDbLine
 62
4
  6
CONTINUOUS
 10
55.7854223549
 20
126.0449552048
 11
55.7854223549
 21
96.0449552048
  0
LINE
  5
220
100
AcDbEntity
  8
03___PRT_ALL_CURVES
100
AcDbLine
 62
4
  6
CONTINUOUS
 10
55.8154223549
 20
126.0449552048
 11
55.8154223549
 21
96.0449552048
  0
LINE
  5
221
100
AcDbEntity
  8
03___PRT_ALL_CURVES
100
AcDbLine
 62
4
  6
CONTINUOUS
 10
55.8454223549
 20
126.0449552048
 11
55.8454223549
 21
96.0449552048
  0
LINE
  5
222
100
AcDbEntity
  8
03___PRT_ALL_CURVES
100
AcDbLine
 62
4
  6
CONTINUOUS
 10
55.8754223549
 20
126.0449552048
 11
55.8754223549
 21
96.0449552048
  0
LINE
  5
223
100
AcDbEntity
  8
03___PRT_ALL_CURVES
100
AcDbLine
 62
4
  6
CONTINUOUS
 10
55.9054223549
 20
126.0449552048
 11
55.9054223549
 21
96.0449552048
  0
LINE
  5
224
100
AcDbEntity
  8
03___PRT_ALL_CURVES
100
AcDbLine
 62
4
  6
CONTINUOUS
 10
55.9354223549
 20
126.0449552048
 11
55.9354223549
 21
96.0449552048
  0
LINE
  5
225
100
AcDbEntity
  8
03___PRT_ALL_CURVES
100
AcDbLine
 62
4
  6
CONTINUOUS
 10
55.9654223549
 20
126.0449552048
 11
55.9654223549
 21
96.0449552048
  0
LINE
  5
226
100
AcDbEntity
  8
03___PRT_ALL_CURVES
100
AcDbLine
 62
4
  6
CONTINUOUS
 10
55.9954223549
 20
126.0449552048
 11
55.9954223549
 21
96.0449552048
  0
LINE
  5
227
100
AcDbEntity
  8
03___PRT_ALL_CURVES
100
AcDbLine
 62
4
  6
CONTINUOUS
 10
56.0254223549
 20
126.0449552048
 11
56.0254223549
 21
96.0449552048
  0
LINE
  5
228
100
AcDbEntity
  8
03___PRT_ALL_CURVES
100
AcDbLine
 62
4
  6
CONTINUOUS
 10
56.0554223549
 20
126.0449552048
 11
56.0554223549
 21
96.0449552048
  0
LINE
  5
229
100
AcDbEntity
  8
03___PRT_ALL_CURVES
100
AcDbLine
 62
4
  6
CONTINUOUS
 10
56.0854223549
 20
126.0449552048
 11
56.0854223549
 21
96.0449552048
  0
LINE
  5
22A
100
AcDbEntity
  8
03___PRT_ALL_CURVES
100
AcDbLine
 62
4
  6
CONTINUOUS
 10
56.1154223549
 20
126.0449552048
 11
56.1154223549
 21
96.0449552048
  0
LINE
  5
22B
100
AcDbEntity
  8
03___PRT_ALL_CURVES
100
AcDbLine
 62
4
  6
CONTINUOUS
 10
56.1454223549
 20
126.0449552048
 11
56.1454223549
 21
96.0449552048
  0
LINE
  5
22C
100
AcDbEntity
  8
03___PRT_ALL_CURVES
100
AcDbLine
 62
4
  6
CONTINUOUS
 10
56.1754223549
 20
126.0449552048
 11
56.1754223549
 21
96.0449552048
  0
LINE
  5
22D
100
AcDbEntity
  8
03___PRT_ALL_CURVES
100
AcDbLine
 62
4
  6
CONTINUOUS
 10
56.2054223549
 20
126.0449552048
 11
56.2054223549
 21
96.0449552048
  0
LINE
  5
22E
100
AcDbEntity
  8
03___PRT_ALL_CURVES
100
AcDbLine
 62
4
  6
CONTINUOUS
 10
56.2354223549
 20
126.0449552048
 11
56.2354223549
 21
96.0449552048
  0
LINE
  5
22F
100
AcDbEntity
  8
03___PRT_ALL_CURVES
100
AcDbLine
 62
4
  6
CONTINUOUS
 10
56.2654223549
 20
126.0449552048
 11
56.2654223549
 21
96.0449552048
  0
LINE
  5
230
100
AcDbEntity
  8
03___PRT_ALL_CURVES
100
AcDbLine
 62
4
  6
CONTINUOUS
 10
56.2954223549
 20
126.0449552048
 11
56.2954223549
 21
96.0449552048
  0
LINE
  5
231
100
AcDbEntity
  8
03___PRT_ALL_CURVES
100
AcDbLine
 62
4
  6
CONTINUOUS
 10
56.3254223549
 20
126.0449552048
 11
56.3254223549
 21
96.0449552048
  0
LINE
  5
232
100
AcDbEntity
  8
03___PRT_ALL_CURVES
100
AcDbLine
 62
4
  6
CONTINUOUS
 10
55.3054223549
 20
96.0449552048
 11
62.9980113113
 21
96.0449552048
  0
LINE
  5
233
100
AcDbEntity
  8
03___PRT_ALL_CURVES
100
AcDbLine
 62
4
  6
CONTINUOUS
 10
56.3554223549
 20
126.0449552048
 11
56.3554223549
 21
96.0449552048
  0
LINE
  5
234
100
AcDbEntity
  8
03___PRT_ALL_CURVES
100
AcDbLine
 62
4
  6
CONTINUOUS
 10
56.3854223549
 20
126.0449552048
 11
56.3854223549
 21
96.0449552048
  0
LINE
  5
235
100
AcDbEntity
  8
03___PRT_ALL_CURVES
100
AcDbLine
 62
4
  6
CONTINUOUS
 10
56.4154223549
 20
126.0449552048
 11
56.4154223549
 21
96.0449552048
  0
LINE
  5
236
100
AcDbEntity
  8
03___PRT_ALL_CURVES
100
AcDbLine
 62
4
  6
CONTINUOUS
 10
56.4454223549
 20
126.0449552048
 11
56.4454223549
 21
96.0449552048
  0
LINE
  5
237
100
AcDbEntity
  8
03___PRT_ALL_CURVES
100
AcDbLine
 62
4
  6
CONTINUOUS
 10
56.4754223549
 20
126.0449552048
 11
56.4754223549
 21
96.0449552048
  0
LINE
  5
238
100
AcDbEntity
  8
03___PRT_ALL_CURVES
100
AcDbLine
 62
4
  6
CONTINUOUS
 10
56.5054223549
 20
126.0449552048
 11
56.5054223549
 21
96.0449552048
  0
LINE
  5
239
100
AcDbEntity
  8
03___PRT_ALL_CURVES
100
AcDbLine
 62
4
  6
CONTINUOUS
 10
56.5354223549
 20
126.0449552048
 11
56.5354223549
 21
96.0449552048
  0
LINE
  5
23A
100
AcDbEntity
  8
03___PRT_ALL_CURVES
100
AcDbLine
 62
4
  6
CONTINUOUS
 10
56.5654223549
 20
126.0449552048
 11
56.5654223549
 21
96.0449552048
  0
LINE
  5
23B
100
AcDbEntity
  8
03___PRT_ALL_CURVES
100
AcDbLine
 62
4
  6
CONTINUOUS
 10
56.5954223549
 20
126.0449552048
 11
56.5954223549
 21
96.0449552048
  0
LINE
  5
23C
100
AcDbEntity
  8
03___PRT_ALL_CURVES
100
AcDbLine
 62
4
  6
CONTINUOUS
 10
56.6254223549
 20
126.0449552048
 11
56.6254223549
 21
96.0449552048
  0
LINE
  5
23D
100
AcDbEntity
  8
03___PRT_ALL_CURVES
100
AcDbLine
 62
4
  6
CONTINUOUS
 10
56.6554223549
 20
126.0449552048
 11
56.6554223549
 21
96.0449552048
  0
LINE
  5
23E
100
AcDbEntity
  8
03___PRT_ALL_CURVES
100
AcDbLine
 62
4
  6
CONTINUOUS
 10
56.6854223549
 20
126.0449552048
 11
56.6854223549
 21
96.0449552048
  0
LINE
  5
23F
100
AcDbEntity
  8
03___PRT_ALL_CURVES
100
AcDbLine
 62
4
  6
CONTINUOUS
 10
56.7154223549
 20
126.0449552048
 11
56.7154223549
 21
96.0449552048
  0
LINE
  5
240
100
AcDbEntity
  8
03___PRT_ALL_CURVES
100
AcDbLine
 62
4
  6
CONTINUOUS
 10
56.7454223549
 20
126.0449552048
 11
56.7454223549
 21
96.0449552048
  0
LINE
  5
241
100
AcDbEntity
  8
03___PRT_ALL_CURVES
100
AcDbLine
 62
4
  6
CONTINUOUS
 10
56.7754223549
 20
126.0449552048
 11
56.7754223549
 21
96.0449552048
  0
LINE
  5
242
100
AcDbEntity
  8
03___PRT_ALL_CURVES
100
AcDbLine
 62
4
  6
CONTINUOUS
 10
56.8054223549
 20
126.0449552048
 11
56.8054223549
 21
96.0449552048
  0
LINE
  5
243
100
AcDbEntity
  8
03___PRT_ALL_CURVES
100
AcDbLine
 62
4
  6
CONTINUOUS
 10
56.8354223549
 20
126.0449552048
 11
56.8354223549
 21
96.0449552048
  0
LINE
  5
244
100
AcDbEntity
  8
03___PRT_ALL_CURVES
100
AcDbLine
 62
4
  6
CONTINUOUS
 10
56.8654223549
 20
126.0449552048
 11
56.8654223549
 21
96.0449552048
  0
LINE
  5
245
100
AcDbEntity
  8
03___PRT_ALL_CURVES
100
AcDbLine
 62
4
  6
CONTINUOUS
 10
56.8954223549
 20
126.0449552048
 11
56.8954223549
 21
96.0449552048
  0
LINE
  5
246
100
AcDbEntity
  8
03___PRT_ALL_CURVES
100
AcDbLine
 62
4
  6
CONTINUOUS
 10
56.9254223549
 20
126.0449552048
 11
56.9254223549
 21
96.0449552048
  0
LINE
  5
247
100
AcDbEntity
  8
03___PRT_ALL_CURVES
100
AcDbLine
 62
4
  6
CONTINUOUS
 10
56.9554223549
 20
126.0449552048
 11
56.9554223549
 21
96.0449552048
  0
LINE
  5
248
100
AcDbEntity
  8
03___PRT_ALL_CURVES
100
AcDbLine
 62
4
  6
CONTINUOUS
 10
56.9854223549
 20
126.0449552048
 11
56.9854223549
 21
96.0449552048
  0
LINE
  5
249
100
AcDbEntity
  8
03___PRT_ALL_CURVES
100
AcDbLine
 62
4
  6
CONTINUOUS
 10
57.0154223549
 20
126.0449552048
 11
57.0154223549
 21
96.0449552048
  0
LINE
  5
24A
100
AcDbEntity
  8
03___PRT_ALL_CURVES
100
AcDbLine
 62
4
  6
CONTINUOUS
 10
57.0454223549
 20
126.0449552048
 11
57.0454223549
 21
96.0449552048
  0
LINE
  5
24B
100
AcDbEntity
  8
03___PRT_ALL_CURVES
100
AcDbLine
 62
4
  6
CONTINUOUS
 10
57.0754223549
 20
126.0449552048
 11
57.0754223549
 21
96.0449552048
  0
LINE
  5
24C
100
AcDbEntity
  8
03___PRT_ALL_CURVES
100
AcDbLine
 62
4
  6
CONTINUOUS
 10
57.1054223549
 20
126.0449552048
 11
57.1054223549
 21
96.0449552048
  0
LINE
  5
24D
100
AcDbEntity
  8
03___PRT_ALL_CURVES
100
AcDbLine
 62
4
  6
CONTINUOUS
 10
57.1354223549
 20
126.0449552048
 11
57.1354223549
 21
96.0449552048
  0
LINE
  5
24E
100
AcDbEntity
  8
03___PRT_ALL_CURVES
100
AcDbLine
 62
4
  6
CONTINUOUS
 10
57.1654223549
 20
126.0449552048
 11
57.1654223549
 21
96.0449552048
  0
LINE
  5
24F
100
AcDbEntity
  8
03___PRT_ALL_CURVES
100
AcDbLine
 62
4
  6
CONTINUOUS
 10
57.1954223549
 20
126.0449552048
 11
57.1954223549
 21
96.0449552048
  0
LINE
  5
250
100
AcDbEntity
  8
03___PRT_ALL_CURVES
100
AcDbLine
 62
4
  6
CONTINUOUS
 10
57.2254223549
 20
126.0449552048
 11
57.2254223549
 21
96.0449552048
  0
LINE
  5
251
100
AcDbEntity
  8
03___PRT_ALL_CURVES
100
AcDbLine
 62
4
  6
CONTINUOUS
 10
57.2554223549
 20
126.0449552048
 11
57.2554223549
 21
96.0449552048
  0
LINE
  5
252
100
AcDbEntity
  8
03___PRT_ALL_CURVES
100
AcDbLine
 62
4
  6
CONTINUOUS
 10
57.2854223549
 20
126.0449552048
 11
57.2854223549
 21
96.0449552048
  0
LINE
  5
253
100
AcDbEntity
  8
03___PRT_ALL_CURVES
100
AcDbLine
 62
4
  6
CONTINUOUS
 10
57.3154223549
 20
126.0449552048
 11
57.3154223549
 21
96.0449552048
  0
LINE
  5
254
100
AcDbEntity
  8
03___PRT_ALL_CURVES
100
AcDbLine
 62
4
  6
CONTINUOUS
 10
57.3454223549
 20
126.0449552048
 11
57.3454223549
 21
96.0449552048
  0
LINE
  5
255
100
AcDbEntity
  8
03___PRT_ALL_CURVES
100
AcDbLine
 62
4
  6
CONTINUOUS
 10
57.3754223549
 20
126.0449552048
 11
57.3754223549
 21
96.0449552048
  0
LINE
  5
256
100
AcDbEntity
  8
03___PRT_ALL_CURVES
100
AcDbLine
 62
4
  6
CONTINUOUS
 10
57.4054223549
 20
126.0449552048
 11
57.4054223549
 21
96.0449552048
  0
LINE
  5
257
100
AcDbEntity
  8
03___PRT_ALL_CURVES
100
AcDbLine
 62
4
  6
CONTINUOUS
 10
57.4354223549
 20
126.0449552048
 11
57.4354223549
 21
96.0449552048
  0
LINE
  5
258
100
AcDbEntity
  8
03___PRT_ALL_CURVES
100
AcDbLine
 62
4
  6
CONTINUOUS
 10
57.4654223549
 20
126.0449552048
 11
57.4654223549
 21
96.0449552048
  0
LINE
  5
259
100
AcDbEntity
  8
03___PRT_ALL_CURVES
100
AcDbLine
 62
4
  6
CONTINUOUS
 10
57.4954223549
 20
126.0449552048
 11
57.4954223549
 21
96.0449552048
  0
LINE
  5
25A
100
AcDbEntity
  8
03___PRT_ALL_CURVES
100
AcDbLine
 62
4
  6
CONTINUOUS
 10
57.5254223549
 20
126.0449552048
 11
57.5254223549
 21
96.0449552048
  0
LINE
  5
25B
100
AcDbEntity
  8
03___PRT_ALL_CURVES
100
AcDbLine
 62
4
  6
CONTINUOUS
 10
57.5554223549
 20
126.0449552048
 11
57.5554223549
 21
96.0449552048
  0
LINE
  5
25C
100
AcDbEntity
  8
03___PRT_ALL_CURVES
100
AcDbLine
 62
4
  6
CONTINUOUS
 10
57.5854223549
 20
126.0449552048
 11
57.5854223549
 21
96.0449552048
  0
LINE
  5
25D
100
AcDbEntity
  8
03___PRT_ALL_CURVES
100
AcDbLine
 62
4
  6
CONTINUOUS
 10
57.6154223549
 20
126.0449552048
 11
57.6154223549
 21
96.0449552048
  0
LINE
  5
25E
100
AcDbEntity
  8
03___PRT_ALL_CURVES
100
AcDbLine
 62
4
  6
CONTINUOUS
 10
57.6454223549
 20
126.0449552048
 11
57.6454223549
 21
96.0449552048
  0
LINE
  5
25F
100
AcDbEntity
  8
03___PRT_ALL_CURVES
100
AcDbLine
 62
4
  6
CONTINUOUS
 10
57.6754223549
 20
126.0449552048
 11
57.6754223549
 21
96.0449552048
  0
LINE
  5
260
100
AcDbEntity
  8
03___PRT_ALL_CURVES
100
AcDbLine
 62
4
  6
CONTINUOUS
 10
57.7054223549
 20
126.0449552048
 11
57.7054223549
 21
96.0449552048
  0
LINE
  5
261
100
AcDbEntity
  8
03___PRT_ALL_CURVES
100
AcDbLine
 62
4
  6
CONTINUOUS
 10
57.7354223549
 20
126.0449552048
 11
57.7354223549
 21
96.0449552048
  0
LINE
  5
262
100
AcDbEntity
  8
03___PRT_ALL_CURVES
100
AcDbLine
 62
4
  6
CONTINUOUS
 10
57.7654223549
 20
126.0449552048
 11
57.7654223549
 21
96.0449552048
  0
LINE
  5
263
100
AcDbEntity
  8
03___PRT_ALL_CURVES
100
AcDbLine
 62
4
  6
CONTINUOUS
 10
57.7954223549
 20
126.0449552048
 11
57.7954223549
 21
96.0449552048
  0
LINE
  5
264
100
AcDbEntity
  8
03___PRT_ALL_CURVES
100
AcDbLine
 62
4
  6
CONTINUOUS
 10
57.8254223549
 20
126.0449552048
 11
57.8254223549
 21
96.0449552048
  0
LINE
  5
265
100
AcDbEntity
  8
03___PRT_ALL_CURVES
100
AcDbLine
 62
4
  6
CONTINUOUS
 10
57.8554223549
 20
126.0449552048
 11
57.8554223549
 21
96.0449552048
  0
LINE
  5
266
100
AcDbEntity
  8
03___PRT_ALL_CURVES
100
AcDbLine
 62
4
  6
CONTINUOUS
 10
57.8854223549
 20
126.0449552048
 11
57.8854223549
 21
96.0449552048
  0
LINE
  5
267
100
AcDbEntity
  8
03___PRT_ALL_CURVES
100
AcDbLine
 62
4
  6
CONTINUOUS
 10
57.9154223549
 20
126.0449552048
 11
57.9154223549
 21
96.0449552048
  0
LINE
  5
268
100
AcDbEntity
  8
03___PRT_ALL_CURVES
100
AcDbLine
 62
4
  6
CONTINUOUS
 10
57.9454223549
 20
126.0449552048
 11
57.9454223549
 21
96.0449552048
  0
LINE
  5
269
100
AcDbEntity
  8
03___PRT_ALL_CURVES
100
AcDbLine
 62
4
  6
CONTINUOUS
 10
57.9754223549
 20
126.0449552048
 11
57.9754223549
 21
96.0449552048
  0
LINE
  5
26A
100
AcDbEntity
  8
03___PRT_ALL_CURVES
100
AcDbLine
 62
4
  6
CONTINUOUS
 10
58.0054223549
 20
126.0449552048
 11
58.0054223549
 21
96.0449552048
  0
LINE
  5
26B
100
AcDbEntity
  8
03___PRT_ALL_CURVES
100
AcDbLine
 62
4
  6
CONTINUOUS
 10
58.0354223549
 20
126.0449552048
 11
58.0354223549
 21
96.0449552048
  0
LINE
  5
26C
100
AcDbEntity
  8
03___PRT_ALL_CURVES
100
AcDbLine
 62
4
  6
CONTINUOUS
 10
58.0654223549
 20
126.0449552048
 11
58.0654223549
 21
96.0449552048
  0
LINE
  5
26D
100
AcDbEntity
  8
03___PRT_ALL_CURVES
100
AcDbLine
 62
4
  6
CONTINUOUS
 10
58.0954223549
 20
126.0449552048
 11
58.0954223549
 21
96.0449552048
  0
LINE
  5
26E
100
AcDbEntity
  8
03___PRT_ALL_CURVES
100
AcDbLine
 62
4
  6
CONTINUOUS
 10
58.1254223549
 20
126.0449552048
 11
58.1254223549
 21
96.0449552048
  0
LINE
  5
26F
100
AcDbEntity
  8
03___PRT_ALL_CURVES
100
AcDbLine
 62
4
  6
CONTINUOUS
 10
58.1554223549
 20
126.0449552048
 11
58.1554223549
 21
96.0449552048
  0
LINE
  5
270
100
AcDbEntity
  8
03___PRT_ALL_CURVES
100
AcDbLine
 62
4
  6
CONTINUOUS
 10
58.1854223549
 20
126.0449552048
 11
58.1854223549
 21
96.0449552048
  0
LINE
  5
271
100
AcDbEntity
  8
03___PRT_ALL_CURVES
100
AcDbLine
 62
4
  6
CONTINUOUS
 10
58.2154223549
 20
126.0449552048
 11
58.2154223549
 21
96.0449552048
  0
LINE
  5
272
100
AcDbEntity
  8
03___PRT_ALL_CURVES
100
AcDbLine
 62
4
  6
CONTINUOUS
 10
58.2454223549
 20
126.0449552048
 11
58.2454223549
 21
96.0449552048
  0
LINE
  5
273
100
AcDbEntity
  8
03___PRT_ALL_CURVES
100
AcDbLine
 62
4
  6
CONTINUOUS
 10
58.2754223549
 20
126.0449552048
 11
58.2754223549
 21
96.0449552048
  0
LINE
  5
274
100
AcDbEntity
  8
03___PRT_ALL_CURVES
100
AcDbLine
 62
4
  6
CONTINUOUS
 10
58.3054223549
 20
126.0449552048
 11
58.3054223549
 21
96.0449552048
  0
LINE
  5
275
100
AcDbEntity
  8
03___PRT_ALL_CURVES
100
AcDbLine
 62
4
  6
CONTINUOUS
 10
58.3354223549
 20
126.0449552048
 11
58.3354223549
 21
96.0449552048
  0
LINE
  5
276
100
AcDbEntity
  8
03___PRT_ALL_CURVES
100
AcDbLine
 62
4
  6
CONTINUOUS
 10
58.3654223549
 20
126.0449552048
 11
58.3654223549
 21
96.0449552048
  0
LINE
  5
277
100
AcDbEntity
  8
03___PRT_ALL_CURVES
100
AcDbLine
 62
4
  6
CONTINUOUS
 10
58.3954223549
 20
126.0449552048
 11
58.3954223549
 21
96.0449552048
  0
LINE
  5
278
100
AcDbEntity
  8
03___PRT_ALL_CURVES
100
AcDbLine
 62
4
  6
CONTINUOUS
 10
58.4254223549
 20
126.0449552048
 11
58.4254223549
 21
96.0449552048
  0
LINE
  5
279
100
AcDbEntity
  8
03___PRT_ALL_CURVES
100
AcDbLine
 62
4
  6
CONTINUOUS
 10
58.4554223549
 20
126.0449552048
 11
58.4554223549
 21
96.0449552048
  0
LINE
  5
27A
100
AcDbEntity
  8
03___PRT_ALL_CURVES
100
AcDbLine
 62
4
  6
CONTINUOUS
 10
58.4854223549
 20
126.0449552048
 11
58.4854223549
 21
96.0449552048
  0
LINE
  5
27B
100
AcDbEntity
  8
03___PRT_ALL_CURVES
100
AcDbLine
 62
4
  6
CONTINUOUS
 10
58.5154223549
 20
126.0449552048
 11
58.5154223549
 21
96.0449552048
  0
LINE
  5
27C
100
AcDbEntity
  8
03___PRT_ALL_CURVES
100
AcDbLine
 62
4
  6
CONTINUOUS
 10
58.5454223549
 20
126.0449552048
 11
58.5454223549
 21
96.0449552048
  0
LINE
  5
27D
100
AcDbEntity
  8
03___PRT_ALL_CURVES
100
AcDbLine
 62
4
  6
CONTINUOUS
 10
58.5754223549
 20
126.0449552048
 11
58.5754223549
 21
96.0449552048
  0
LINE
  5
27E
100
AcDbEntity
  8
03___PRT_ALL_CURVES
100
AcDbLine
 62
4
  6
CONTINUOUS
 10
58.6054223549
 20
126.0449552048
 11
58.6054223549
 21
96.0449552048
  0
LINE
  5
27F
100
AcDbEntity
  8
03___PRT_ALL_CURVES
100
AcDbLine
 62
4
  6
CONTINUOUS
 10
58.6354223549
 20
126.0449552048
 11
58.6354223549
 21
96.0449552048
  0
LINE
  5
280
100
AcDbEntity
  8
03___PRT_ALL_CURVES
100
AcDbLine
 62
4
  6
CONTINUOUS
 10
58.6654223549
 20
126.0449552048
 11
58.6654223549
 21
96.0449552048
  0
LINE
  5
281
100
AcDbEntity
  8
03___PRT_ALL_CURVES
100
AcDbLine
 62
4
  6
CONTINUOUS
 10
58.6954223549
 20
126.0449552048
 11
58.6954223549
 21
96.0449552048
  0
LINE
  5
282
100
AcDbEntity
  8
03___PRT_ALL_CURVES
100
AcDbLine
 62
4
  6
CONTINUOUS
 10
58.7254223549
 20
126.0449552048
 11
58.7254223549
 21
96.0449552048
  0
LINE
  5
283
100
AcDbEntity
  8
03___PRT_ALL_CURVES
100
AcDbLine
 62
4
  6
CONTINUOUS
 10
58.7554223549
 20
126.0449552048
 11
58.7554223549
 21
96.0449552048
  0
LINE
  5
284
100
AcDbEntity
  8
03___PRT_ALL_CURVES
100
AcDbLine
 62
4
  6
CONTINUOUS
 10
58.7854223549
 20
126.0449552048
 11
58.7854223549
 21
96.0449552048
  0
LINE
  5
285
100
AcDbEntity
  8
03___PRT_ALL_CURVES
100
AcDbLine
 62
4
  6
CONTINUOUS
 10
58.8154223549
 20
126.0449552048
 11
58.8154223549
 21
96.0449552048
  0
LINE
  5
286
100
AcDbEntity
  8
03___PRT_ALL_CURVES
100
AcDbLine
 62
4
  6
CONTINUOUS
 10
58.8454223549
 20
126.0449552048
 11
58.8454223549
 21
96.0449552048
  0
LINE
  5
287
100
AcDbEntity
  8
03___PRT_ALL_CURVES
100
AcDbLine
 62
4
  6
CONTINUOUS
 10
58.8754223549
 20
126.0449552048
 11
58.8754223549
 21
96.0449552048
  0
LINE
  5
288
100
AcDbEntity
  8
03___PRT_ALL_CURVES
100
AcDbLine
 62
4
  6
CONTINUOUS
 10
58.9054223549
 20
126.0449552048
 11
58.9054223549
 21
96.0449552048
  0
LINE
  5
289
100
AcDbEntity
  8
03___PRT_ALL_CURVES
100
AcDbLine
 62
4
  6
CONTINUOUS
 10
58.9354223549
 20
126.0449552048
 11
58.9354223549
 21
96.0449552048
  0
LINE
  5
28A
100
AcDbEntity
  8
03___PRT_ALL_CURVES
100
AcDbLine
 62
4
  6
CONTINUOUS
 10
58.9654223549
 20
126.0449552048
 11
58.9654223549
 21
96.0449552048
  0
LINE
  5
28B
100
AcDbEntity
  8
03___PRT_ALL_CURVES
100
AcDbLine
 62
4
  6
CONTINUOUS
 10
58.9954223549
 20
126.0449552048
 11
58.9954223549
 21
96.0449552048
  0
LINE
  5
28C
100
AcDbEntity
  8
03___PRT_ALL_CURVES
100
AcDbLine
 62
4
  6
CONTINUOUS
 10
59.0254223549
 20
126.0449552048
 11
59.0254223549
 21
96.0449552048
  0
LINE
  5
28D
100
AcDbEntity
  8
03___PRT_ALL_CURVES
100
AcDbLine
 62
4
  6
CONTINUOUS
 10
59.0554223549
 20
126.0449552048
 11
59.0554223549
 21
96.0449552048
  0
LINE
  5
28E
100
AcDbEntity
  8
03___PRT_ALL_CURVES
100
AcDbLine
 62
4
  6
CONTINUOUS
 10
59.0854223549
 20
126.0449552048
 11
59.0854223549
 21
96.0449552048
  0
LINE
  5
28F
100
AcDbEntity
  8
03___PRT_ALL_CURVES
100
AcDbLine
 62
4
  6
CONTINUOUS
 10
59.1154223549
 20
126.0449552048
 11
59.1154223549
 21
96.0449552048
  0
LINE
  5
290
100
AcDbEntity
  8
03___PRT_ALL_CURVES
100
AcDbLine
 62
4
  6
CONTINUOUS
 10
59.1454223549
 20
126.0449552048
 11
59.1454223549
 21
96.0449552048
  0
LINE
  5
291
100
AcDbEntity
  8
03___PRT_ALL_CURVES
100
AcDbLine
 62
4
  6
CONTINUOUS
 10
59.1754223549
 20
126.0449552048
 11
59.1754223549
 21
96.0449552048
  0
LINE
  5
292
100
AcDbEntity
  8
03___PRT_ALL_CURVES
100
AcDbLine
 62
4
  6
CONTINUOUS
 10
59.2054223549
 20
126.0449552048
 11
59.2054223549
 21
96.0449552048
  0
LINE
  5
293
100
AcDbEntity
  8
03___PRT_ALL_CURVES
100
AcDbLine
 62
4
  6
CONTINUOUS
 10
59.2354223549
 20
126.0449552048
 11
59.2354223549
 21
96.0449552048
  0
LINE
  5
294
100
AcDbEntity
  8
03___PRT_ALL_CURVES
100
AcDbLine
 62
4
  6
CONTINUOUS
 10
59.2654223549
 20
126.0449552048
 11
59.2654223549
 21
96.0449552048
  0
LINE
  5
295
100
AcDbEntity
  8
03___PRT_ALL_CURVES
100
AcDbLine
 62
4
  6
CONTINUOUS
 10
59.2954223549
 20
126.0449552048
 11
59.2954223549
 21
96.0449552048
  0
LINE
  5
296
100
AcDbEntity
  8
03___PRT_ALL_CURVES
100
AcDbLine
 62
4
  6
CONTINUOUS
 10
59.3254223549
 20
126.0449552048
 11
59.3254223549
 21
96.0449552048
  0
LINE
  5
297
100
AcDbEntity
  8
03___PRT_ALL_CURVES
100
AcDbLine
 62
4
  6
CONTINUOUS
 10
59.3554223549
 20
126.0449552048
 11
59.3554223549
 21
96.0449552048
  0
LINE
  5
298
100
AcDbEntity
  8
03___PRT_ALL_CURVES
100
AcDbLine
 62
4
  6
CONTINUOUS
 10
59.3854223549
 20
126.0449552048
 11
59.3854223549
 21
96.0449552048
  0
LINE
  5
299
100
AcDbEntity
  8
03___PRT_ALL_CURVES
100
AcDbLine
 62
4
  6
CONTINUOUS
 10
59.4154223549
 20
126.0449552048
 11
59.4154223549
 21
96.0449552048
  0
LINE
  5
29A
100
AcDbEntity
  8
03___PRT_ALL_CURVES
100
AcDbLine
 62
4
  6
CONTINUOUS
 10
59.4454223549
 20
126.0449552048
 11
59.4454223549
 21
96.0449552048
  0
LINE
  5
29B
100
AcDbEntity
  8
03___PRT_ALL_CURVES
100
AcDbLine
 62
4
  6
CONTINUOUS
 10
59.4754223549
 20
126.0449552048
 11
59.4754223549
 21
96.0449552048
  0
LINE
  5
29C
100
AcDbEntity
  8
03___PRT_ALL_CURVES
100
AcDbLine
 62
4
  6
CONTINUOUS
 10
59.5054223549
 20
126.0449552048
 11
59.5054223549
 21
96.0449552048
  0
LINE
  5
29D
100
AcDbEntity
  8
03___PRT_ALL_CURVES
100
AcDbLine
 62
4
  6
CONTINUOUS
 10
59.5354223549
 20
126.0449552048
 11
59.5354223549
 21
96.0449552048
  0
LINE
  5
29E
100
AcDbEntity
  8
03___PRT_ALL_CURVES
100
AcDbLine
 62
4
  6
CONTINUOUS
 10
59.5654223549
 20
126.0449552048
 11
59.5654223549
 21
96.0449552048
  0
LINE
  5
29F
100
AcDbEntity
  8
03___PRT_ALL_CURVES
100
AcDbLine
 62
4
  6
CONTINUOUS
 10
59.5954223549
 20
126.0449552048
 11
59.5954223549
 21
96.0449552048
  0
LINE
  5
2A0
100
AcDbEntity
  8
03___PRT_ALL_CURVES
100
AcDbLine
 62
4
  6
CONTINUOUS
 10
59.6254223549
 20
126.0449552048
 11
59.6254223549
 21
96.0449552048
  0
LINE
  5
2A1
100
AcDbEntity
  8
03___PRT_ALL_CURVES
100
AcDbLine
 62
4
  6
CONTINUOUS
 10
59.6554223549
 20
126.0449552048
 11
59.6554223549
 21
96.0449552048
  0
LINE
  5
2A2
100
AcDbEntity
  8
03___PRT_ALL_CURVES
100
AcDbLine
 62
4
  6
CONTINUOUS
 10
59.6854223549
 20
126.0449552048
 11
59.6854223549
 21
96.0449552048
  0
LINE
  5
2A3
100
AcDbEntity
  8
03___PRT_ALL_CURVES
100
AcDbLine
 62
4
  6
CONTINUOUS
 10
59.7154223549
 20
126.0449552048
 11
59.7154223549
 21
96.0449552048
  0
LINE
  5
2A4
100
AcDbEntity
  8
03___PRT_ALL_CURVES
100
AcDbLine
 62
4
  6
CONTINUOUS
 10
59.7454223549
 20
126.0449552048
 11
59.7454223549
 21
96.0449552048
  0
LINE
  5
2A5
100
AcDbEntity
  8
03___PRT_ALL_CURVES
100
AcDbLine
 62
4
  6
CONTINUOUS
 10
59.7754223549
 20
126.0449552048
 11
59.7754223549
 21
96.0449552048
  0
LINE
  5
2A6
100
AcDbEntity
  8
03___PRT_ALL_CURVES
100
AcDbLine
 62
4
  6
CONTINUOUS
 10
59.8054223549
 20
126.0449552048
 11
59.8054223549
 21
96.0449552048
  0
LINE
  5
2A7
100
AcDbEntity
  8
03___PRT_ALL_CURVES
100
AcDbLine
 62
4
  6
CONTINUOUS
 10
59.8354223549
 20
126.0449552048
 11
59.8354223549
 21
96.0449552048
  0
LINE
  5
2A8
100
AcDbEntity
  8
03___PRT_ALL_CURVES
100
AcDbLine
 62
4
  6
CONTINUOUS
 10
59.8654223549
 20
126.0449552048
 11
59.8654223549
 21
96.0449552048
  0
LINE
  5
2A9
100
AcDbEntity
  8
03___PRT_ALL_CURVES
100
AcDbLine
 62
4
  6
CONTINUOUS
 10
59.8954223549
 20
126.0449552048
 11
59.8954223549
 21
96.0449552048
  0
LINE
  5
2AA
100
AcDbEntity
  8
03___PRT_ALL_CURVES
100
AcDbLine
 62
4
  6
CONTINUOUS
 10
59.9254223549
 20
126.0449552048
 11
59.9254223549
 21
96.0449552048
  0
LINE
  5
2AB
100
AcDbEntity
  8
03___PRT_ALL_CURVES
100
AcDbLine
 62
4
  6
CONTINUOUS
 10
59.9554223549
 20
126.0449552048
 11
59.9554223549
 21
96.0449552048
  0
LINE
  5
2AC
100
AcDbEntity
  8
03___PRT_ALL_CURVES
100
AcDbLine
 62
4
  6
CONTINUOUS
 10
59.9854223549
 20
126.0449552048
 11
59.9854223549
 21
96.0449552048
  0
LINE
  5
2AD
100
AcDbEntity
  8
03___PRT_ALL_CURVES
100
AcDbLine
 62
4
  6
CONTINUOUS
 10
60.0154223549
 20
126.0449552048
 11
60.0154223549
 21
96.0449552048
  0
LINE
  5
2AE
100
AcDbEntity
  8
03___PRT_ALL_CURVES
100
AcDbLine
 62
4
  6
CONTINUOUS
 10
60.0454223549
 20
126.0449552048
 11
60.0454223549
 21
96.0449552048
  0
LINE
  5
2AF
100
AcDbEntity
  8
03___PRT_ALL_CURVES
100
AcDbLine
 62
4
  6
CONTINUOUS
 10
60.0754223549
 20
126.0449552048
 11
60.0754223549
 21
96.0449552048
  0
LINE
  5
2B0
100
AcDbEntity
  8
03___PRT_ALL_CURVES
100
AcDbLine
 62
4
  6
CONTINUOUS
 10
60.1054223549
 20
126.0449552048
 11
60.1054223549
 21
96.0449552048
  0
LINE
  5
2B1
100
AcDbEntity
  8
03___PRT_ALL_CURVES
100
AcDbLine
 62
4
  6
CONTINUOUS
 10
60.1354223549
 20
126.0449552048
 11
60.1354223549
 21
96.0449552048
  0
LINE
  5
2B2
100
AcDbEntity
  8
03___PRT_ALL_CURVES
100
AcDbLine
 62
4
  6
CONTINUOUS
 10
60.1654223549
 20
126.0449552048
 11
60.1654223549
 21
96.0449552048
  0
LINE
  5
2B3
100
AcDbEntity
  8
03___PRT_ALL_CURVES
100
AcDbLine
 62
4
  6
CONTINUOUS
 10
60.1954223549
 20
126.0449552048
 11
60.1954223549
 21
96.0449552048
  0
LINE
  5
2B4
100
AcDbEntity
  8
03___PRT_ALL_CURVES
100
AcDbLine
 62
4
  6
CONTINUOUS
 10
60.2254223549
 20
126.0449552048
 11
60.2254223549
 21
96.0449552048
  0
LINE
  5
2B5
100
AcDbEntity
  8
03___PRT_ALL_CURVES
100
AcDbLine
 62
4
  6
CONTINUOUS
 10
60.2554223549
 20
126.0449552048
 11
60.2554223549
 21
96.0449552048
  0
LINE
  5
2B6
100
AcDbEntity
  8
03___PRT_ALL_CURVES
100
AcDbLine
 62
4
  6
CONTINUOUS
 10
60.2854223549
 20
126.0449552048
 11
60.2854223549
 21
96.0449552048
  0
LINE
  5
2B7
100
AcDbEntity
  8
03___PRT_ALL_CURVES
100
AcDbLine
 62
4
  6
CONTINUOUS
 10
60.3154223549
 20
126.0449552048
 11
60.3154223549
 21
96.0449552048
  0
LINE
  5
2B8
100
AcDbEntity
  8
03___PRT_ALL_CURVES
100
AcDbLine
 62
4
  6
CONTINUOUS
 10
60.3454223549
 20
126.0449552048
 11
60.3454223549
 21
96.0449552048
  0
LINE
  5
2B9
100
AcDbEntity
  8
03___PRT_ALL_CURVES
100
AcDbLine
 62
4
  6
CONTINUOUS
 10
60.3754223549
 20
126.0449552048
 11
60.3754223549
 21
96.0449552048
  0
LINE
  5
2BA
100
AcDbEntity
  8
03___PRT_ALL_CURVES
100
AcDbLine
 62
4
  6
CONTINUOUS
 10
60.4054223549
 20
126.0449552048
 11
60.4054223549
 21
96.0449552048
  0
LINE
  5
2BB
100
AcDbEntity
  8
03___PRT_ALL_CURVES
100
AcDbLine
 62
4
  6
CONTINUOUS
 10
60.4354223549
 20
126.0449552048
 11
60.4354223549
 21
96.0449552048
  0
LINE
  5
2BC
100
AcDbEntity
  8
03___PRT_ALL_CURVES
100
AcDbLine
 62
4
  6
CONTINUOUS
 10
60.4654223549
 20
126.0449552048
 11
60.4654223549
 21
96.0449552048
  0
LINE
  5
2BD
100
AcDbEntity
  8
03___PRT_ALL_CURVES
100
AcDbLine
 62
4
  6
CONTINUOUS
 10
60.4954223549
 20
126.0449552048
 11
60.4954223549
 21
96.0449552048
  0
LINE
  5
2BE
100
AcDbEntity
  8
03___PRT_ALL_CURVES
100
AcDbLine
 62
4
  6
CONTINUOUS
 10
60.5254223549
 20
126.0449552048
 11
60.5254223549
 21
96.0449552048
  0
LINE
  5
2BF
100
AcDbEntity
  8
03___PRT_ALL_CURVES
100
AcDbLine
 62
4
  6
CONTINUOUS
 10
60.5554223549
 20
126.0449552048
 11
60.5554223549
 21
96.0449552048
  0
LINE
  5
2C0
100
AcDbEntity
  8
03___PRT_ALL_CURVES
100
AcDbLine
 62
4
  6
CONTINUOUS
 10
60.5854223549
 20
126.0449552048
 11
60.5854223549
 21
96.0449552048
  0
LINE
  5
2C1
100
AcDbEntity
  8
03___PRT_ALL_CURVES
100
AcDbLine
 62
4
  6
CONTINUOUS
 10
60.6154223549
 20
126.0449552048
 11
60.6154223549
 21
96.0449552048
  0
LINE
  5
2C2
100
AcDbEntity
  8
03___PRT_ALL_CURVES
100
AcDbLine
 62
4
  6
CONTINUOUS
 10
60.6454223549
 20
126.0449552048
 11
60.6454223549
 21
96.0449552048
  0
LINE
  5
2C3
100
AcDbEntity
  8
03___PRT_ALL_CURVES
100
AcDbLine
 62
4
  6
CONTINUOUS
 10
60.6754223549
 20
126.0449552048
 11
60.6754223549
 21
96.0449552048
  0
LINE
  5
2C4
100
AcDbEntity
  8
03___PRT_ALL_CURVES
100
AcDbLine
 62
4
  6
CONTINUOUS
 10
60.7054223549
 20
126.0449552048
 11
60.7054223549
 21
96.0449552048
  0
LINE
  5
2C5
100
AcDbEntity
  8
03___PRT_ALL_CURVES
100
AcDbLine
 62
4
  6
CONTINUOUS
 10
60.7354223549
 20
126.0449552048
 11
60.7354223549
 21
96.0449552048
  0
LINE
  5
2C6
100
AcDbEntity
  8
03___PRT_ALL_CURVES
100
AcDbLine
 62
4
  6
CONTINUOUS
 10
60.7654223549
 20
126.0449552048
 11
60.7654223549
 21
96.0449552048
  0
LINE
  5
2C7
100
AcDbEntity
  8
03___PRT_ALL_CURVES
100
AcDbLine
 62
4
  6
CONTINUOUS
 10
60.7954223549
 20
126.0449552048
 11
60.7954223549
 21
96.0449552048
  0
LINE
  5
2C8
100
AcDbEntity
  8
03___PRT_ALL_CURVES
100
AcDbLine
 62
4
  6
CONTINUOUS
 10
60.8254223549
 20
126.0449552048
 11
60.8254223549
 21
96.0449552048
  0
LINE
  5
2C9
100
AcDbEntity
  8
03___PRT_ALL_CURVES
100
AcDbLine
 62
4
  6
CONTINUOUS
 10
60.8554223549
 20
126.0449552048
 11
60.8554223549
 21
96.0449552048
  0
LINE
  5
2CA
100
AcDbEntity
  8
03___PRT_ALL_CURVES
100
AcDbLine
 62
4
  6
CONTINUOUS
 10
60.8854223549
 20
126.0449552048
 11
60.8854223549
 21
96.0449552048
  0
LINE
  5
2CB
100
AcDbEntity
  8
03___PRT_ALL_CURVES
100
AcDbLine
 62
4
  6
CONTINUOUS
 10
60.9154223549
 20
126.0449552048
 11
60.9154223549
 21
96.0449552048
  0
LINE
  5
2CC
100
AcDbEntity
  8
03___PRT_ALL_CURVES
100
AcDbLine
 62
4
  6
CONTINUOUS
 10
60.9454223549
 20
126.0449552048
 11
60.9454223549
 21
96.0449552048
  0
LINE
  5
2CD
100
AcDbEntity
  8
03___PRT_ALL_CURVES
100
AcDbLine
 62
4
  6
CONTINUOUS
 10
60.9754223549
 20
126.0449552048
 11
60.9754223549
 21
96.0449552048
  0
LINE
  5
2CE
100
AcDbEntity
  8
03___PRT_ALL_CURVES
100
AcDbLine
 62
4
  6
CONTINUOUS
 10
61.0054223549
 20
126.0449552048
 11
61.0054223549
 21
96.0449552048
  0
LINE
  5
2CF
100
AcDbEntity
  8
03___PRT_ALL_CURVES
100
AcDbLine
 62
4
  6
CONTINUOUS
 10
61.0354223549
 20
126.0449552048
 11
61.0354223549
 21
96.0449552048
  0
LINE
  5
2D0
100
AcDbEntity
  8
03___PRT_ALL_CURVES
100
AcDbLine
 62
4
  6
CONTINUOUS
 10
61.0654223549
 20
126.0449552048
 11
61.0654223549
 21
96.0449552048
  0
LINE
  5
2D1
100
AcDbEntity
  8
03___PRT_ALL_CURVES
100
AcDbLine
 62
4
  6
CONTINUOUS
 10
61.0954223549
 20
126.0449552048
 11
61.0954223549
 21
96.0449552048
  0
LINE
  5
2D2
100
AcDbEntity
  8
03___PRT_ALL_CURVES
100
AcDbLine
 62
4
  6
CONTINUOUS
 10
61.1254223549
 20
126.0449552048
 11
61.1254223549
 21
96.0449552048
  0
LINE
  5
2D3
100
AcDbEntity
  8
03___PRT_ALL_CURVES
100
AcDbLine
 62
4
  6
CONTINUOUS
 10
61.1554223549
 20
126.0449552048
 11
61.1554223549
 21
96.0449552048
  0
LINE
  5
2D4
100
AcDbEntity
  8
03___PRT_ALL_CURVES
100
AcDbLine
 62
4
  6
CONTINUOUS
 10
61.1854223549
 20
126.0449552048
 11
61.1854223549
 21
96.0449552048
  0
LINE
  5
2D5
100
AcDbEntity
  8
03___PRT_ALL_CURVES
100
AcDbLine
 62
4
  6
CONTINUOUS
 10
61.2154223549
 20
126.0449552048
 11
61.2154223549
 21
96.0449552048
  0
LINE
  5
2D6
100
AcDbEntity
  8
03___PRT_ALL_CURVES
100
AcDbLine
 62
4
  6
CONTINUOUS
 10
61.2454223549
 20
126.0449552048
 11
61.2454223549
 21
96.0449552048
  0
LINE
  5
2D7
100
AcDbEntity
  8
03___PRT_ALL_CURVES
100
AcDbLine
 62
4
  6
CONTINUOUS
 10
61.2754223549
 20
126.0449552048
 11
61.2754223549
 21
96.0449552048
  0
LINE
  5
2D8
100
AcDbEntity
  8
03___PRT_ALL_CURVES
100
AcDbLine
 62
4
  6
CONTINUOUS
 10
61.3054223549
 20
126.0449552048
 11
61.3054223549
 21
96.0449552048
  0
LINE
  5
2D9
100
AcDbEntity
  8
03___PRT_ALL_CURVES
100
AcDbLine
 62
4
  6
CONTINUOUS
 10
61.3354223549
 20
126.0449552048
 11
61.3354223549
 21
96.0449552048
  0
LINE
  5
2DA
100
AcDbEntity
  8
03___PRT_ALL_CURVES
100
AcDbLine
 62
4
  6
CONTINUOUS
 10
61.3654223549
 20
126.0449552048
 11
61.3654223549
 21
96.0449552048
  0
LINE
  5
2DB
100
AcDbEntity
  8
03___PRT_ALL_CURVES
100
AcDbLine
 62
4
  6
CONTINUOUS
 10
61.3954223549
 20
126.0449552048
 11
61.3954223549
 21
96.0449552048
  0
LINE
  5
2DC
100
AcDbEntity
  8
03___PRT_ALL_CURVES
100
AcDbLine
 62
4
  6
CONTINUOUS
 10
61.4254223549
 20
126.0449552048
 11
61.4254223549
 21
96.0449552048
  0
LINE
  5
2DD
100
AcDbEntity
  8
03___PRT_ALL_CURVES
100
AcDbLine
 62
4
  6
CONTINUOUS
 10
61.4554223549
 20
126.0449552048
 11
61.4554223549
 21
96.0449552048
  0
LINE
  5
2DE
100
AcDbEntity
  8
03___PRT_ALL_CURVES
100
AcDbLine
 62
4
  6
CONTINUOUS
 10
61.4854223549
 20
126.0449552048
 11
61.4854223549
 21
96.0449552048
  0
LINE
  5
2DF
100
AcDbEntity
  8
03___PRT_ALL_CURVES
100
AcDbLine
 62
4
  6
CONTINUOUS
 10
61.5154223549
 20
126.0449552048
 11
61.5154223549
 21
96.0449552048
  0
LINE
  5
2E0
100
AcDbEntity
  8
03___PRT_ALL_CURVES
100
AcDbLine
 62
4
  6
CONTINUOUS
 10
61.5454223549
 20
126.0449552048
 11
61.5454223549
 21
96.0449552048
  0
LINE
  5
2E1
100
AcDbEntity
  8
03___PRT_ALL_CURVES
100
AcDbLine
 62
4
  6
CONTINUOUS
 10
61.5754223549
 20
126.0449552048
 11
61.5754223549
 21
96.0449552048
  0
LINE
  5
2E2
100
AcDbEntity
  8
03___PRT_ALL_CURVES
100
AcDbLine
 62
4
  6
CONTINUOUS
 10
61.6054223549
 20
126.0449552048
 11
61.6054223549
 21
96.0449552048
  0
LINE
  5
2E3
100
AcDbEntity
  8
03___PRT_ALL_CURVES
100
AcDbLine
 62
4
  6
CONTINUOUS
 10
61.6354223549
 20
126.0449552048
 11
61.6354223549
 21
96.0449552048
  0
LINE
  5
2E4
100
AcDbEntity
  8
03___PRT_ALL_CURVES
100
AcDbLine
 62
4
  6
CONTINUOUS
 10
61.6654223549
 20
126.0449552048
 11
61.6654223549
 21
96.0449552048
  0
LINE
  5
2E5
100
AcDbEntity
  8
03___PRT_ALL_CURVES
100
AcDbLine
 62
4
  6
CONTINUOUS
 10
61.6954223549
 20
126.0449552048
 11
61.6954223549
 21
96.0449552048
  0
LINE
  5
2E6
100
AcDbEntity
  8
03___PRT_ALL_CURVES
100
AcDbLine
 62
4
  6
CONTINUOUS
 10
61.7254223549
 20
126.0449552048
 11
61.7254223549
 21
96.0449552048
  0
LINE
  5
2E7
100
AcDbEntity
  8
03___PRT_ALL_CURVES
100
AcDbLine
 62
4
  6
CONTINUOUS
 10
61.7554223549
 20
126.0449552048
 11
61.7554223549
 21
96.0449552048
  0
LINE
  5
2E8
100
AcDbEntity
  8
03___PRT_ALL_CURVES
100
AcDbLine
 62
4
  6
CONTINUOUS
 10
61.7854223549
 20
126.0449552048
 11
61.7854223549
 21
96.0449552048
  0
LINE
  5
2E9
100
AcDbEntity
  8
03___PRT_ALL_CURVES
100
AcDbLine
 62
4
  6
CONTINUOUS
 10
61.8154223549
 20
126.0449552048
 11
61.8154223549
 21
96.0449552048
  0
LINE
  5
2EA
100
AcDbEntity
  8
03___PRT_ALL_CURVES
100
AcDbLine
 62
4
  6
CONTINUOUS
 10
61.8454223549
 20
126.0449552048
 11
61.8454223549
 21
96.0449552048
  0
LINE
  5
2EB
100
AcDbEntity
  8
03___PRT_ALL_CURVES
100
AcDbLine
 62
4
  6
CONTINUOUS
 10
61.8754223549
 20
126.0449552048
 11
61.8754223549
 21
96.0449552048
  0
LINE
  5
2EC
100
AcDbEntity
  8
03___PRT_ALL_CURVES
100
AcDbLine
 62
4
  6
CONTINUOUS
 10
61.9054223549
 20
126.0449552048
 11
61.9054223549
 21
96.0449552048
  0
LINE
  5
2ED
100
AcDbEntity
  8
03___PRT_ALL_CURVES
100
AcDbLine
 62
4
  6
CONTINUOUS
 10
61.9354223549
 20
126.0449552048
 11
61.9354223549
 21
96.0449552048
  0
LINE
  5
2EE
100
AcDbEntity
  8
03___PRT_ALL_CURVES
100
AcDbLine
 62
4
  6
CONTINUOUS
 10
61.9654223549
 20
126.0449552048
 11
61.9654223549
 21
96.0449552048
  0
LINE
  5
2EF
100
AcDbEntity
  8
03___PRT_ALL_CURVES
100
AcDbLine
 62
4
  6
CONTINUOUS
 10
61.9954223549
 20
126.0449552048
 11
61.9954223549
 21
96.0449552048
  0
LINE
  5
2F0
100
AcDbEntity
  8
03___PRT_ALL_CURVES
100
AcDbLine
 62
4
  6
CONTINUOUS
 10
62.0254223549
 20
126.0449552048
 11
62.0254223549
 21
96.0449552048
  0
LINE
  5
2F1
100
AcDbEntity
  8
03___PRT_ALL_CURVES
100
AcDbLine
 62
4
  6
CONTINUOUS
 10
62.0554223549
 20
126.0449552048
 11
62.0554223549
 21
96.0449552048
  0
LINE
  5
2F2
100
AcDbEntity
  8
03___PRT_ALL_CURVES
100
AcDbLine
 62
4
  6
CONTINUOUS
 10
62.0854223549
 20
126.0449552048
 11
62.0854223549
 21
96.0449552048
  0
LINE
  5
2F3
100
AcDbEntity
  8
03___PRT_ALL_CURVES
100
AcDbLine
 62
4
  6
CONTINUOUS
 10
62.1154223549
 20
126.0449552048
 11
62.1154223549
 21
96.0449552048
  0
LINE
  5
2F4
100
AcDbEntity
  8
03___PRT_ALL_CURVES
100
AcDbLine
 62
4
  6
CONTINUOUS
 10
62.1454223549
 20
126.0449552048
 11
62.1454223549
 21
96.0449552048
  0
LINE
  5
2F5
100
AcDbEntity
  8
03___PRT_ALL_CURVES
100
AcDbLine
 62
4
  6
CONTINUOUS
 10
62.1754223549
 20
126.0449552048
 11
62.1754223549
 21
96.0449552048
  0
LINE
  5
2F6
100
AcDbEntity
  8
03___PRT_ALL_CURVES
100
AcDbLine
 62
4
  6
CONTINUOUS
 10
62.2054223549
 20
126.0449552048
 11
62.2054223549
 21
96.0449552048
  0
LINE
  5
2F7
100
AcDbEntity
  8
03___PRT_ALL_CURVES
100
AcDbLine
 62
4
  6
CONTINUOUS
 10
62.2354223549
 20
126.0449552048
 11
62.2354223549
 21
96.0449552048
  0
LINE
  5
2F8
100
AcDbEntity
  8
03___PRT_ALL_CURVES
100
AcDbLine
 62
4
  6
CONTINUOUS
 10
62.2654223549
 20
126.0449552048
 11
62.2654223549
 21
96.0449552048
  0
LINE
  5
2F9
100
AcDbEntity
  8
03___PRT_ALL_CURVES
100
AcDbLine
 62
4
  6
CONTINUOUS
 10
62.2954223549
 20
126.0449552048
 11
62.2954223549
 21
96.0449552048
  0
LINE
  5
2FA
100
AcDbEntity
  8
03___PRT_ALL_CURVES
100
AcDbLine
 62
4
  6
CONTINUOUS
 10
62.3254223549
 20
126.0449552048
 11
62.3254223549
 21
96.0449552048
  0
LINE
  5
2FB
100
AcDbEntity
  8
03___PRT_ALL_CURVES
100
AcDbLine
 62
4
  6
CONTINUOUS
 10
62.3554223549
 20
126.0449552048
 11
62.3554223549
 21
96.0449552048
  0
LINE
  5
2FC
100
AcDbEntity
  8
03___PRT_ALL_CURVES
100
AcDbLine
 62
4
  6
CONTINUOUS
 10
62.3854223549
 20
126.0449552048
 11
62.3854223549
 21
96.0449552048
  0
LINE
  5
2FD
100
AcDbEntity
  8
03___PRT_ALL_CURVES
100
AcDbLine
 62
4
  6
CONTINUOUS
 10
62.4154223549
 20
126.0449552048
 11
62.4154223549
 21
96.0449552048
  0
LINE
  5
2FE
100
AcDbEntity
  8
03___PRT_ALL_CURVES
100
AcDbLine
 62
4
  6
CONTINUOUS
 10
62.4454223549
 20
126.0449552048
 11
62.4454223549
 21
96.0449552048
  0
LINE
  5
2FF
100
AcDbEntity
  8
03___PRT_ALL_CURVES
100
AcDbLine
 62
4
  6
CONTINUOUS
 10
62.4754223549
 20
126.0449552048
 11
62.4754223549
 21
96.0449552048
  0
LINE
  5
300
100
AcDbEntity
  8
03___PRT_ALL_CURVES
100
AcDbLine
 62
4
  6
CONTINUOUS
 10
62.5054223549
 20
126.0449552048
 11
62.5054223549
 21
96.0449552048
  0
LINE
  5
301
100
AcDbEntity
  8
03___PRT_ALL_CURVES
100
AcDbLine
 62
4
  6
CONTINUOUS
 10
62.5354223549
 20
126.0449552048
 11
62.5354223549
 21
96.0449552048
  0
LINE
  5
302
100
AcDbEntity
  8
03___PRT_ALL_CURVES
100
AcDbLine
 62
4
  6
CONTINUOUS
 10
62.5654223549
 20
126.0449552048
 11
62.5654223549
 21
96.0449552048
  0
LINE
  5
303
100
AcDbEntity
  8
03___PRT_ALL_CURVES
100
AcDbLine
 62
4
  6
CONTINUOUS
 10
62.5954223549
 20
126.0449552048
 11
62.5954223549
 21
96.0449552048
  0
LINE
  5
304
100
AcDbEntity
  8
03___PRT_ALL_CURVES
100
AcDbLine
 62
4
  6
CONTINUOUS
 10
62.6254223549
 20
126.0449552048
 11
62.6254223549
 21
96.0449552048
  0
LINE
  5
305
100
AcDbEntity
  8
03___PRT_ALL_CURVES
100
AcDbLine
 62
4
  6
CONTINUOUS
 10
62.6554223549
 20
126.0449552048
 11
62.6554223549
 21
96.0449552048
  0
LINE
  5
306
100
AcDbEntity
  8
03___PRT_ALL_CURVES
100
AcDbLine
 62
4
  6
CONTINUOUS
 10
62.6854223549
 20
126.0449552048
 11
62.6854223549
 21
96.0449552048
  0
LINE
  5
307
100
AcDbEntity
  8
03___PRT_ALL_CURVES
100
AcDbLine
 62
4
  6
CONTINUOUS
 10
62.7154223549
 20
126.0449552048
 11
62.7154223549
 21
96.0449552048
  0
LINE
  5
308
100
AcDbEntity
  8
03___PRT_ALL_CURVES
100
AcDbLine
 62
4
  6
CONTINUOUS
 10
62.7454223549
 20
126.0449552048
 11
62.7454223549
 21
96.0449552048
  0
LINE
  5
309
100
AcDbEntity
  8
03___PRT_ALL_CURVES
100
AcDbLine
 62
4
  6
CONTINUOUS
 10
62.7754223549
 20
126.0449552048
 11
62.7754223549
 21
96.0449552048
  0
LINE
  5
30A
100
AcDbEntity
  8
03___PRT_ALL_CURVES
100
AcDbLine
 62
4
  6
CONTINUOUS
 10
62.8054223549
 20
126.0449552048
 11
62.8054223549
 21
96.0449552048
  0
LINE
  5
30B
100
AcDbEntity
  8
03___PRT_ALL_CURVES
100
AcDbLine
 62
4
  6
CONTINUOUS
 10
62.8354223549
 20
126.0449552048
 11
62.8354223549
 21
96.0449552048
  0
LINE
  5
30C
100
AcDbEntity
  8
03___PRT_ALL_CURVES
100
AcDbLine
 62
4
  6
CONTINUOUS
 10
62.8654223549
 20
126.0449552048
 11
62.8654223549
 21
96.0449552048
  0
LINE
  5
30D
100
AcDbEntity
  8
03___PRT_ALL_CURVES
100
AcDbLine
 62
4
  6
CONTINUOUS
 10
62.8954223549
 20
126.0449552048
 11
62.8954223549
 21
96.0449552048
  0
LINE
  5
30E
100
AcDbEntity
  8
03___PRT_ALL_CURVES
100
AcDbLine
 62
4
  6
CONTINUOUS
 10
62.9254223549
 20
126.0449552048
 11
62.9254223549
 21
96.0449552048
  0
LINE
  5
30F
100
AcDbEntity
  8
03___PRT_ALL_CURVES
100
AcDbLine
 62
4
  6
CONTINUOUS
 10
62.9554223549
 20
126.0449552048
 11
62.9554223549
 21
96.0449552048
  0
LINE
  5
310
100
AcDbEntity
  8
03___PRT_ALL_CURVES
100
AcDbLine
 62
4
  6
CONTINUOUS
 10
62.9854223549
 20
126.0449552048
 11
62.9854223549
 21
96.0449552048
  0
LINE
  5
311
100
AcDbEntity
  8
03___PRT_ALL_CURVES
100
AcDbLine
 62
4
  6
CONTINUOUS
 10
63.0154223549
 20
126.0449552048
 11
63.0154223549
 21
96.0449552048
  0
LINE
  5
312
100
AcDbEntity
  8
03___PRT_ALL_CURVES
100
AcDbLine
 62
4
  6
CONTINUOUS
 10
63.0454223549
 20
126.0449552048
 11
63.0454223549
 21
96.0449552048
  0
LINE
  5
313
100
AcDbEntity
  8
03___PRT_ALL_CURVES
100
AcDbLine
 62
4
  6
CONTINUOUS
 10
63.0754223549
 20
126.0449552048
 11
63.0754223549
 21
96.0449552048
  0
LINE
  5
314
100
AcDbEntity
  8
03___PRT_ALL_CURVES
100
AcDbLine
 62
4
  6
CONTINUOUS
 10
63.1054223549
 20
126.0449552048
 11
63.1054223549
 21
96.0449552048
  0
LINE
  5
315
100
AcDbEntity
  8
03___PRT_ALL_CURVES
100
AcDbLine
 62
4
  6
CONTINUOUS
 10
63.1354223549
 20
126.0449552048
 11
63.1354223549
 21
96.0449552048
  0
LINE
  5
316
100
AcDbEntity
  8
03___PRT_ALL_CURVES
100
AcDbLine
 62
4
  6
CONTINUOUS
 10
63.1654223549
 20
126.0449552048
 11
63.1654223549
 21
96.0449552048
  0
LINE
  5
317
100
AcDbEntity
  8
03___PRT_ALL_CURVES
100
AcDbLine
 62
4
  6
CONTINUOUS
 10
63.1954223549
 20
126.0449552048
 11
63.1954223549
 21
96.0449552048
  0
LINE
  5
318
100
AcDbEntity
  8
03___PRT_ALL_CURVES
100
AcDbLine
 62
4
  6
CONTINUOUS
 10
63.2254223549
 20
126.0449552048
 11
63.2254223549
 21
96.0449552048
  0
LINE
  5
319
100
AcDbEntity
  8
03___PRT_ALL_CURVES
100
AcDbLine
 62
4
  6
CONTINUOUS
 10
63.2554223549
 20
126.0449552048
 11
63.2554223549
 21
96.0449552048
  0
LINE
  5
31A
100
AcDbEntity
  8
03___PRT_ALL_CURVES
100
AcDbLine
 62
4
  6
CONTINUOUS
 10
63.2854223549
 20
126.0449552048
 11
63.2854223549
 21
96.0449552048
  0
LINE
  5
31B
100
AcDbEntity
  8
03___PRT_ALL_CURVES
100
AcDbLine
 62
4
  6
CONTINUOUS
 10
63.3154223549
 20
126.0449552048
 11
63.3154223549
 21
96.0449552048
  0
LINE
  5
31C
100
AcDbEntity
  8
03___PRT_ALL_CURVES
100
AcDbLine
 62
4
  6
CONTINUOUS
 10
63.3454223549
 20
126.0449552048
 11
63.3454223549
 21
96.0449552048
  0
LINE
  5
31D
100
AcDbEntity
  8
03___PRT_ALL_CURVES
100
AcDbLine
 62
4
  6
CONTINUOUS
 10
63.3754223549
 20
126.0449552048
 11
63.3754223549
 21
96.0449552048
  0
LINE
  5
31E
100
AcDbEntity
  8
03___PRT_ALL_CURVES
100
AcDbLine
 62
4
  6
CONTINUOUS
 10
63.4054223549
 20
126.0449552048
 11
63.4054223549
 21
96.0449552048
  0
LINE
  5
31F
100
AcDbEntity
  8
03___PRT_ALL_CURVES
100
AcDbLine
 62
4
  6
CONTINUOUS
 10
63.4354223549
 20
126.0449552048
 11
63.4354223549
 21
96.0449552048
  0
LINE
  5
320
100
AcDbEntity
  8
03___PRT_ALL_CURVES
100
AcDbLine
 62
4
  6
CONTINUOUS
 10
63.4654223549
 20
126.0449552048
 11
63.4654223549
 21
96.0449552048
  0
LINE
  5
321
100
AcDbEntity
  8
03___PRT_ALL_CURVES
100
AcDbLine
 62
4
  6
CONTINUOUS
 10
63.4954223549
 20
126.0449552048
 11
63.4954223549
 21
96.0449552048
  0
LINE
  5
322
100
AcDbEntity
  8
03___PRT_ALL_CURVES
100
AcDbLine
 62
4
  6
CONTINUOUS
 10
63.5254223549
 20
126.0449552048
 11
63.5254223549
 21
96.0449552048
  0
LINE
  5
323
100
AcDbEntity
  8
03___PRT_ALL_CURVES
100
AcDbLine
 62
4
  6
CONTINUOUS
 10
63.5554223549
 20
126.0449552048
 11
63.5554223549
 21
96.0449552048
  0
LINE
  5
324
100
AcDbEntity
  8
03___PRT_ALL_CURVES
100
AcDbLine
 62
4
  6
CONTINUOUS
 10
63.5854223549
 20
126.0449552048
 11
63.5854223549
 21
96.0449552048
  0
LINE
  5
325
100
AcDbEntity
  8
03___PRT_ALL_CURVES
100
AcDbLine
 62
4
  6
CONTINUOUS
 10
63.6154223549
 20
126.0449552048
 11
63.6154223549
 21
96.0449552048
  0
LINE
  5
326
100
AcDbEntity
  8
03___PRT_ALL_CURVES
100
AcDbLine
 62
4
  6
CONTINUOUS
 10
63.6454223549
 20
126.0449552048
 11
63.6454223549
 21
96.0449552048
  0
LINE
  5
327
100
AcDbEntity
  8
03___PRT_ALL_CURVES
100
AcDbLine
 62
4
  6
CONTINUOUS
 10
63.6754223549
 20
126.0449552048
 11
63.6754223549
 21
96.0449552048
  0
LINE
  5
328
100
AcDbEntity
  8
03___PRT_ALL_CURVES
100
AcDbLine
 62
4
  6
CONTINUOUS
 10
63.7054223549
 20
126.0449552048
 11
63.7054223549
 21
96.0449552048
  0
LINE
  5
329
100
AcDbEntity
  8
03___PRT_ALL_CURVES
100
AcDbLine
 62
4
  6
CONTINUOUS
 10
63.7354223549
 20
126.0449552048
 11
63.7354223549
 21
96.0449552048
  0
LINE
  5
32A
100
AcDbEntity
  8
03___PRT_ALL_CURVES
100
AcDbLine
 62
4
  6
CONTINUOUS
 10
63.7654223549
 20
126.0449552048
 11
63.7654223549
 21
96.0449552048
  0
LINE
  5
32B
100
AcDbEntity
  8
03___PRT_ALL_CURVES
100
AcDbLine
 62
4
  6
CONTINUOUS
 10
63.7954223549
 20
126.0449552048
 11
63.7954223549
 21
96.0449552048
  0
LINE
  5
32C
100
AcDbEntity
  8
03___PRT_ALL_CURVES
100
AcDbLine
 62
4
  6
CONTINUOUS
 10
63.8254223549
 20
126.0449552048
 11
63.8254223549
 21
96.0449552048
  0
LINE
  5
32D
100
AcDbEntity
  8
03___PRT_ALL_CURVES
100
AcDbLine
 62
4
  6
CONTINUOUS
 10
63.8554223549
 20
126.0449552048
 11
63.8554223549
 21
96.0449552048
  0
LINE
  5
32E
100
AcDbEntity
  8
03___PRT_ALL_CURVES
100
AcDbLine
 62
4
  6
CONTINUOUS
 10
63.8854223549
 20
126.0449552048
 11
63.8854223549
 21
96.0449552048
  0
LINE
  5
32F
100
AcDbEntity
  8
03___PRT_ALL_CURVES
100
AcDbLine
 62
4
  6
CONTINUOUS
 10
63.9154223549
 20
126.0449552048
 11
63.9154223549
 21
96.0449552048
  0
LINE
  5
330
100
AcDbEntity
  8
03___PRT_ALL_CURVES
100
AcDbLine
 62
4
  6
CONTINUOUS
 10
63.9454223549
 20
126.0449552048
 11
63.9454223549
 21
96.0449552048
  0
LINE
  5
331
100
AcDbEntity
  8
03___PRT_ALL_CURVES
100
AcDbLine
 62
4
  6
CONTINUOUS
 10
63.9754223549
 20
126.0449552048
 11
63.9754223549
 21
96.0449552048
  0
LINE
  5
332
100
AcDbEntity
  8
03___PRT_ALL_CURVES
100
AcDbLine
 62
4
  6
CONTINUOUS
 10
64.0054223549
 20
126.0449552048
 11
64.0054223549
 21
96.0449552048
  0
LINE
  5
333
100
AcDbEntity
  8
03___PRT_ALL_CURVES
100
AcDbLine
 62
4
  6
CONTINUOUS
 10
64.0354223549
 20
126.0449552048
 11
64.0354223549
 21
96.0449552048
  0
LINE
  5
334
100
AcDbEntity
  8
03___PRT_ALL_CURVES
100
AcDbLine
 62
4
  6
CONTINUOUS
 10
64.0654223549
 20
126.0449552048
 11
64.0654223549
 21
96.0449552048
  0
LINE
  5
335
100
AcDbEntity
  8
03___PRT_ALL_CURVES
100
AcDbLine
 62
4
  6
CONTINUOUS
 10
64.0954223549
 20
126.0449552048
 11
64.0954223549
 21
96.0449552048
  0
LINE
  5
336
100
AcDbEntity
  8
03___PRT_ALL_CURVES
100
AcDbLine
 62
4
  6
CONTINUOUS
 10
64.1254223549
 20
126.0449552048
 11
64.1254223549
 21
96.0449552048
  0
LINE
  5
337
100
AcDbEntity
  8
03___PRT_ALL_CURVES
100
AcDbLine
 62
4
  6
CONTINUOUS
 10
64.1554223549
 20
126.0449552048
 11
64.1554223549
 21
96.0449552048
  0
LINE
  5
338
100
AcDbEntity
  8
03___PRT_ALL_CURVES
100
AcDbLine
 62
4
  6
CONTINUOUS
 10
64.1854223549
 20
126.0449552048
 11
64.1854223549
 21
96.0449552048
  0
LINE
  5
339
100
AcDbEntity
  8
03___PRT_ALL_CURVES
100
AcDbLine
 62
4
  6
CONTINUOUS
 10
64.2154223549
 20
126.0449552048
 11
64.2154223549
 21
96.0449552048
  0
LINE
  5
33A
100
AcDbEntity
  8
03___PRT_ALL_CURVES
100
AcDbLine
 62
4
  6
CONTINUOUS
 10
64.2454223549
 20
126.0449552048
 11
64.2454223549
 21
96.0449552048
  0
LINE
  5
33B
100
AcDbEntity
  8
03___PRT_ALL_CURVES
100
AcDbLine
 62
4
  6
CONTINUOUS
 10
64.2754223549
 20
126.0449552048
 11
64.2754223549
 21
96.0449552048
  0
LINE
  5
33C
100
AcDbEntity
  8
03___PRT_ALL_CURVES
100
AcDbLine
 62
4
  6
CONTINUOUS
 10
64.3054223549
 20
126.0449552048
 11
64.3054223549
 21
96.0449552048
  0
LINE
  5
33D
100
AcDbEntity
  8
03___PRT_ALL_CURVES
100
AcDbLine
 62
4
  6
CONTINUOUS
 10
64.3354223549
 20
126.0449552048
 11
64.3354223549
 21
96.0449552048
  0
LINE
  5
33E
100
AcDbEntity
  8
03___PRT_ALL_CURVES
100
AcDbLine
 62
4
  6
CONTINUOUS
 10
64.3654223549
 20
126.0449552048
 11
64.3654223549
 21
96.0449552048
  0
LINE
  5
33F
100
AcDbEntity
  8
03___PRT_ALL_CURVES
100
AcDbLine
 62
4
  6
CONTINUOUS
 10
64.3954223549
 20
126.0449552048
 11
64.3954223549
 21
96.0449552048
  0
LINE
  5
340
100
AcDbEntity
  8
03___PRT_ALL_CURVES
100
AcDbLine
 62
4
  6
CONTINUOUS
 10
64.4254223549
 20
126.0449552048
 11
64.4254223549
 21
96.0449552048
  0
LINE
  5
341
100
AcDbEntity
  8
03___PRT_ALL_CURVES
100
AcDbLine
 62
4
  6
CONTINUOUS
 10
64.4554223549
 20
126.0449552048
 11
64.4554223549
 21
96.0449552048
  0
LINE
  5
342
100
AcDbEntity
  8
03___PRT_ALL_CURVES
100
AcDbLine
 62
4
  6
CONTINUOUS
 10
64.4854223549
 20
126.0449552048
 11
64.4854223549
 21
96.0449552048
  0
LINE
  5
343
100
AcDbEntity
  8
03___PRT_ALL_CURVES
100
AcDbLine
 62
4
  6
CONTINUOUS
 10
64.5154223549
 20
126.0449552048
 11
64.5154223549
 21
96.0449552048
  0
LINE
  5
344
100
AcDbEntity
  8
03___PRT_ALL_CURVES
100
AcDbLine
 62
4
  6
CONTINUOUS
 10
64.5454223549
 20
126.0449552048
 11
64.5454223549
 21
96.0449552048
  0
LINE
  5
345
100
AcDbEntity
  8
03___PRT_ALL_CURVES
100
AcDbLine
 62
4
  6
CONTINUOUS
 10
64.5754223549
 20
126.0449552048
 11
64.5754223549
 21
96.0449552048
  0
LINE
  5
346
100
AcDbEntity
  8
03___PRT_ALL_CURVES
100
AcDbLine
 62
4
  6
CONTINUOUS
 10
64.6054223549
 20
126.0449552048
 11
64.6054223549
 21
96.0449552048
  0
LINE
  5
347
100
AcDbEntity
  8
03___PRT_ALL_CURVES
100
AcDbLine
 62
4
  6
CONTINUOUS
 10
64.6354223549
 20
126.0449552048
 11
64.6354223549
 21
96.0449552048
  0
LINE
  5
348
100
AcDbEntity
  8
03___PRT_ALL_CURVES
100
AcDbLine
 62
4
  6
CONTINUOUS
 10
64.6654223549
 20
126.0449552048
 11
64.6654223549
 21
96.0449552048
  0
LINE
  5
349
100
AcDbEntity
  8
03___PRT_ALL_CURVES
100
AcDbLine
 62
4
  6
CONTINUOUS
 10
64.6954223549
 20
126.0449552048
 11
64.6954223549
 21
96.0449552048
  0
LINE
  5
34A
100
AcDbEntity
  8
03___PRT_ALL_CURVES
100
AcDbLine
 62
4
  6
CONTINUOUS
 10
64.7254223549
 20
126.0449552048
 11
64.7254223549
 21
96.0449552048
  0
LINE
  5
34B
100
AcDbEntity
  8
03___PRT_ALL_CURVES
100
AcDbLine
 62
4
  6
CONTINUOUS
 10
64.7554223549
 20
126.0449552048
 11
64.7554223549
 21
96.0449552048
  0
LINE
  5
34C
100
AcDbEntity
  8
03___PRT_ALL_CURVES
100
AcDbLine
 62
4
  6
CONTINUOUS
 10
64.7854223549
 20
126.0449552048
 11
64.7854223549
 21
96.0449552048
  0
LINE
  5
34D
100
AcDbEntity
  8
03___PRT_ALL_CURVES
100
AcDbLine
 62
4
  6
CONTINUOUS
 10
64.8154223549
 20
126.0449552048
 11
64.8154223549
 21
96.0449552048
  0
LINE
  5
34E
100
AcDbEntity
  8
03___PRT_ALL_CURVES
100
AcDbLine
 62
4
  6
CONTINUOUS
 10
64.8454223549
 20
126.0449552048
 11
64.8454223549
 21
96.0449552048
  0
LINE
  5
34F
100
AcDbEntity
  8
03___PRT_ALL_CURVES
100
AcDbLine
 62
4
  6
CONTINUOUS
 10
64.8754223549
 20
126.0449552048
 11
64.8754223549
 21
96.0449552048
  0
LINE
  5
350
100
AcDbEntity
  8
03___PRT_ALL_CURVES
100
AcDbLine
 62
4
  6
CONTINUOUS
 10
64.9054223549
 20
126.0449552048
 11
64.9054223549
 21
96.0449552048
  0
LINE
  5
351
100
AcDbEntity
  8
03___PRT_ALL_CURVES
100
AcDbLine
 62
4
  6
CONTINUOUS
 10
64.9354223549
 20
126.0449552048
 11
64.9354223549
 21
96.0449552048
  0
LINE
  5
352
100
AcDbEntity
  8
03___PRT_ALL_CURVES
100
AcDbLine
 62
4
  6
CONTINUOUS
 10
64.9654223549
 20
126.0449552048
 11
64.9654223549
 21
96.0449552048
  0
LINE
  5
353
100
AcDbEntity
  8
03___PRT_ALL_CURVES
100
AcDbLine
 62
4
  6
CONTINUOUS
 10
64.9954223549
 20
126.0449552048
 11
64.9954223549
 21
96.0449552048
  0
LINE
  5
354
100
AcDbEntity
  8
03___PRT_ALL_CURVES
100
AcDbLine
 62
4
  6
CONTINUOUS
 10
65.0254223549
 20
126.0449552048
 11
65.0254223549
 21
96.0449552048
  0
LINE
  5
355
100
AcDbEntity
  8
03___PRT_ALL_CURVES
100
AcDbLine
 62
4
  6
CONTINUOUS
 10
65.0554223549
 20
126.0449552048
 11
65.0554223549
 21
96.0449552048
  0
LINE
  5
356
100
AcDbEntity
  8
03___PRT_ALL_CURVES
100
AcDbLine
 62
4
  6
CONTINUOUS
 10
65.0854223549
 20
126.0449552048
 11
65.0854223549
 21
96.0449552048
  0
LINE
  5
357
100
AcDbEntity
  8
03___PRT_ALL_CURVES
100
AcDbLine
 62
4
  6
CONTINUOUS
 10
65.1154223549
 20
126.0449552048
 11
65.1154223549
 21
96.0449552048
  0
LINE
  5
358
100
AcDbEntity
  8
03___PRT_ALL_CURVES
100
AcDbLine
 62
4
  6
CONTINUOUS
 10
65.1454223549
 20
126.0449552048
 11
65.1454223549
 21
96.0449552048
  0
LINE
  5
359
100
AcDbEntity
  8
03___PRT_ALL_CURVES
100
AcDbLine
 62
4
  6
CONTINUOUS
 10
65.1754223549
 20
126.0449552048
 11
65.1754223549
 21
96.0449552048
  0
LINE
  5
35A
100
AcDbEntity
  8
03___PRT_ALL_CURVES
100
AcDbLine
 62
4
  6
CONTINUOUS
 10
65.2054223549
 20
126.0449552048
 11
65.2054223549
 21
96.0449552048
  0
LINE
  5
35B
100
AcDbEntity
  8
03___PRT_ALL_CURVES
100
AcDbLine
 62
4
  6
CONTINUOUS
 10
65.2354223549
 20
126.0449552048
 11
65.2354223549
 21
96.0449552048
  0
LINE
  5
35C
100
AcDbEntity
  8
03___PRT_ALL_CURVES
100
AcDbLine
 62
4
  6
CONTINUOUS
 10
65.2654223549
 20
126.0449552048
 11
65.2654223549
 21
96.0449552048
  0
LINE
  5
35D
100
AcDbEntity
  8
03___PRT_ALL_CURVES
100
AcDbLine
 62
4
  6
CONTINUOUS
 10
65.2954223549
 20
126.0449552048
 11
65.2954223549
 21
96.0449552048
  0
LINE
  5
35E
100
AcDbEntity
  8
03___PRT_ALL_CURVES
100
AcDbLine
 62
4
  6
CONTINUOUS
 10
65.3254223549
 20
126.0449552048
 11
65.3254223549
 21
96.0449552048
  0
LINE
  5
35F
100
AcDbEntity
  8
03___PRT_ALL_CURVES
100
AcDbLine
 62
4
  6
CONTINUOUS
 10
65.3554223549
 20
126.0449552048
 11
65.3554223549
 21
96.0449552048
  0
LINE
  5
360
100
AcDbEntity
  8
03___PRT_ALL_CURVES
100
AcDbLine
 62
4
  6
CONTINUOUS
 10
65.3854223549
 20
126.0449552048
 11
65.3854223549
 21
96.0449552048
  0
LINE
  5
361
100
AcDbEntity
  8
03___PRT_ALL_CURVES
100
AcDbLine
 62
4
  6
CONTINUOUS
 10
65.4154223549
 20
126.0449552048
 11
65.4154223549
 21
96.0449552048
  0
LINE
  5
362
100
AcDbEntity
  8
03___PRT_ALL_CURVES
100
AcDbLine
 62
4
  6
CONTINUOUS
 10
65.4454223549
 20
126.0449552048
 11
65.4454223549
 21
96.0449552048
  0
LINE
  5
363
100
AcDbEntity
  8
03___PRT_ALL_CURVES
100
AcDbLine
 62
4
  6
CONTINUOUS
 10
65.4754223549
 20
126.0449552048
 11
65.4754223549
 21
96.0449552048
  0
LINE
  5
364
100
AcDbEntity
  8
03___PRT_ALL_CURVES
100
AcDbLine
 62
4
  6
CONTINUOUS
 10
65.5054223549
 20
126.0449552048
 11
65.5054223549
 21
96.0449552048
  0
LINE
  5
365
100
AcDbEntity
  8
03___PRT_ALL_CURVES
100
AcDbLine
 62
4
  6
CONTINUOUS
 10
65.5354223549
 20
126.0449552048
 11
65.5354223549
 21
96.0449552048
  0
LINE
  5
366
100
AcDbEntity
  8
03___PRT_ALL_CURVES
100
AcDbLine
 62
4
  6
CONTINUOUS
 10
65.5654223549
 20
126.0449552048
 11
65.5654223549
 21
96.0449552048
  0
LINE
  5
367
100
AcDbEntity
  8
03___PRT_ALL_CURVES
100
AcDbLine
 62
4
  6
CONTINUOUS
 10
65.5954223549
 20
126.0449552048
 11
65.5954223549
 21
96.0449552048
  0
LINE
  5
368
100
AcDbEntity
  8
03___PRT_ALL_CURVES
100
AcDbLine
 62
4
  6
CONTINUOUS
 10
65.6254223549
 20
126.0449552048
 11
65.6254223549
 21
96.0449552048
  0
LINE
  5
369
100
AcDbEntity
  8
03___PRT_ALL_CURVES
100
AcDbLine
 62
4
  6
CONTINUOUS
 10
65.6554223549
 20
126.0449552048
 11
65.6554223549
 21
96.0449552048
  0
LINE
  5
36A
100
AcDbEntity
  8
03___PRT_ALL_CURVES
100
AcDbLine
 62
4
  6
CONTINUOUS
 10
65.6854223549
 20
126.0449552048
 11
65.6854223549
 21
96.0449552048
  0
LINE
  5
36B
100
AcDbEntity
  8
03___PRT_ALL_CURVES
100
AcDbLine
 62
4
  6
CONTINUOUS
 10
65.7154223549
 20
126.0449552048
 11
65.7154223549
 21
96.0449552048
  0
LINE
  5
36C
100
AcDbEntity
  8
03___PRT_ALL_CURVES
100
AcDbLine
 62
4
  6
CONTINUOUS
 10
65.7454223549
 20
126.0449552048
 11
65.7454223549
 21
96.0449552048
  0
LINE
  5
36D
100
AcDbEntity
  8
03___PRT_ALL_CURVES
100
AcDbLine
 62
4
  6
CONTINUOUS
 10
65.7754223549
 20
126.0449552048
 11
65.7754223549
 21
96.0449552048
  0
LINE
  5
36E
100
AcDbEntity
  8
03___PRT_ALL_CURVES
100
AcDbLine
 62
4
  6
CONTINUOUS
 10
65.8054223549
 20
126.0449552048
 11
65.8054223549
 21
96.0449552048
  0
LINE
  5
36F
100
AcDbEntity
  8
03___PRT_ALL_CURVES
100
AcDbLine
 62
4
  6
CONTINUOUS
 10
65.8354223549
 20
126.0449552048
 11
65.8354223549
 21
96.0449552048
  0
LINE
  5
370
100
AcDbEntity
  8
03___PRT_ALL_CURVES
100
AcDbLine
 62
4
  6
CONTINUOUS
 10
65.8654223549
 20
126.0449552048
 11
65.8654223549
 21
96.0449552048
  0
LINE
  5
371
100
AcDbEntity
  8
03___PRT_ALL_CURVES
100
AcDbLine
 62
4
  6
CONTINUOUS
 10
65.8954223549
 20
126.0449552048
 11
65.8954223549
 21
96.0449552048
  0
LINE
  5
372
100
AcDbEntity
  8
03___PRT_ALL_CURVES
100
AcDbLine
 62
4
  6
CONTINUOUS
 10
65.9254223549
 20
126.0449552048
 11
65.9254223549
 21
96.0449552048
  0
LINE
  5
373
100
AcDbEntity
  8
03___PRT_ALL_CURVES
100
AcDbLine
 62
4
  6
CONTINUOUS
 10
65.9554223549
 20
126.0449552048
 11
65.9554223549
 21
96.0449552048
  0
LINE
  5
374
100
AcDbEntity
  8
03___PRT_ALL_CURVES
100
AcDbLine
 62
4
  6
CONTINUOUS
 10
65.9854223549
 20
126.0449552048
 11
65.9854223549
 21
96.0449552048
  0
LINE
  5
375
100
AcDbEntity
  8
03___PRT_ALL_CURVES
100
AcDbLine
 62
4
  6
CONTINUOUS
 10
66.0154223549
 20
126.0449552048
 11
66.0154223549
 21
96.0449552048
  0
LINE
  5
376
100
AcDbEntity
  8
03___PRT_ALL_CURVES
100
AcDbLine
 62
4
  6
CONTINUOUS
 10
66.0454223549
 20
126.0449552048
 11
66.0454223549
 21
96.0449552048
  0
LINE
  5
377
100
AcDbEntity
  8
03___PRT_ALL_CURVES
100
AcDbLine
 62
4
  6
CONTINUOUS
 10
66.0754223549
 20
126.0449552048
 11
66.0754223549
 21
96.0449552048
  0
LINE
  5
378
100
AcDbEntity
  8
03___PRT_ALL_CURVES
100
AcDbLine
 62
4
  6
CONTINUOUS
 10
66.1054223549
 20
126.0449552048
 11
66.1054223549
 21
96.0449552048
  0
LINE
  5
379
100
AcDbEntity
  8
03___PRT_ALL_CURVES
100
AcDbLine
 62
4
  6
CONTINUOUS
 10
66.1354223549
 20
126.0449552048
 11
66.1354223549
 21
96.0449552048
  0
LINE
  5
37A
100
AcDbEntity
  8
03___PRT_ALL_CURVES
100
AcDbLine
 62
4
  6
CONTINUOUS
 10
66.1654223549
 20
126.0449552048
 11
66.1654223549
 21
96.0449552048
  0
LINE
  5
37B
100
AcDbEntity
  8
03___PRT_ALL_CURVES
100
AcDbLine
 62
4
  6
CONTINUOUS
 10
66.1954223549
 20
126.0449552048
 11
66.1954223549
 21
96.0449552048
  0
LINE
  5
37C
100
AcDbEntity
  8
03___PRT_ALL_CURVES
100
AcDbLine
 62
4
  6
CONTINUOUS
 10
66.2254223549
 20
126.0449552048
 11
66.2254223549
 21
96.0449552048
  0
LINE
  5
37D
100
AcDbEntity
  8
03___PRT_ALL_CURVES
100
AcDbLine
 62
4
  6
CONTINUOUS
 10
66.2554223549
 20
126.0449552048
 11
66.2554223549
 21
96.0449552048
  0
LINE
  5
37E
100
AcDbEntity
  8
03___PRT_ALL_CURVES
100
AcDbLine
 62
4
  6
CONTINUOUS
 10
66.2854223549
 20
126.0449552048
 11
66.2854223549
 21
96.0449552048
  0
LINE
  5
37F
100
AcDbEntity
  8
03___PRT_ALL_CURVES
100
AcDbLine
 62
4
  6
CONTINUOUS
 10
66.3154223549
 20
126.0449552048
 11
66.3154223549
 21
96.0449552048
  0
LINE
  5
380
100
AcDbEntity
  8
03___PRT_ALL_CURVES
100
AcDbLine
 62
4
  6
CONTINUOUS
 10
66.3454223549
 20
126.0449552048
 11
66.3454223549
 21
96.0449552048
  0
LINE
  5
381
100
AcDbEntity
  8
03___PRT_ALL_CURVES
100
AcDbLine
 62
4
  6
CONTINUOUS
 10
66.3754223549
 20
126.0449552048
 11
66.3754223549
 21
96.0449552048
  0
LINE
  5
382
100
AcDbEntity
  8
03___PRT_ALL_CURVES
100
AcDbLine
 62
4
  6
CONTINUOUS
 10
66.4054223549
 20
126.0449552048
 11
66.4054223549
 21
96.0449552048
  0
LINE
  5
383
100
AcDbEntity
  8
03___PRT_ALL_CURVES
100
AcDbLine
 62
4
  6
CONTINUOUS
 10
66.4354223549
 20
126.0449552048
 11
66.4354223549
 21
96.0449552048
  0
LINE
  5
384
100
AcDbEntity
  8
03___PRT_ALL_CURVES
100
AcDbLine
 62
4
  6
CONTINUOUS
 10
66.4654223549
 20
126.0449552048
 11
66.4654223549
 21
96.0449552048
  0
LINE
  5
385
100
AcDbEntity
  8
03___PRT_ALL_CURVES
100
AcDbLine
 62
4
  6
CONTINUOUS
 10
66.4954223549
 20
126.0449552048
 11
66.4954223549
 21
96.0449552048
  0
LINE
  5
386
100
AcDbEntity
  8
03___PRT_ALL_CURVES
100
AcDbLine
 62
4
  6
CONTINUOUS
 10
66.5254223549
 20
126.0449552048
 11
66.5254223549
 21
96.0449552048
  0
LINE
  5
387
100
AcDbEntity
  8
03___PRT_ALL_CURVES
100
AcDbLine
 62
4
  6
CONTINUOUS
 10
66.5554223549
 20
126.0449552048
 11
66.5554223549
 21
96.0449552048
  0
LINE
  5
388
100
AcDbEntity
  8
03___PRT_ALL_CURVES
100
AcDbLine
 62
4
  6
CONTINUOUS
 10
66.5854223549
 20
126.0449552048
 11
66.5854223549
 21
96.0449552048
  0
LINE
  5
389
100
AcDbEntity
  8
03___PRT_ALL_CURVES
100
AcDbLine
 62
4
  6
CONTINUOUS
 10
66.6154223549
 20
126.0449552048
 11
66.6154223549
 21
96.0449552048
  0
LINE
  5
38A
100
AcDbEntity
  8
03___PRT_ALL_CURVES
100
AcDbLine
 62
4
  6
CONTINUOUS
 10
66.6454223549
 20
126.0449552048
 11
66.6454223549
 21
96.0449552048
  0
LINE
  5
38B
100
AcDbEntity
  8
03___PRT_ALL_CURVES
100
AcDbLine
 62
4
  6
CONTINUOUS
 10
66.6754223549
 20
126.0449552048
 11
66.6754223549
 21
96.0449552048
  0
LINE
  5
38C
100
AcDbEntity
  8
03___PRT_ALL_CURVES
100
AcDbLine
 62
4
  6
CONTINUOUS
 10
66.7054223549
 20
126.0449552048
 11
66.7054223549
 21
96.0449552048
  0
LINE
  5
38D
100
AcDbEntity
  8
03___PRT_ALL_CURVES
100
AcDbLine
 62
4
  6
CONTINUOUS
 10
66.7354223549
 20
126.0449552048
 11
66.7354223549
 21
96.0449552048
  0
LINE
  5
38E
100
AcDbEntity
  8
03___PRT_ALL_CURVES
100
AcDbLine
 62
4
  6
CONTINUOUS
 10
66.7654223549
 20
126.0449552048
 11
66.7654223549
 21
96.0449552048
  0
LINE
  5
38F
100
AcDbEntity
  8
03___PRT_ALL_CURVES
100
AcDbLine
 62
4
  6
CONTINUOUS
 10
66.7954223549
 20
126.0449552048
 11
66.7954223549
 21
96.0449552048
  0
LINE
  5
390
100
AcDbEntity
  8
03___PRT_ALL_CURVES
100
AcDbLine
 62
4
  6
CONTINUOUS
 10
66.8254223549
 20
126.0449552048
 11
66.8254223549
 21
96.0449552048
  0
LINE
  5
391
100
AcDbEntity
  8
03___PRT_ALL_CURVES
100
AcDbLine
 62
4
  6
CONTINUOUS
 10
66.8554223549
 20
126.0449552048
 11
66.8554223549
 21
96.0449552048
  0
LINE
  5
392
100
AcDbEntity
  8
03___PRT_ALL_CURVES
100
AcDbLine
 62
4
  6
CONTINUOUS
 10
66.8854223549
 20
126.0449552048
 11
66.8854223549
 21
96.0449552048
  0
LINE
  5
393
100
AcDbEntity
  8
03___PRT_ALL_CURVES
100
AcDbLine
 62
4
  6
CONTINUOUS
 10
66.9154223549
 20
126.0449552048
 11
66.9154223549
 21
96.0449552048
  0
LINE
  5
394
100
AcDbEntity
  8
03___PRT_ALL_CURVES
100
AcDbLine
 62
4
  6
CONTINUOUS
 10
66.9454223549
 20
126.0449552048
 11
66.9454223549
 21
96.0449552048
  0
LINE
  5
395
100
AcDbEntity
  8
03___PRT_ALL_CURVES
100
AcDbLine
 62
4
  6
CONTINUOUS
 10
66.9754223549
 20
126.0449552048
 11
66.9754223549
 21
96.0449552048
  0
LINE
  5
396
100
AcDbEntity
  8
03___PRT_ALL_CURVES
100
AcDbLine
 62
4
  6
CONTINUOUS
 10
67.0054223549
 20
126.0449552048
 11
67.0054223549
 21
96.0449552048
  0
LINE
  5
397
100
AcDbEntity
  8
03___PRT_ALL_CURVES
100
AcDbLine
 62
4
  6
CONTINUOUS
 10
67.0354223549
 20
126.0449552048
 11
67.0354223549
 21
96.0449552048
  0
LINE
  5
398
100
AcDbEntity
  8
03___PRT_ALL_CURVES
100
AcDbLine
 62
4
  6
CONTINUOUS
 10
67.0654223549
 20
126.0449552048
 11
67.0654223549
 21
96.0449552048
  0
LINE
  5
399
100
AcDbEntity
  8
03___PRT_ALL_CURVES
100
AcDbLine
 62
4
  6
CONTINUOUS
 10
67.0954223549
 20
126.0449552048
 11
67.0954223549
 21
96.0449552048
  0
LINE
  5
39A
100
AcDbEntity
  8
03___PRT_ALL_CURVES
100
AcDbLine
 62
4
  6
CONTINUOUS
 10
67.1254223549
 20
126.0449552048
 11
67.1254223549
 21
96.0449552048
  0
LINE
  5
39B
100
AcDbEntity
  8
03___PRT_ALL_CURVES
100
AcDbLine
 62
4
  6
CONTINUOUS
 10
67.1554223549
 20
126.0449552048
 11
67.1554223549
 21
96.0449552048
  0
LINE
  5
39C
100
AcDbEntity
  8
03___PRT_ALL_CURVES
100
AcDbLine
 62
4
  6
CONTINUOUS
 10
67.1854223549
 20
126.0449552048
 11
67.1854223549
 21
96.0449552048
  0
LINE
  5
39D
100
AcDbEntity
  8
03___PRT_ALL_CURVES
100
AcDbLine
 62
4
  6
CONTINUOUS
 10
67.2154223549
 20
126.0449552048
 11
67.2154223549
 21
96.0449552048
  0
LINE
  5
39E
100
AcDbEntity
  8
03___PRT_ALL_CURVES
100
AcDbLine
 62
4
  6
CONTINUOUS
 10
67.2454223549
 20
126.0449552048
 11
67.2454223549
 21
96.0449552048
  0
LINE
  5
39F
100
AcDbEntity
  8
03___PRT_ALL_CURVES
100
AcDbLine
 62
4
  6
CONTINUOUS
 10
67.2754223549
 20
126.0449552048
 11
67.2754223549
 21
96.0449552048
  0
LINE
  5
3A0
100
AcDbEntity
  8
03___PRT_ALL_CURVES
100
AcDbLine
 62
4
  6
CONTINUOUS
 10
67.3054223549
 20
126.0449552048
 11
67.3054223549
 21
96.0449552048
  0
LINE
  5
3A1
100
AcDbEntity
  8
03___PRT_ALL_CURVES
100
AcDbLine
 62
4
  6
CONTINUOUS
 10
67.3354223549
 20
126.0449552048
 11
67.3354223549
 21
96.0449552048
  0
LINE
  5
3A2
100
AcDbEntity
  8
03___PRT_ALL_CURVES
100
AcDbLine
 62
4
  6
CONTINUOUS
 10
67.3654223549
 20
126.0449552048
 11
67.3654223549
 21
96.0449552048
  0
LINE
  5
3A3
100
AcDbEntity
  8
03___PRT_ALL_CURVES
100
AcDbLine
 62
4
  6
CONTINUOUS
 10
67.3954223549
 20
126.0449552048
 11
67.3954223549
 21
96.0449552048
  0
LINE
  5
3A4
100
AcDbEntity
  8
03___PRT_ALL_CURVES
100
AcDbLine
 62
4
  6
CONTINUOUS
 10
67.4254223549
 20
126.0449552048
 11
67.4254223549
 21
96.0449552048
  0
LINE
  5
3A5
100
AcDbEntity
  8
03___PRT_ALL_CURVES
100
AcDbLine
 62
4
  6
CONTINUOUS
 10
67.4554223549
 20
126.0449552048
 11
67.4554223549
 21
96.0449552048
  0
LINE
  5
3A6
100
AcDbEntity
  8
03___PRT_ALL_CURVES
100
AcDbLine
 62
4
  6
CONTINUOUS
 10
67.4854223549
 20
126.0449552048
 11
67.4854223549
 21
96.0449552048
  0
LINE
  5
3A7
100
AcDbEntity
  8
03___PRT_ALL_CURVES
100
AcDbLine
 62
4
  6
CONTINUOUS
 10
67.5154223549
 20
126.0449552048
 11
67.5154223549
 21
96.0449552048
  0
LINE
  5
3A8
100
AcDbEntity
  8
03___PRT_ALL_CURVES
100
AcDbLine
 62
4
  6
CONTINUOUS
 10
67.5454223549
 20
126.0449552048
 11
67.5454223549
 21
96.0449552048
  0
LINE
  5
3A9
100
AcDbEntity
  8
03___PRT_ALL_CURVES
100
AcDbLine
 62
4
  6
CONTINUOUS
 10
67.5754223549
 20
126.0449552048
 11
67.5754223549
 21
96.0449552048
  0
LINE
  5
3AA
100
AcDbEntity
  8
03___PRT_ALL_CURVES
100
AcDbLine
 62
4
  6
CONTINUOUS
 10
67.6054223549
 20
126.0449552048
 11
67.6054223549
 21
96.0449552048
  0
LINE
  5
3AB
100
AcDbEntity
  8
03___PRT_ALL_CURVES
100
AcDbLine
 62
4
  6
CONTINUOUS
 10
67.6354223549
 20
126.0449552048
 11
67.6354223549
 21
96.0449552048
  0
LINE
  5
3AC
100
AcDbEntity
  8
03___PRT_ALL_CURVES
100
AcDbLine
 62
4
  6
CONTINUOUS
 10
67.6654223549
 20
126.0449552048
 11
67.6654223549
 21
96.0449552048
  0
LINE
  5
3AD
100
AcDbEntity
  8
03___PRT_ALL_CURVES
100
AcDbLine
 62
4
  6
CONTINUOUS
 10
67.6954223549
 20
126.0449552048
 11
67.6954223549
 21
96.0449552048
  0
LINE
  5
3AE
100
AcDbEntity
  8
03___PRT_ALL_CURVES
100
AcDbLine
 62
4
  6
CONTINUOUS
 10
67.7254223549
 20
126.0449552048
 11
67.7254223549
 21
96.0449552048
  0
LINE
  5
3AF
100
AcDbEntity
  8
03___PRT_ALL_CURVES
100
AcDbLine
 62
4
  6
CONTINUOUS
 10
67.7554223549
 20
126.0449552048
 11
67.7554223549
 21
96.0449552048
  0
LINE
  5
3B0
100
AcDbEntity
  8
03___PRT_ALL_CURVES
100
AcDbLine
 62
4
  6
CONTINUOUS
 10
67.7854223549
 20
126.0449552048
 11
67.7854223549
 21
96.0449552048
  0
LINE
  5
3B1
100
AcDbEntity
  8
03___PRT_ALL_CURVES
100
AcDbLine
 62
4
  6
CONTINUOUS
 10
67.8154223549
 20
126.0449552048
 11
67.8154223549
 21
96.0449552048
  0
LINE
  5
3B2
100
AcDbEntity
  8
03___PRT_ALL_CURVES
100
AcDbLine
 62
4
  6
CONTINUOUS
 10
67.8454223549
 20
126.0449552048
 11
67.8454223549
 21
96.0449552048
  0
LINE
  5
3B3
100
AcDbEntity
  8
03___PRT_ALL_CURVES
100
AcDbLine
 62
4
  6
CONTINUOUS
 10
67.8754223549
 20
126.0449552048
 11
67.8754223549
 21
96.0449552048
  0
LINE
  5
3B4
100
AcDbEntity
  8
03___PRT_ALL_CURVES
100
AcDbLine
 62
4
  6
CONTINUOUS
 10
67.9054223549
 20
126.0449552048
 11
67.9054223549
 21
96.0449552048
  0
LINE
  5
3B5
100
AcDbEntity
  8
03___PRT_ALL_CURVES
100
AcDbLine
 62
4
  6
CONTINUOUS
 10
67.9354223549
 20
126.0449552048
 11
67.9354223549
 21
96.0449552048
  0
LINE
  5
3B6
100
AcDbEntity
  8
03___PRT_ALL_CURVES
100
AcDbLine
 62
4
  6
CONTINUOUS
 10
67.9654223549
 20
126.0449552048
 11
67.9654223549
 21
96.0449552048
  0
LINE
  5
3B7
100
AcDbEntity
  8
03___PRT_ALL_CURVES
100
AcDbLine
 62
4
  6
CONTINUOUS
 10
67.9954223549
 20
126.0449552048
 11
67.9954223549
 21
96.0449552048
  0
LINE
  5
3B8
100
AcDbEntity
  8
03___PRT_ALL_CURVES
100
AcDbLine
 62
4
  6
CONTINUOUS
 10
68.0254223549
 20
126.0449552048
 11
68.0254223549
 21
96.0449552048
  0
LINE
  5
3B9
100
AcDbEntity
  8
03___PRT_ALL_CURVES
100
AcDbLine
 62
4
  6
CONTINUOUS
 10
68.0554223549
 20
126.0449552048
 11
68.0554223549
 21
96.0449552048
  0
LINE
  5
3BA
100
AcDbEntity
  8
03___PRT_ALL_CURVES
100
AcDbLine
 62
4
  6
CONTINUOUS
 10
68.0854223549
 20
126.0449552048
 11
68.0854223549
 21
96.0449552048
  0
LINE
  5
3BB
100
AcDbEntity
  8
03___PRT_ALL_CURVES
100
AcDbLine
 62
4
  6
CONTINUOUS
 10
68.1154223549
 20
126.0449552048
 11
68.1154223549
 21
96.0449552048
  0
LINE
  5
3BC
100
AcDbEntity
  8
03___PRT_ALL_CURVES
100
AcDbLine
 62
4
  6
CONTINUOUS
 10
68.1454223549
 20
126.0449552048
 11
68.1454223549
 21
96.0449552048
  0
LINE
  5
3BD
100
AcDbEntity
  8
03___PRT_ALL_CURVES
100
AcDbLine
 62
4
  6
CONTINUOUS
 10
68.1754223549
 20
126.0449552048
 11
68.1754223549
 21
96.0449552048
  0
LINE
  5
3BE
100
AcDbEntity
  8
03___PRT_ALL_CURVES
100
AcDbLine
 62
4
  6
CONTINUOUS
 10
68.2054223549
 20
126.0449552048
 11
68.2054223549
 21
96.0449552048
  0
LINE
  5
3BF
100
AcDbEntity
  8
03___PRT_ALL_CURVES
100
AcDbLine
 62
4
  6
CONTINUOUS
 10
68.2354223549
 20
126.0449552048
 11
68.2354223549
 21
96.0449552048
  0
LINE
  5
3C0
100
AcDbEntity
  8
03___PRT_ALL_CURVES
100
AcDbLine
 62
4
  6
CONTINUOUS
 10
68.2654223549
 20
126.0449552048
 11
68.2654223549
 21
96.0449552048
  0
LINE
  5
3C1
100
AcDbEntity
  8
03___PRT_ALL_CURVES
100
AcDbLine
 62
4
  6
CONTINUOUS
 10
68.2954223549
 20
126.0449552048
 11
68.2954223549
 21
96.0449552048
  0
LINE
  5
3C2
100
AcDbEntity
  8
03___PRT_ALL_CURVES
100
AcDbLine
 62
4
  6
CONTINUOUS
 10
68.3254223549
 20
126.0449552048
 11
68.3254223549
 21
96.0449552048
  0
LINE
  5
3C3
100
AcDbEntity
  8
03___PRT_ALL_CURVES
100
AcDbLine
 62
4
  6
CONTINUOUS
 10
68.3554223549
 20
126.0449552048
 11
68.3554223549
 21
96.0449552048
  0
LINE
  5
3C4
100
AcDbEntity
  8
03___PRT_ALL_CURVES
100
AcDbLine
 62
4
  6
CONTINUOUS
 10
68.3854223549
 20
126.0449552048
 11
68.3854223549
 21
96.0449552048
  0
LINE
  5
3C5
100
AcDbEntity
  8
03___PRT_ALL_CURVES
100
AcDbLine
 62
4
  6
CONTINUOUS
 10
68.4154223549
 20
126.0449552048
 11
68.4154223549
 21
96.0449552048
  0
LINE
  5
3C6
100
AcDbEntity
  8
03___PRT_ALL_CURVES
100
AcDbLine
 62
4
  6
CONTINUOUS
 10
68.4454223549
 20
126.0449552048
 11
68.4454223549
 21
96.0449552048
  0
LINE
  5
3C7
100
AcDbEntity
  8
03___PRT_ALL_CURVES
100
AcDbLine
 62
4
  6
CONTINUOUS
 10
68.4754223549
 20
126.0449552048
 11
68.4754223549
 21
96.0449552048
  0
LINE
  5
3C8
100
AcDbEntity
  8
03___PRT_ALL_CURVES
100
AcDbLine
 62
4
  6
CONTINUOUS
 10
68.5054223549
 20
126.0449552048
 11
68.5054223549
 21
96.0449552048
  0
LINE
  5
3C9
100
AcDbEntity
  8
03___PRT_ALL_CURVES
100
AcDbLine
 62
4
  6
CONTINUOUS
 10
68.5354223549
 20
126.0449552048
 11
68.5354223549
 21
96.0449552048
  0
LINE
  5
3CA
100
AcDbEntity
  8
03___PRT_ALL_CURVES
100
AcDbLine
 62
4
  6
CONTINUOUS
 10
68.5654223549
 20
126.0449552048
 11
68.5654223549
 21
96.0449552048
  0
LINE
  5
3CB
100
AcDbEntity
  8
03___PRT_ALL_CURVES
100
AcDbLine
 62
4
  6
CONTINUOUS
 10
68.5954223549
 20
126.0449552048
 11
68.5954223549
 21
96.0449552048
  0
LINE
  5
3CC
100
AcDbEntity
  8
03___PRT_ALL_CURVES
100
AcDbLine
 62
4
  6
CONTINUOUS
 10
68.6254223549
 20
126.0449552048
 11
68.6254223549
 21
96.0449552048
  0
LINE
  5
3CD
100
AcDbEntity
  8
03___PRT_ALL_CURVES
100
AcDbLine
 62
4
  6
CONTINUOUS
 10
68.6554223549
 20
126.0449552048
 11
68.6554223549
 21
96.0449552048
  0
LINE
  5
3CE
100
AcDbEntity
  8
03___PRT_ALL_CURVES
100
AcDbLine
 62
4
  6
CONTINUOUS
 10
68.6854223549
 20
126.0449552048
 11
68.6854223549
 21
96.0449552048
  0
LINE
  5
3CF
100
AcDbEntity
  8
03___PRT_ALL_CURVES
100
AcDbLine
 62
4
  6
CONTINUOUS
 10
68.7154223549
 20
126.0449552048
 11
68.7154223549
 21
96.0449552048
  0
LINE
  5
3D0
100
AcDbEntity
  8
03___PRT_ALL_CURVES
100
AcDbLine
 62
4
  6
CONTINUOUS
 10
68.7454223549
 20
126.0449552048
 11
68.7454223549
 21
96.0449552048
  0
LINE
  5
3D1
100
AcDbEntity
  8
03___PRT_ALL_CURVES
100
AcDbLine
 62
4
  6
CONTINUOUS
 10
68.7754223549
 20
126.0449552048
 11
68.7754223549
 21
96.0449552048
  0
LINE
  5
3D2
100
AcDbEntity
  8
03___PRT_ALL_CURVES
100
AcDbLine
 62
4
  6
CONTINUOUS
 10
68.8054223549
 20
126.0449552048
 11
68.8054223549
 21
96.0449552048
  0
LINE
  5
3D3
100
AcDbEntity
  8
03___PRT_ALL_CURVES
100
AcDbLine
 62
4
  6
CONTINUOUS
 10
68.8354223549
 20
126.0449552048
 11
68.8354223549
 21
96.0449552048
  0
LINE
  5
3D4
100
AcDbEntity
  8
03___PRT_ALL_CURVES
100
AcDbLine
 62
4
  6
CONTINUOUS
 10
68.8654223549
 20
126.0449552048
 11
68.8654223549
 21
96.0449552048
  0
LINE
  5
3D5
100
AcDbEntity
  8
03___PRT_ALL_CURVES
100
AcDbLine
 62
4
  6
CONTINUOUS
 10
68.8954223549
 20
126.0449552048
 11
68.8954223549
 21
96.0449552048
  0
LINE
  5
3D6
100
AcDbEntity
  8
03___PRT_ALL_CURVES
100
AcDbLine
 62
4
  6
CONTINUOUS
 10
68.9254223549
 20
126.0449552048
 11
68.9254223549
 21
96.0449552048
  0
LINE
  5
3D7
100
AcDbEntity
  8
03___PRT_ALL_CURVES
100
AcDbLine
 62
4
  6
CONTINUOUS
 10
68.9554223549
 20
126.0449552048
 11
68.9554223549
 21
96.0449552048
  0
LINE
  5
3D8
100
AcDbEntity
  8
03___PRT_ALL_CURVES
100
AcDbLine
 62
4
  6
CONTINUOUS
 10
68.9854223549
 20
126.0449552048
 11
68.9854223549
 21
96.0449552048
  0
LINE
  5
3D9
100
AcDbEntity
  8
03___PRT_ALL_CURVES
100
AcDbLine
 62
4
  6
CONTINUOUS
 10
69.0154223549
 20
126.0449552048
 11
69.0154223549
 21
96.0449552048
  0
LINE
  5
3DA
100
AcDbEntity
  8
03___PRT_ALL_CURVES
100
AcDbLine
 62
4
  6
CONTINUOUS
 10
69.0454223549
 20
126.0449552048
 11
69.0454223549
 21
96.0449552048
  0
LINE
  5
3DB
100
AcDbEntity
  8
03___PRT_ALL_CURVES
100
AcDbLine
 62
4
  6
CONTINUOUS
 10
69.0754223549
 20
126.0449552048
 11
69.0754223549
 21
96.0449552048
  0
LINE
  5
3DC
100
AcDbEntity
  8
03___PRT_ALL_CURVES
100
AcDbLine
 62
4
  6
CONTINUOUS
 10
69.1054223549
 20
126.0449552048
 11
69.1054223549
 21
96.0449552048
  0
LINE
  5
3DD
100
AcDbEntity
  8
03___PRT_ALL_CURVES
100
AcDbLine
 62
4
  6
CONTINUOUS
 10
69.1354223549
 20
126.0449552048
 11
69.1354223549
 21
96.0449552048
  0
LINE
  5
3DE
100
AcDbEntity
  8
03___PRT_ALL_CURVES
100
AcDbLine
 62
4
  6
CONTINUOUS
 10
69.1654223549
 20
126.0449552048
 11
69.1654223549
 21
96.0449552048
  0
LINE
  5
3DF
100
AcDbEntity
  8
03___PRT_ALL_CURVES
100
AcDbLine
 62
4
  6
CONTINUOUS
 10
69.1954223549
 20
126.0449552048
 11
69.1954223549
 21
96.0449552048
  0
LINE
  5
3E0
100
AcDbEntity
  8
03___PRT_ALL_CURVES
100
AcDbLine
 62
4
  6
CONTINUOUS
 10
69.2254223549
 20
126.0449552048
 11
69.2254223549
 21
96.0449552048
  0
LINE
  5
3E1
100
AcDbEntity
  8
03___PRT_ALL_CURVES
100
AcDbLine
 62
4
  6
CONTINUOUS
 10
69.2554223549
 20
126.0449552048
 11
69.2554223549
 21
96.0449552048
  0
LINE
  5
3E2
100
AcDbEntity
  8
03___PRT_ALL_CURVES
100
AcDbLine
 62
4
  6
CONTINUOUS
 10
69.2854223549
 20
126.0449552048
 11
69.2854223549
 21
96.0449552048
  0
LINE
  5
3E3
100
AcDbEntity
  8
03___PRT_ALL_CURVES
100
AcDbLine
 62
4
  6
CONTINUOUS
 10
69.3154223549
 20
126.0449552048
 11
69.3154223549
 21
96.0449552048
  0
LINE
  5
3E4
100
AcDbEntity
  8
03___PRT_ALL_CURVES
100
AcDbLine
 62
4
  6
CONTINUOUS
 10
69.3454223549
 20
126.0449552048
 11
69.3454223549
 21
96.0449552048
  0
LINE
  5
3E5
100
AcDbEntity
  8
03___PRT_ALL_CURVES
100
AcDbLine
 62
4
  6
CONTINUOUS
 10
69.3754223549
 20
126.0449552048
 11
69.3754223549
 21
96.0449552048
  0
LINE
  5
3E6
100
AcDbEntity
  8
03___PRT_ALL_CURVES
100
AcDbLine
 62
4
  6
CONTINUOUS
 10
69.4054223549
 20
126.0449552048
 11
69.4054223549
 21
96.0449552048
  0
LINE
  5
3E7
100
AcDbEntity
  8
03___PRT_ALL_CURVES
100
AcDbLine
 62
4
  6
CONTINUOUS
 10
69.4354223549
 20
126.0449552048
 11
69.4354223549
 21
96.0449552048
  0
LINE
  5
3E8
100
AcDbEntity
  8
03___PRT_ALL_CURVES
100
AcDbLine
 62
4
  6
CONTINUOUS
 10
69.4654223549
 20
126.0449552048
 11
69.4654223549
 21
96.0449552048
  0
LINE
  5
3E9
100
AcDbEntity
  8
03___PRT_ALL_CURVES
100
AcDbLine
 62
4
  6
CONTINUOUS
 10
69.4954223549
 20
126.0449552048
 11
69.4954223549
 21
96.0449552048
  0
LINE
  5
3EA
100
AcDbEntity
  8
03___PRT_ALL_CURVES
100
AcDbLine
 62
4
  6
CONTINUOUS
 10
69.5254223549
 20
126.0449552048
 11
69.5254223549
 21
96.0449552048
  0
LINE
  5
3EB
100
AcDbEntity
  8
03___PRT_ALL_CURVES
100
AcDbLine
 62
4
  6
CONTINUOUS
 10
69.5554223549
 20
126.0449552048
 11
69.5554223549
 21
96.0449552048
  0
LINE
  5
3EC
100
AcDbEntity
  8
03___PRT_ALL_CURVES
100
AcDbLine
 62
4
  6
CONTINUOUS
 10
69.5854223549
 20
126.0449552048
 11
69.5854223549
 21
96.0449552048
  0
LINE
  5
3ED
100
AcDbEntity
  8
03___PRT_ALL_CURVES
100
AcDbLine
 62
4
  6
CONTINUOUS
 10
69.6154223549
 20
126.0449552048
 11
69.6154223549
 21
96.0449552048
  0
LINE
  5
3EE
100
AcDbEntity
  8
03___PRT_ALL_CURVES
100
AcDbLine
 62
4
  6
CONTINUOUS
 10
69.6454223549
 20
126.0449552048
 11
69.6454223549
 21
96.0449552048
  0
LINE
  5
3EF
100
AcDbEntity
  8
03___PRT_ALL_CURVES
100
AcDbLine
 62
4
  6
CONTINUOUS
 10
69.6754223549
 20
126.0449552048
 11
69.6754223549
 21
96.0449552048
  0
LINE
  5
3F0
100
AcDbEntity
  8
03___PRT_ALL_CURVES
100
AcDbLine
 62
4
  6
CONTINUOUS
 10
69.7054223549
 20
126.0449552048
 11
69.7054223549
 21
96.0449552048
  0
LINE
  5
3F1
100
AcDbEntity
  8
03___PRT_ALL_CURVES
100
AcDbLine
 62
4
  6
CONTINUOUS
 10
69.7354223549
 20
126.0449552048
 11
69.7354223549
 21
96.0449552048
  0
LINE
  5
3F2
100
AcDbEntity
  8
03___PRT_ALL_CURVES
100
AcDbLine
 62
4
  6
CONTINUOUS
 10
69.7654223549
 20
126.0449552048
 11
69.7654223549
 21
96.0449552048
  0
LINE
  5
3F3
100
AcDbEntity
  8
03___PRT_ALL_CURVES
100
AcDbLine
 62
4
  6
CONTINUOUS
 10
69.7954223549
 20
126.0449552048
 11
69.7954223549
 21
96.0449552048
  0
LINE
  5
3F4
100
AcDbEntity
  8
03___PRT_ALL_CURVES
100
AcDbLine
 62
4
  6
CONTINUOUS
 10
69.8254223549
 20
126.0449552048
 11
69.8254223549
 21
96.0449552048
  0
LINE
  5
3F5
100
AcDbEntity
  8
03___PRT_ALL_CURVES
100
AcDbLine
 62
4
  6
CONTINUOUS
 10
69.8554223549
 20
126.0449552048
 11
69.8554223549
 21
96.0449552048
  0
LINE
  5
3F6
100
AcDbEntity
  8
03___PRT_ALL_CURVES
100
AcDbLine
 62
4
  6
CONTINUOUS
 10
69.8854223549
 20
126.0449552048
 11
69.8854223549
 21
96.0449552048
  0
LINE
  5
3F7
100
AcDbEntity
  8
03___PRT_ALL_CURVES
100
AcDbLine
 62
4
  6
CONTINUOUS
 10
69.9154223549
 20
126.0449552048
 11
69.9154223549
 21
96.0449552048
  0
LINE
  5
3F8
100
AcDbEntity
  8
03___PRT_ALL_CURVES
100
AcDbLine
 62
4
  6
CONTINUOUS
 10
69.9454223549
 20
126.0449552048
 11
69.9454223549
 21
96.0449552048
  0
LINE
  5
3F9
100
AcDbEntity
  8
03___PRT_ALL_CURVES
100
AcDbLine
 62
4
  6
CONTINUOUS
 10
69.9754223549
 20
126.0449552048
 11
69.9754223549
 21
96.0449552048
  0
LINE
  5
3FA
100
AcDbEntity
  8
03___PRT_ALL_CURVES
100
AcDbLine
 62
4
  6
CONTINUOUS
 10
70.0054223549
 20
126.0449552048
 11
70.0054223549
 21
96.0449552048
  0
LINE
  5
3FB
100
AcDbEntity
  8
03___PRT_ALL_CURVES
100
AcDbLine
 62
4
  6
CONTINUOUS
 10
70.0354223549
 20
126.0449552048
 11
70.0354223549
 21
96.0449552048
  0
LINE
  5
3FC
100
AcDbEntity
  8
03___PRT_ALL_CURVES
100
AcDbLine
 62
4
  6
CONTINUOUS
 10
70.0654223549
 20
126.0449552048
 11
70.0654223549
 21
96.0449552048
  0
LINE
  5
3FD
100
AcDbEntity
  8
03___PRT_ALL_CURVES
100
AcDbLine
 62
4
  6
CONTINUOUS
 10
70.0954223549
 20
126.0449552048
 11
70.0954223549
 21
96.0449552048
  0
LINE
  5
3FE
100
AcDbEntity
  8
03___PRT_ALL_CURVES
100
AcDbLine
 62
4
  6
CONTINUOUS
 10
70.1254223549
 20
126.0449552048
 11
70.1254223549
 21
96.0449552048
  0
LINE
  5
3FF
100
AcDbEntity
  8
03___PRT_ALL_CURVES
100
AcDbLine
 62
4
  6
CONTINUOUS
 10
70.1554223549
 20
126.0449552048
 11
70.1554223549
 21
96.0449552048
  0
LINE
  5
400
100
AcDbEntity
  8
03___PRT_ALL_CURVES
100
AcDbLine
 62
4
  6
CONTINUOUS
 10
70.1854223549
 20
126.0449552048
 11
70.1854223549
 21
96.0449552048
  0
LINE
  5
401
100
AcDbEntity
  8
03___PRT_ALL_CURVES
100
AcDbLine
 62
4
  6
CONTINUOUS
 10
70.2154223549
 20
126.0449552048
 11
70.2154223549
 21
96.0449552048
  0
LINE
  5
402
100
AcDbEntity
  8
03___PRT_ALL_CURVES
100
AcDbLine
 62
4
  6
CONTINUOUS
 10
70.2454223549
 20
126.0449552048
 11
70.2454223549
 21
96.0449552048
  0
LINE
  5
403
100
AcDbEntity
  8
03___PRT_ALL_CURVES
100
AcDbLine
 62
4
  6
CONTINUOUS
 10
70.2754223549
 20
126.0449552048
 11
70.2754223549
 21
96.0449552048
  0
LINE
  5
404
100
AcDbEntity
  8
03___PRT_ALL_CURVES
100
AcDbLine
 62
4
  6
CONTINUOUS
 10
70.3054223549
 20
126.0449552048
 11
70.3054223549
 21
96.0449552048
  0
LINE
  5
405
100
AcDbEntity
  8
03___PRT_ALL_CURVES
100
AcDbLine
 62
4
  6
CONTINUOUS
 10
70.3354223549
 20
126.0449552048
 11
70.3354223549
 21
96.0449552048
  0
LINE
  5
406
100
AcDbEntity
  8
03___PRT_ALL_CURVES
100
AcDbLine
 62
4
  6
CONTINUOUS
 10
70.3654223549
 20
126.0449552048
 11
70.3654223549
 21
96.0449552048
  0
LINE
  5
407
100
AcDbEntity
  8
03___PRT_ALL_CURVES
100
AcDbLine
 62
4
  6
CONTINUOUS
 10
70.3954223549
 20
126.0449552048
 11
70.3954223549
 21
96.0449552048
  0
LINE
  5
408
100
AcDbEntity
  8
03___PRT_ALL_CURVES
100
AcDbLine
 62
4
  6
CONTINUOUS
 10
70.4254223549
 20
126.0449552048
 11
70.4254223549
 21
96.0449552048
  0
LINE
  5
409
100
AcDbEntity
  8
03___PRT_ALL_CURVES
100
AcDbLine
 62
4
  6
CONTINUOUS
 10
70.4554223549
 20
126.0449552048
 11
70.4554223549
 21
96.0449552048
  0
LINE
  5
40A
100
AcDbEntity
  8
03___PRT_ALL_CURVES
100
AcDbLine
 62
4
  6
CONTINUOUS
 10
70.4854223549
 20
126.0449552048
 11
70.4854223549
 21
96.0449552048
  0
LINE
  5
40B
100
AcDbEntity
  8
03___PRT_ALL_CURVES
100
AcDbLine
 62
4
  6
CONTINUOUS
 10
70.5154223549
 20
126.0449552048
 11
70.5154223549
 21
96.0449552048
  0
LINE
  5
40C
100
AcDbEntity
  8
03___PRT_ALL_CURVES
100
AcDbLine
 62
4
  6
CONTINUOUS
 10
70.5454223549
 20
126.0449552048
 11
70.5454223549
 21
96.0449552048
  0
LINE
  5
40D
100
AcDbEntity
  8
03___PRT_ALL_CURVES
100
AcDbLine
 62
4
  6
CONTINUOUS
 10
70.5754223549
 20
126.0449552048
 11
70.5754223549
 21
96.0449552048
  0
LINE
  5
40E
100
AcDbEntity
  8
03___PRT_ALL_CURVES
100
AcDbLine
 62
4
  6
CONTINUOUS
 10
70.6054223549
 20
126.0449552048
 11
70.6054223549
 21
96.0449552048
  0
LINE
  5
40F
100
AcDbEntity
  8
03___PRT_ALL_CURVES
100
AcDbLine
 62
4
  6
CONTINUOUS
 10
70.6354223549
 20
126.0449552048
 11
70.6354223549
 21
96.0449552048
  0
LINE
  5
410
100
AcDbEntity
  8
03___PRT_ALL_CURVES
100
AcDbLine
 62
4
  6
CONTINUOUS
 10
70.6654223549
 20
126.0449552048
 11
70.6654223549
 21
96.0449552048
  0
LINE
  5
411
100
AcDbEntity
  8
03___PRT_ALL_CURVES
100
AcDbLine
 62
4
  6
CONTINUOUS
 10
70.6954223549
 20
126.0449552048
 11
70.6954223549
 21
96.0449552048
  0
LINE
  5
412
100
AcDbEntity
  8
03___PRT_ALL_CURVES
100
AcDbLine
 62
4
  6
CONTINUOUS
 10
70.7254223549
 20
126.0449552048
 11
70.7254223549
 21
96.0449552048
  0
LINE
  5
413
100
AcDbEntity
  8
03___PRT_ALL_CURVES
100
AcDbLine
 62
4
  6
CONTINUOUS
 10
70.7554223549
 20
126.0449552048
 11
70.7554223549
 21
96.0449552048
  0
LINE
  5
414
100
AcDbEntity
  8
03___PRT_ALL_CURVES
100
AcDbLine
 62
4
  6
CONTINUOUS
 10
70.7854223549
 20
126.0449552048
 11
70.7854223549
 21
96.0449552048
  0
LINE
  5
415
100
AcDbEntity
  8
03___PRT_ALL_CURVES
100
AcDbLine
 62
4
  6
CONTINUOUS
 10
70.8154223549
 20
126.0449552048
 11
70.8154223549
 21
96.0449552048
  0
LINE
  5
416
100
AcDbEntity
  8
03___PRT_ALL_CURVES
100
AcDbLine
 62
4
  6
CONTINUOUS
 10
70.8454223549
 20
126.0449552048
 11
70.8454223549
 21
96.0449552048
  0
LINE
  5
417
100
AcDbEntity
  8
03___PRT_ALL_CURVES
100
AcDbLine
 62
4
  6
CONTINUOUS
 10
70.8754223549
 20
126.0449552048
 11
70.8754223549
 21
96.0449552048
  0
LINE
  5
418
100
AcDbEntity
  8
03___PRT_ALL_CURVES
100
AcDbLine
 62
4
  6
CONTINUOUS
 10
70.9054223549
 20
126.0449552048
 11
70.9054223549
 21
96.0449552048
  0
LINE
  5
419
100
AcDbEntity
  8
03___PRT_ALL_CURVES
100
AcDbLine
 62
4
  6
CONTINUOUS
 10
70.9354223549
 20
126.0449552048
 11
70.9354223549
 21
96.0449552048
  0
LINE
  5
41A
100
AcDbEntity
  8
03___PRT_ALL_CURVES
100
AcDbLine
 62
4
  6
CONTINUOUS
 10
70.9654223549
 20
126.0449552048
 11
70.9654223549
 21
96.0449552048
  0
LINE
  5
41B
100
AcDbEntity
  8
03___PRT_ALL_CURVES
100
AcDbLine
 62
4
  6
CONTINUOUS
 10
70.9954223549
 20
126.0449552048
 11
70.9954223549
 21
96.0449552048
  0
LINE
  5
41C
100
AcDbEntity
  8
03___PRT_ALL_CURVES
100
AcDbLine
 62
4
  6
CONTINUOUS
 10
71.0254223549
 20
126.0449552048
 11
71.0254223549
 21
96.0449552048
  0
LINE
  5
41D
100
AcDbEntity
  8
03___PRT_ALL_CURVES
100
AcDbLine
 62
4
  6
CONTINUOUS
 10
71.0554223549
 20
126.0449552048
 11
71.0554223549
 21
96.0449552048
  0
LINE
  5
41E
100
AcDbEntity
  8
03___PRT_ALL_CURVES
100
AcDbLine
 62
4
  6
CONTINUOUS
 10
71.0854223549
 20
126.0449552048
 11
71.0854223549
 21
96.0449552048
  0
LINE
  5
41F
100
AcDbEntity
  8
03___PRT_ALL_CURVES
100
AcDbLine
 62
4
  6
CONTINUOUS
 10
71.1154223549
 20
126.0449552048
 11
71.1154223549
 21
96.0449552048
  0
LINE
  5
420
100
AcDbEntity
  8
03___PRT_ALL_CURVES
100
AcDbLine
 62
4
  6
CONTINUOUS
 10
71.1454223549
 20
126.0449552048
 11
71.1454223549
 21
96.0449552048
  0
LINE
  5
421
100
AcDbEntity
  8
03___PRT_ALL_CURVES
100
AcDbLine
 62
4
  6
CONTINUOUS
 10
71.1754223549
 20
126.0449552048
 11
71.1754223549
 21
96.0449552048
  0
LINE
  5
422
100
AcDbEntity
  8
03___PRT_ALL_CURVES
100
AcDbLine
 62
4
  6
CONTINUOUS
 10
71.2054223549
 20
126.0449552048
 11
71.2054223549
 21
96.0449552048
  0
LINE
  5
423
100
AcDbEntity
  8
03___PRT_ALL_CURVES
100
AcDbLine
 62
4
  6
CONTINUOUS
 10
71.2354223549
 20
126.0449552048
 11
71.2354223549
 21
96.0449552048
  0
LINE
  5
424
100
AcDbEntity
  8
03___PRT_ALL_CURVES
100
AcDbLine
 62
4
  6
CONTINUOUS
 10
71.2654223549
 20
126.0449552048
 11
71.2654223549
 21
96.0449552048
  0
LINE
  5
425
100
AcDbEntity
  8
03___PRT_ALL_CURVES
100
AcDbLine
 62
4
  6
CONTINUOUS
 10
71.2954223549
 20
126.0449552048
 11
71.2954223549
 21
96.0449552048
  0
LINE
  5
426
100
AcDbEntity
  8
03___PRT_ALL_CURVES
100
AcDbLine
 62
4
  6
CONTINUOUS
 10
71.3254223549
 20
126.0449552048
 11
71.3254223549
 21
96.0449552048
  0
LINE
  5
427
100
AcDbEntity
  8
03___PRT_ALL_CURVES
100
AcDbLine
 62
4
  6
CONTINUOUS
 10
71.3554223549
 20
126.0449552048
 11
71.3554223549
 21
96.0449552048
  0
LINE
  5
428
100
AcDbEntity
  8
03___PRT_ALL_CURVES
100
AcDbLine
 62
4
  6
CONTINUOUS
 10
71.3854223549
 20
126.0449552048
 11
71.3854223549
 21
96.0449552048
  0
LINE
  5
429
100
AcDbEntity
  8
03___PRT_ALL_CURVES
100
AcDbLine
 62
4
  6
CONTINUOUS
 10
71.4154223549
 20
126.0449552048
 11
71.4154223549
 21
96.0449552048
  0
LINE
  5
42A
100
AcDbEntity
  8
03___PRT_ALL_CURVES
100
AcDbLine
 62
4
  6
CONTINUOUS
 10
71.4454223549
 20
126.0449552048
 11
71.4454223549
 21
96.0449552048
  0
LINE
  5
42B
100
AcDbEntity
  8
03___PRT_ALL_CURVES
100
AcDbLine
 62
4
  6
CONTINUOUS
 10
71.4754223549
 20
126.0449552048
 11
71.4754223549
 21
96.0449552048
  0
LINE
  5
42C
100
AcDbEntity
  8
03___PRT_ALL_CURVES
100
AcDbLine
 62
4
  6
CONTINUOUS
 10
71.5054223549
 20
126.0449552048
 11
71.5054223549
 21
96.0449552048
  0
LINE
  5
42D
100
AcDbEntity
  8
03___PRT_ALL_CURVES
100
AcDbLine
 62
4
  6
CONTINUOUS
 10
71.5354223549
 20
126.0449552048
 11
71.5354223549
 21
96.0449552048
  0
LINE
  5
42E
100
AcDbEntity
  8
03___PRT_ALL_CURVES
100
AcDbLine
 62
4
  6
CONTINUOUS
 10
71.5654223549
 20
126.0449552048
 11
71.5654223549
 21
96.0449552048
  0
LINE
  5
42F
100
AcDbEntity
  8
03___PRT_ALL_CURVES
100
AcDbLine
 62
4
  6
CONTINUOUS
 10
71.5954223549
 20
126.0449552048
 11
71.5954223549
 21
96.0449552048
  0
LINE
  5
430
100
AcDbEntity
  8
03___PRT_ALL_CURVES
100
AcDbLine
 62
4
  6
CONTINUOUS
 10
71.6254223549
 20
126.0449552048
 11
71.6254223549
 21
96.0449552048
  0
LINE
  5
431
100
AcDbEntity
  8
03___PRT_ALL_CURVES
100
AcDbLine
 62
4
  6
CONTINUOUS
 10
71.6554223549
 20
126.0449552048
 11
71.6554223549
 21
96.0449552048
  0
LINE
  5
432
100
AcDbEntity
  8
03___PRT_ALL_CURVES
100
AcDbLine
 62
4
  6
CONTINUOUS
 10
71.6854223549
 20
126.0449552048
 11
71.6854223549
 21
96.0449552048
  0
LINE
  5
433
100
AcDbEntity
  8
03___PRT_ALL_CURVES
100
AcDbLine
 62
4
  6
CONTINUOUS
 10
71.7154223549
 20
126.0449552048
 11
71.7154223549
 21
96.0449552048
  0
LINE
  5
434
100
AcDbEntity
  8
03___PRT_ALL_CURVES
100
AcDbLine
 62
4
  6
CONTINUOUS
 10
71.7454223549
 20
126.0449552048
 11
71.7454223549
 21
96.0449552048
  0
LINE
  5
435
100
AcDbEntity
  8
03___PRT_ALL_CURVES
100
AcDbLine
 62
4
  6
CONTINUOUS
 10
71.7754223549
 20
126.0449552048
 11
71.7754223549
 21
96.0449552048
  0
LINE
  5
436
100
AcDbEntity
  8
03___PRT_ALL_CURVES
100
AcDbLine
 62
4
  6
CONTINUOUS
 10
71.8054223549
 20
126.0449552048
 11
71.8054223549
 21
96.0449552048
  0
LINE
  5
437
100
AcDbEntity
  8
03___PRT_ALL_CURVES
100
AcDbLine
 62
4
  6
CONTINUOUS
 10
71.8354223549
 20
126.0449552048
 11
71.8354223549
 21
96.0449552048
  0
LINE
  5
438
100
AcDbEntity
  8
03___PRT_ALL_CURVES
100
AcDbLine
 62
4
  6
CONTINUOUS
 10
71.8654223549
 20
126.0449552048
 11
71.8654223549
 21
96.0449552048
  0
LINE
  5
439
100
AcDbEntity
  8
03___PRT_ALL_CURVES
100
AcDbLine
 62
4
  6
CONTINUOUS
 10
71.8954223549
 20
126.0449552048
 11
71.8954223549
 21
96.0449552048
  0
LINE
  5
43A
100
AcDbEntity
  8
03___PRT_ALL_CURVES
100
AcDbLine
 62
4
  6
CONTINUOUS
 10
71.9254223549
 20
126.0449552048
 11
71.9254223549
 21
96.0449552048
  0
LINE
  5
43B
100
AcDbEntity
  8
03___PRT_ALL_CURVES
100
AcDbLine
 62
4
  6
CONTINUOUS
 10
71.9554223549
 20
126.0449552048
 11
71.9554223549
 21
96.0449552048
  0
LINE
  5
43C
100
AcDbEntity
  8
03___PRT_ALL_CURVES
100
AcDbLine
 62
4
  6
CONTINUOUS
 10
71.9854223549
 20
126.0449552048
 11
71.9854223549
 21
96.0449552048
  0
LINE
  5
43D
100
AcDbEntity
  8
03___PRT_ALL_CURVES
100
AcDbLine
 62
4
  6
CONTINUOUS
 10
72.0154223549
 20
126.0449552048
 11
72.0154223549
 21
96.0449552048
  0
LINE
  5
43E
100
AcDbEntity
  8
03___PRT_ALL_CURVES
100
AcDbLine
 62
4
  6
CONTINUOUS
 10
72.0454223549
 20
126.0449552048
 11
72.0454223549
 21
96.0449552048
  0
LINE
  5
43F
100
AcDbEntity
  8
03___PRT_ALL_CURVES
100
AcDbLine
 62
4
  6
CONTINUOUS
 10
72.0754223549
 20
126.0449552048
 11
72.0754223549
 21
96.0449552048
  0
LINE
  5
440
100
AcDbEntity
  8
03___PRT_ALL_CURVES
100
AcDbLine
 62
4
  6
CONTINUOUS
 10
72.1054223549
 20
126.0449552048
 11
72.1054223549
 21
96.0449552048
  0
LINE
  5
441
100
AcDbEntity
  8
03___PRT_ALL_CURVES
100
AcDbLine
 62
4
  6
CONTINUOUS
 10
72.1354223549
 20
126.0449552048
 11
72.1354223549
 21
96.0449552048
  0
LINE
  5
442
100
AcDbEntity
  8
03___PRT_ALL_CURVES
100
AcDbLine
 62
4
  6
CONTINUOUS
 10
72.1654223549
 20
126.0449552048
 11
72.1654223549
 21
96.0449552048
  0
LINE
  5
443
100
AcDbEntity
  8
03___PRT_ALL_CURVES
100
AcDbLine
 62
4
  6
CONTINUOUS
 10
72.1954223549
 20
126.0449552048
 11
72.1954223549
 21
96.0449552048
  0
LINE
  5
444
100
AcDbEntity
  8
03___PRT_ALL_CURVES
100
AcDbLine
 62
4
  6
CONTINUOUS
 10
72.2254223549
 20
126.0449552048
 11
72.2254223549
 21
96.0449552048
  0
LINE
  5
445
100
AcDbEntity
  8
03___PRT_ALL_CURVES
100
AcDbLine
 62
4
  6
CONTINUOUS
 10
72.2554223549
 20
126.0449552048
 11
72.2554223549
 21
96.0449552048
  0
LINE
  5
446
100
AcDbEntity
  8
03___PRT_ALL_CURVES
100
AcDbLine
 62
4
  6
CONTINUOUS
 10
72.2854223549
 20
126.0449552048
 11
72.2854223549
 21
96.0449552048
  0
LINE
  5
447
100
AcDbEntity
  8
03___PRT_ALL_CURVES
100
AcDbLine
 62
4
  6
CONTINUOUS
 10
72.3154223549
 20
126.0449552048
 11
72.3154223549
 21
96.0449552048
  0
LINE
  5
448
100
AcDbEntity
  8
03___PRT_ALL_CURVES
100
AcDbLine
 62
4
  6
CONTINUOUS
 10
72.3454223549
 20
126.0449552048
 11
72.3454223549
 21
96.0449552048
  0
LINE
  5
449
100
AcDbEntity
  8
03___PRT_ALL_CURVES
100
AcDbLine
 62
4
  6
CONTINUOUS
 10
72.3754223549
 20
126.0449552048
 11
72.3754223549
 21
96.0449552048
  0
LINE
  5
44A
100
AcDbEntity
  8
03___PRT_ALL_CURVES
100
AcDbLine
 62
4
  6
CONTINUOUS
 10
72.4054223549
 20
126.0449552048
 11
72.4054223549
 21
96.0449552048
  0
LINE
  5
44B
100
AcDbEntity
  8
03___PRT_ALL_CURVES
100
AcDbLine
 62
4
  6
CONTINUOUS
 10
72.4354223549
 20
126.0449552048
 11
72.4354223549
 21
96.0449552048
  0
LINE
  5
44C
100
AcDbEntity
  8
03___PRT_ALL_CURVES
100
AcDbLine
 62
4
  6
CONTINUOUS
 10
72.4654223549
 20
126.0449552048
 11
72.4654223549
 21
96.0449552048
  0
LINE
  5
44D
100
AcDbEntity
  8
03___PRT_ALL_CURVES
100
AcDbLine
 62
4
  6
CONTINUOUS
 10
72.4954223549
 20
126.0449552048
 11
72.4954223549
 21
96.0449552048
  0
LINE
  5
44E
100
AcDbEntity
  8
03___PRT_ALL_CURVES
100
AcDbLine
 62
4
  6
CONTINUOUS
 10
72.5254223549
 20
126.0449552048
 11
72.5254223549
 21
96.0449552048
  0
LINE
  5
44F
100
AcDbEntity
  8
03___PRT_ALL_CURVES
100
AcDbLine
 62
4
  6
CONTINUOUS
 10
72.5554223549
 20
126.0449552048
 11
72.5554223549
 21
96.0449552048
  0
LINE
  5
450
100
AcDbEntity
  8
03___PRT_ALL_CURVES
100
AcDbLine
 62
4
  6
CONTINUOUS
 10
72.5854223549
 20
126.0449552048
 11
72.5854223549
 21
96.0449552048
  0
LINE
  5
451
100
AcDbEntity
  8
03___PRT_ALL_CURVES
100
AcDbLine
 62
4
  6
CONTINUOUS
 10
72.6154223549
 20
126.0449552048
 11
72.6154223549
 21
96.0449552048
  0
LINE
  5
452
100
AcDbEntity
  8
03___PRT_ALL_CURVES
100
AcDbLine
 62
4
  6
CONTINUOUS
 10
72.6454223549
 20
126.0449552048
 11
72.6454223549
 21
96.0449552048
  0
LINE
  5
453
100
AcDbEntity
  8
03___PRT_ALL_CURVES
100
AcDbLine
 62
4
  6
CONTINUOUS
 10
72.6754223549
 20
126.0449552048
 11
72.6754223549
 21
96.0449552048
  0
LINE
  5
454
100
AcDbEntity
  8
03___PRT_ALL_CURVES
100
AcDbLine
 62
4
  6
CONTINUOUS
 10
72.7054223549
 20
126.0449552048
 11
72.7054223549
 21
96.0449552048
  0
LINE
  5
455
100
AcDbEntity
  8
03___PRT_ALL_CURVES
100
AcDbLine
 62
4
  6
CONTINUOUS
 10
72.7354223549
 20
126.0449552048
 11
72.7354223549
 21
96.0449552048
  0
LINE
  5
456
100
AcDbEntity
  8
03___PRT_ALL_CURVES
100
AcDbLine
 62
4
  6
CONTINUOUS
 10
72.7654223549
 20
126.0449552048
 11
72.7654223549
 21
96.0449552048
  0
LINE
  5
457
100
AcDbEntity
  8
03___PRT_ALL_CURVES
100
AcDbLine
 62
4
  6
CONTINUOUS
 10
72.7954223549
 20
126.0449552048
 11
72.7954223549
 21
96.0449552048
  0
LINE
  5
458
100
AcDbEntity
  8
03___PRT_ALL_CURVES
100
AcDbLine
 62
4
  6
CONTINUOUS
 10
72.8254223549
 20
126.0449552048
 11
72.8254223549
 21
96.0449552048
  0
LINE
  5
459
100
AcDbEntity
  8
03___PRT_ALL_CURVES
100
AcDbLine
 62
4
  6
CONTINUOUS
 10
72.8554223549
 20
126.0449552048
 11
72.8554223549
 21
96.0449552048
  0
LINE
  5
45A
100
AcDbEntity
  8
03___PRT_ALL_CURVES
100
AcDbLine
 62
4
  6
CONTINUOUS
 10
72.8854223549
 20
126.0449552048
 11
72.8854223549
 21
96.0449552048
  0
LINE
  5
45B
100
AcDbEntity
  8
03___PRT_ALL_CURVES
100
AcDbLine
 62
4
  6
CONTINUOUS
 10
72.9154223549
 20
126.0449552048
 11
72.9154223549
 21
96.0449552048
  0
LINE
  5
45C
100
AcDbEntity
  8
03___PRT_ALL_CURVES
100
AcDbLine
 62
4
  6
CONTINUOUS
 10
72.9454223549
 20
126.0449552048
 11
72.9454223549
 21
96.0449552048
  0
LINE
  5
45D
100
AcDbEntity
  8
03___PRT_ALL_CURVES
100
AcDbLine
 62
4
  6
CONTINUOUS
 10
72.9754223549
 20
126.0449552048
 11
72.9754223549
 21
96.0449552048
  0
LINE
  5
45E
100
AcDbEntity
  8
03___PRT_ALL_CURVES
100
AcDbLine
 62
4
  6
CONTINUOUS
 10
73.0054223549
 20
126.0449552048
 11
73.0054223549
 21
96.0449552048
  0
LINE
  5
45F
100
AcDbEntity
  8
03___PRT_ALL_CURVES
100
AcDbLine
 62
4
  6
CONTINUOUS
 10
73.0354223549
 20
126.0449552048
 11
73.0354223549
 21
96.0449552048
  0
LINE
  5
460
100
AcDbEntity
  8
03___PRT_ALL_CURVES
100
AcDbLine
 62
4
  6
CONTINUOUS
 10
73.0654223549
 20
126.0449552048
 11
73.0654223549
 21
96.0449552048
  0
LINE
  5
461
100
AcDbEntity
  8
03___PRT_ALL_CURVES
100
AcDbLine
 62
4
  6
CONTINUOUS
 10
73.0954223549
 20
126.0449552048
 11
73.0954223549
 21
96.0449552048
  0
LINE
  5
462
100
AcDbEntity
  8
03___PRT_ALL_CURVES
100
AcDbLine
 62
4
  6
CONTINUOUS
 10
73.1254223549
 20
126.0449552048
 11
73.1254223549
 21
96.0449552048
  0
LINE
  5
463
100
AcDbEntity
  8
03___PRT_ALL_CURVES
100
AcDbLine
 62
4
  6
CONTINUOUS
 10
73.1554223549
 20
126.0449552048
 11
73.1554223549
 21
96.0449552048
  0
LINE
  5
464
100
AcDbEntity
  8
03___PRT_ALL_CURVES
100
AcDbLine
 62
4
  6
CONTINUOUS
 10
73.1854223549
 20
126.0449552048
 11
73.1854223549
 21
96.0449552048
  0
LINE
  5
465
100
AcDbEntity
  8
03___PRT_ALL_CURVES
100
AcDbLine
 62
4
  6
CONTINUOUS
 10
73.2154223549
 20
126.0449552048
 11
73.2154223549
 21
96.0449552048
  0
LINE
  5
466
100
AcDbEntity
  8
03___PRT_ALL_CURVES
100
AcDbLine
 62
4
  6
CONTINUOUS
 10
73.2454223549
 20
126.0449552048
 11
73.2454223549
 21
96.0449552048
  0
LINE
  5
467
100
AcDbEntity
  8
03___PRT_ALL_CURVES
100
AcDbLine
 62
4
  6
CONTINUOUS
 10
73.2754223549
 20
126.0449552048
 11
73.2754223549
 21
96.0449552048
  0
LINE
  5
468
100
AcDbEntity
  8
03___PRT_ALL_CURVES
100
AcDbLine
 62
4
  6
CONTINUOUS
 10
73.3054223549
 20
126.0449552048
 11
73.3054223549
 21
96.0449552048
  0
LINE
  5
469
100
AcDbEntity
  8
03___PRT_ALL_CURVES
100
AcDbLine
 62
4
  6
CONTINUOUS
 10
73.3354223549
 20
126.0449552048
 11
73.3354223549
 21
96.0449552048
  0
LINE
  5
46A
100
AcDbEntity
  8
03___PRT_ALL_CURVES
100
AcDbLine
 62
4
  6
CONTINUOUS
 10
73.3654223549
 20
126.0449552048
 11
73.3654223549
 21
96.0449552048
  0
LINE
  5
46B
100
AcDbEntity
  8
03___PRT_ALL_CURVES
100
AcDbLine
 62
4
  6
CONTINUOUS
 10
73.3954223549
 20
126.0449552048
 11
73.3954223549
 21
96.0449552048
  0
LINE
  5
46C
100
AcDbEntity
  8
03___PRT_ALL_CURVES
100
AcDbLine
 62
4
  6
CONTINUOUS
 10
73.4254223549
 20
126.0449552048
 11
73.4254223549
 21
96.0449552048
  0
LINE
  5
46D
100
AcDbEntity
  8
03___PRT_ALL_CURVES
100
AcDbLine
 62
4
  6
CONTINUOUS
 10
73.4554223549
 20
126.0449552048
 11
73.4554223549
 21
96.0449552048
  0
LINE
  5
46E
100
AcDbEntity
  8
03___PRT_ALL_CURVES
100
AcDbLine
 62
4
  6
CONTINUOUS
 10
73.4854223549
 20
126.0449552048
 11
73.4854223549
 21
96.0449552048
  0
LINE
  5
46F
100
AcDbEntity
  8
03___PRT_ALL_CURVES
100
AcDbLine
 62
4
  6
CONTINUOUS
 10
73.5154223549
 20
126.0449552048
 11
73.5154223549
 21
96.0449552048
  0
LINE
  5
470
100
AcDbEntity
  8
03___PRT_ALL_CURVES
100
AcDbLine
 62
4
  6
CONTINUOUS
 10
73.5454223549
 20
126.0449552048
 11
73.5454223549
 21
96.0449552048
  0
LINE
  5
471
100
AcDbEntity
  8
03___PRT_ALL_CURVES
100
AcDbLine
 62
4
  6
CONTINUOUS
 10
73.5754223549
 20
126.0449552048
 11
73.5754223549
 21
96.0449552048
  0
LINE
  5
472
100
AcDbEntity
  8
03___PRT_ALL_CURVES
100
AcDbLine
 62
4
  6
CONTINUOUS
 10
73.6054223549
 20
126.0449552048
 11
73.6054223549
 21
96.0449552048
  0
LINE
  5
473
100
AcDbEntity
  8
03___PRT_ALL_CURVES
100
AcDbLine
 62
4
  6
CONTINUOUS
 10
73.6354223549
 20
126.0449552048
 11
73.6354223549
 21
96.0449552048
  0
LINE
  5
474
100
AcDbEntity
  8
03___PRT_ALL_CURVES
100
AcDbLine
 62
4
  6
CONTINUOUS
 10
73.6654223549
 20
126.0449552048
 11
73.6654223549
 21
96.0449552048
  0
LINE
  5
475
100
AcDbEntity
  8
03___PRT_ALL_CURVES
100
AcDbLine
 62
4
  6
CONTINUOUS
 10
73.6954223549
 20
126.0449552048
 11
73.6954223549
 21
96.0449552048
  0
LINE
  5
476
100
AcDbEntity
  8
03___PRT_ALL_CURVES
100
AcDbLine
 62
4
  6
CONTINUOUS
 10
73.7254223549
 20
126.0449552048
 11
73.7254223549
 21
96.0449552048
  0
LINE
  5
477
100
AcDbEntity
  8
03___PRT_ALL_CURVES
100
AcDbLine
 62
4
  6
CONTINUOUS
 10
73.7554223549
 20
126.0449552048
 11
73.7554223549
 21
96.0449552048
  0
LINE
  5
478
100
AcDbEntity
  8
03___PRT_ALL_CURVES
100
AcDbLine
 62
4
  6
CONTINUOUS
 10
73.7854223549
 20
126.0449552048
 11
73.7854223549
 21
96.0449552048
  0
LINE
  5
479
100
AcDbEntity
  8
03___PRT_ALL_CURVES
100
AcDbLine
 62
4
  6
CONTINUOUS
 10
73.8154223549
 20
126.0449552048
 11
73.8154223549
 21
96.0449552048
  0
LINE
  5
47A
100
AcDbEntity
  8
03___PRT_ALL_CURVES
100
AcDbLine
 62
4
  6
CONTINUOUS
 10
73.8454223549
 20
126.0449552048
 11
73.8454223549
 21
96.0449552048
  0
LINE
  5
47B
100
AcDbEntity
  8
03___PRT_ALL_CURVES
100
AcDbLine
 62
4
  6
CONTINUOUS
 10
73.8754223549
 20
126.0449552048
 11
73.8754223549
 21
96.0449552048
  0
LINE
  5
47C
100
AcDbEntity
  8
03___PRT_ALL_CURVES
100
AcDbLine
 62
4
  6
CONTINUOUS
 10
73.9054223549
 20
126.0449552048
 11
73.9054223549
 21
96.0449552048
  0
LINE
  5
47D
100
AcDbEntity
  8
03___PRT_ALL_CURVES
100
AcDbLine
 62
4
  6
CONTINUOUS
 10
73.9354223549
 20
126.0449552048
 11
73.9354223549
 21
96.0449552048
  0
LINE
  5
47E
100
AcDbEntity
  8
03___PRT_ALL_CURVES
100
AcDbLine
 62
4
  6
CONTINUOUS
 10
73.9654223549
 20
126.0449552048
 11
73.9654223549
 21
96.0449552048
  0
LINE
  5
47F
100
AcDbEntity
  8
03___PRT_ALL_CURVES
100
AcDbLine
 62
4
  6
CONTINUOUS
 10
73.9954223549
 20
126.0449552048
 11
73.9954223549
 21
96.0449552048
  0
LINE
  5
480
100
AcDbEntity
  8
03___PRT_ALL_CURVES
100
AcDbLine
 62
4
  6
CONTINUOUS
 10
74.0254223549
 20
126.0449552048
 11
74.0254223549
 21
96.0449552048
  0
LINE
  5
481
100
AcDbEntity
  8
03___PRT_ALL_CURVES
100
AcDbLine
 62
4
  6
CONTINUOUS
 10
74.0554223549
 20
126.0449552048
 11
74.0554223549
 21
96.0449552048
  0
LINE
  5
482
100
AcDbEntity
  8
03___PRT_ALL_CURVES
100
AcDbLine
 62
4
  6
CONTINUOUS
 10
74.0854223549
 20
126.0449552048
 11
74.0854223549
 21
96.0449552048
  0
LINE
  5
483
100
AcDbEntity
  8
03___PRT_ALL_CURVES
100
AcDbLine
 62
4
  6
CONTINUOUS
 10
74.1154223549
 20
126.0449552048
 11
74.1154223549
 21
96.0449552048
  0
LINE
  5
484
100
AcDbEntity
  8
03___PRT_ALL_CURVES
100
AcDbLine
 62
4
  6
CONTINUOUS
 10
74.1454223549
 20
126.0449552048
 11
74.1454223549
 21
96.0449552048
  0
LINE
  5
485
100
AcDbEntity
  8
03___PRT_ALL_CURVES
100
AcDbLine
 62
4
  6
CONTINUOUS
 10
74.1754223549
 20
126.0449552048
 11
74.1754223549
 21
96.0449552048
  0
LINE
  5
486
100
AcDbEntity
  8
03___PRT_ALL_CURVES
100
AcDbLine
 62
4
  6
CONTINUOUS
 10
74.2054223549
 20
126.0449552048
 11
74.2054223549
 21
96.0449552048
  0
LINE
  5
487
100
AcDbEntity
  8
03___PRT_ALL_CURVES
100
AcDbLine
 62
4
  6
CONTINUOUS
 10
74.2354223549
 20
126.0449552048
 11
74.2354223549
 21
96.0449552048
  0
LINE
  5
488
100
AcDbEntity
  8
03___PRT_ALL_CURVES
100
AcDbLine
 62
4
  6
CONTINUOUS
 10
74.2654223549
 20
126.0449552048
 11
74.2654223549
 21
96.0449552048
  0
LINE
  5
489
100
AcDbEntity
  8
03___PRT_ALL_CURVES
100
AcDbLine
 62
4
  6
CONTINUOUS
 10
74.2954223549
 20
126.0449552048
 11
74.2954223549
 21
96.0449552048
  0
LINE
  5
48A
100
AcDbEntity
  8
03___PRT_ALL_CURVES
100
AcDbLine
 62
4
  6
CONTINUOUS
 10
74.3254223549
 20
126.0449552048
 11
74.3254223549
 21
96.0449552048
  0
LINE
  5
48B
100
AcDbEntity
  8
03___PRT_ALL_CURVES
100
AcDbLine
 62
4
  6
CONTINUOUS
 10
74.3554223549
 20
126.0449552048
 11
74.3554223549
 21
96.0449552048
  0
LINE
  5
48C
100
AcDbEntity
  8
03___PRT_ALL_CURVES
100
AcDbLine
 62
4
  6
CONTINUOUS
 10
74.3854223549
 20
126.0449552048
 11
74.3854223549
 21
96.0449552048
  0
LINE
  5
48D
100
AcDbEntity
  8
03___PRT_ALL_CURVES
100
AcDbLine
 62
4
  6
CONTINUOUS
 10
74.4154223549
 20
126.0449552048
 11
74.4154223549
 21
96.0449552048
  0
LINE
  5
48E
100
AcDbEntity
  8
03___PRT_ALL_CURVES
100
AcDbLine
 62
4
  6
CONTINUOUS
 10
74.4454223549
 20
126.0449552048
 11
74.4454223549
 21
96.0449552048
  0
LINE
  5
48F
100
AcDbEntity
  8
03___PRT_ALL_CURVES
100
AcDbLine
 62
4
  6
CONTINUOUS
 10
74.4754223549
 20
126.0449552048
 11
74.4754223549
 21
96.0449552048
  0
LINE
  5
490
100
AcDbEntity
  8
03___PRT_ALL_CURVES
100
AcDbLine
 62
4
  6
CONTINUOUS
 10
74.5054223549
 20
126.0449552048
 11
74.5054223549
 21
96.0449552048
  0
LINE
  5
491
100
AcDbEntity
  8
03___PRT_ALL_CURVES
100
AcDbLine
 62
4
  6
CONTINUOUS
 10
74.5354223549
 20
126.0449552048
 11
74.5354223549
 21
96.0449552048
  0
LINE
  5
492
100
AcDbEntity
  8
03___PRT_ALL_CURVES
100
AcDbLine
 62
4
  6
CONTINUOUS
 10
74.5654223549
 20
126.0449552048
 11
74.5654223549
 21
96.0449552048
  0
LINE
  5
493
100
AcDbEntity
  8
03___PRT_ALL_CURVES
100
AcDbLine
 62
4
  6
CONTINUOUS
 10
74.5954223549
 20
126.0449552048
 11
74.5954223549
 21
96.0449552048
  0
LINE
  5
494
100
AcDbEntity
  8
03___PRT_ALL_CURVES
100
AcDbLine
 62
4
  6
CONTINUOUS
 10
74.6254223549
 20
126.0449552048
 11
74.6254223549
 21
96.0449552048
  0
LINE
  5
495
100
AcDbEntity
  8
03___PRT_ALL_CURVES
100
AcDbLine
 62
4
  6
CONTINUOUS
 10
74.6554223549
 20
126.0449552048
 11
74.6554223549
 21
96.0449552048
  0
LINE
  5
496
100
AcDbEntity
  8
03___PRT_ALL_CURVES
100
AcDbLine
 62
4
  6
CONTINUOUS
 10
74.6854223549
 20
126.0449552048
 11
74.6854223549
 21
96.0449552048
  0
LINE
  5
497
100
AcDbEntity
  8
03___PRT_ALL_CURVES
100
AcDbLine
 62
4
  6
CONTINUOUS
 10
74.7154223549
 20
126.0449552048
 11
74.7154223549
 21
96.0449552048
  0
LINE
  5
498
100
AcDbEntity
  8
03___PRT_ALL_CURVES
100
AcDbLine
 62
4
  6
CONTINUOUS
 10
74.7454223549
 20
126.0449552048
 11
74.7454223549
 21
96.0449552048
  0
LINE
  5
499
100
AcDbEntity
  8
03___PRT_ALL_CURVES
100
AcDbLine
 62
4
  6
CONTINUOUS
 10
74.7754223549
 20
126.0449552048
 11
74.7754223549
 21
96.0449552048
  0
LINE
  5
49A
100
AcDbEntity
  8
03___PRT_ALL_CURVES
100
AcDbLine
 62
4
  6
CONTINUOUS
 10
74.8054223549
 20
126.0449552048
 11
74.8054223549
 21
96.0449552048
  0
LINE
  5
49B
100
AcDbEntity
  8
03___PRT_ALL_CURVES
100
AcDbLine
 62
4
  6
CONTINUOUS
 10
74.8354223549
 20
126.0449552048
 11
74.8354223549
 21
96.0449552048
  0
LINE
  5
49C
100
AcDbEntity
  8
03___PRT_ALL_CURVES
100
AcDbLine
 62
4
  6
CONTINUOUS
 10
74.8654223549
 20
126.0449552048
 11
74.8654223549
 21
96.0449552048
  0
LINE
  5
49D
100
AcDbEntity
  8
03___PRT_ALL_CURVES
100
AcDbLine
 62
4
  6
CONTINUOUS
 10
74.8954223549
 20
126.0449552048
 11
74.8954223549
 21
96.0449552048
  0
LINE
  5
49E
100
AcDbEntity
  8
03___PRT_ALL_CURVES
100
AcDbLine
 62
4
  6
CONTINUOUS
 10
74.9254223549
 20
126.0449552048
 11
74.9254223549
 21
96.0449552048
  0
LINE
  5
49F
100
AcDbEntity
  8
03___PRT_ALL_CURVES
100
AcDbLine
 62
4
  6
CONTINUOUS
 10
74.9554223549
 20
126.0449552048
 11
74.9554223549
 21
96.0449552048
  0
LINE
  5
4A0
100
AcDbEntity
  8
03___PRT_ALL_CURVES
100
AcDbLine
 62
4
  6
CONTINUOUS
 10
74.9854223549
 20
126.0449552048
 11
74.9854223549
 21
96.0449552048
  0
LINE
  5
4A1
100
AcDbEntity
  8
03___PRT_ALL_CURVES
100
AcDbLine
 62
4
  6
CONTINUOUS
 10
75.0154223549
 20
126.0449552048
 11
75.0154223549
 21
96.0449552048
  0
LINE
  5
4A2
100
AcDbEntity
  8
03___PRT_ALL_CURVES
100
AcDbLine
 62
4
  6
CONTINUOUS
 10
75.0454223549
 20
126.0449552048
 11
75.0454223549
 21
96.0449552048
  0
LINE
  5
4A3
100
AcDbEntity
  8
03___PRT_ALL_CURVES
100
AcDbLine
 62
4
  6
CONTINUOUS
 10
75.0754223549
 20
126.0449552048
 11
75.0754223549
 21
96.0449552048
  0
LINE
  5
4A4
100
AcDbEntity
  8
03___PRT_ALL_CURVES
100
AcDbLine
 62
4
  6
CONTINUOUS
 10
75.1054223549
 20
126.0449552048
 11
75.1054223549
 21
96.0449552048
  0
LINE
  5
4A5
100
AcDbEntity
  8
03___PRT_ALL_CURVES
100
AcDbLine
 62
4
  6
CONTINUOUS
 10
75.1354223549
 20
126.0449552048
 11
75.1354223549
 21
96.0449552048
  0
LINE
  5
4A6
100
AcDbEntity
  8
03___PRT_ALL_CURVES
100
AcDbLine
 62
4
  6
CONTINUOUS
 10
75.1654223549
 20
126.0449552048
 11
75.1654223549
 21
96.0449552048
  0
LINE
  5
4A7
100
AcDbEntity
  8
03___PRT_ALL_CURVES
100
AcDbLine
 62
4
  6
CONTINUOUS
 10
75.1954223549
 20
126.0449552048
 11
75.1954223549
 21
96.0449552048
  0
LINE
  5
4A8
100
AcDbEntity
  8
03___PRT_ALL_CURVES
100
AcDbLine
 62
4
  6
CONTINUOUS
 10
75.2254223549
 20
126.0449552048
 11
75.2254223549
 21
96.0449552048
  0
LINE
  5
4A9
100
AcDbEntity
  8
03___PRT_ALL_CURVES
100
AcDbLine
 62
4
  6
CONTINUOUS
 10
75.2554223549
 20
126.0449552048
 11
75.2554223549
 21
96.0449552048
  0
LINE
  5
4AA
100
AcDbEntity
  8
03___PRT_ALL_CURVES
100
AcDbLine
 62
4
  6
CONTINUOUS
 10
75.2854223549
 20
126.0449552048
 11
75.2854223549
 21
96.0449552048
  0
LINE
  5
4AB
100
AcDbEntity
  8
03___PRT_ALL_CURVES
100
AcDbLine
 62
4
  6
CONTINUOUS
 10
75.3154223549
 20
126.0449552048
 11
75.3154223549
 21
96.0449552048
  0
LINE
  5
4AC
100
AcDbEntity
  8
03___PRT_ALL_CURVES
100
AcDbLine
 62
4
  6
CONTINUOUS
 10
75.3454223549
 20
126.0449552048
 11
75.3454223549
 21
96.0449552048
  0
LINE
  5
4AD
100
AcDbEntity
  8
03___PRT_ALL_CURVES
100
AcDbLine
 62
4
  6
CONTINUOUS
 10
75.3754223549
 20
126.0449552048
 11
75.3754223549
 21
96.0449552048
  0
LINE
  5
4AE
100
AcDbEntity
  8
03___PRT_ALL_CURVES
100
AcDbLine
 62
4
  6
CONTINUOUS
 10
75.4054223549
 20
126.0449552048
 11
75.4054223549
 21
96.0449552048
  0
LINE
  5
4AF
100
AcDbEntity
  8
03___PRT_ALL_CURVES
100
AcDbLine
 62
4
  6
CONTINUOUS
 10
75.4354223549
 20
126.0449552048
 11
75.4354223549
 21
96.0449552048
  0
LINE
  5
4B0
100
AcDbEntity
  8
03___PRT_ALL_CURVES
100
AcDbLine
 62
4
  6
CONTINUOUS
 10
75.4654223549
 20
126.0449552048
 11
75.4654223549
 21
96.0449552048
  0
LINE
  5
4B1
100
AcDbEntity
  8
03___PRT_ALL_CURVES
100
AcDbLine
 62
4
  6
CONTINUOUS
 10
75.4954223549
 20
126.0449552048
 11
75.4954223549
 21
96.0449552048
  0
LINE
  5
4B2
100
AcDbEntity
  8
03___PRT_ALL_CURVES
100
AcDbLine
 62
4
  6
CONTINUOUS
 10
75.5254223549
 20
126.0449552048
 11
75.5254223549
 21
96.0449552048
  0
LINE
  5
4B3
100
AcDbEntity
  8
03___PRT_ALL_CURVES
100
AcDbLine
 62
4
  6
CONTINUOUS
 10
75.5554223549
 20
126.0449552048
 11
75.5554223549
 21
96.0449552048
  0
LINE
  5
4B4
100
AcDbEntity
  8
03___PRT_ALL_CURVES
100
AcDbLine
 62
4
  6
CONTINUOUS
 10
75.5854223549
 20
126.0449552048
 11
75.5854223549
 21
96.0449552048
  0
LINE
  5
4B5
100
AcDbEntity
  8
03___PRT_ALL_CURVES
100
AcDbLine
 62
4
  6
CONTINUOUS
 10
75.6154223549
 20
126.0449552048
 11
75.6154223549
 21
96.0449552048
  0
LINE
  5
4B6
100
AcDbEntity
  8
03___PRT_ALL_CURVES
100
AcDbLine
 62
4
  6
CONTINUOUS
 10
75.6454223549
 20
126.0449552048
 11
75.6454223549
 21
96.0449552048
  0
LINE
  5
4B7
100
AcDbEntity
  8
03___PRT_ALL_CURVES
100
AcDbLine
 62
4
  6
CONTINUOUS
 10
75.6754223549
 20
126.0449552048
 11
75.6754223549
 21
96.0449552048
  0
LINE
  5
4B8
100
AcDbEntity
  8
03___PRT_ALL_CURVES
100
AcDbLine
 62
4
  6
CONTINUOUS
 10
75.7054223549
 20
126.0449552048
 11
75.7054223549
 21
96.0449552048
  0
LINE
  5
4B9
100
AcDbEntity
  8
03___PRT_ALL_CURVES
100
AcDbLine
 62
4
  6
CONTINUOUS
 10
75.7354223549
 20
126.0449552048
 11
75.7354223549
 21
96.0449552048
  0
LINE
  5
4BA
100
AcDbEntity
  8
03___PRT_ALL_CURVES
100
AcDbLine
 62
4
  6
CONTINUOUS
 10
75.7654223549
 20
126.0449552048
 11
75.7654223549
 21
96.0449552048
  0
LINE
  5
4BB
100
AcDbEntity
  8
03___PRT_ALL_CURVES
100
AcDbLine
 62
4
  6
CONTINUOUS
 10
75.7954223549
 20
126.0449552048
 11
75.7954223549
 21
96.0449552048
  0
LINE
  5
4BC
100
AcDbEntity
  8
03___PRT_ALL_CURVES
100
AcDbLine
 62
4
  6
CONTINUOUS
 10
75.8254223549
 20
126.0449552048
 11
75.8254223549
 21
96.0449552048
  0
LINE
  5
4BD
100
AcDbEntity
  8
03___PRT_ALL_CURVES
100
AcDbLine
 62
4
  6
CONTINUOUS
 10
75.8554223549
 20
126.0449552048
 11
75.8554223549
 21
96.0449552048
  0
LINE
  5
4BE
100
AcDbEntity
  8
03___PRT_ALL_CURVES
100
AcDbLine
 62
4
  6
CONTINUOUS
 10
75.8854223549
 20
126.0449552048
 11
75.8854223549
 21
96.0449552048
  0
LINE
  5
4BF
100
AcDbEntity
  8
03___PRT_ALL_CURVES
100
AcDbLine
 62
4
  6
CONTINUOUS
 10
75.9154223549
 20
126.0449552048
 11
75.9154223549
 21
96.0449552048
  0
LINE
  5
4C0
100
AcDbEntity
  8
03___PRT_ALL_CURVES
100
AcDbLine
 62
4
  6
CONTINUOUS
 10
75.9454223549
 20
126.0449552048
 11
75.9454223549
 21
96.0449552048
  0
LINE
  5
4C1
100
AcDbEntity
  8
03___PRT_ALL_CURVES
100
AcDbLine
 62
4
  6
CONTINUOUS
 10
75.9754223549
 20
126.0449552048
 11
75.9754223549
 21
96.0449552048
  0
LINE
  5
4C2
100
AcDbEntity
  8
03___PRT_ALL_CURVES
100
AcDbLine
 62
4
  6
CONTINUOUS
 10
76.0054223549
 20
126.0449552048
 11
76.0054223549
 21
96.0449552048
  0
LINE
  5
4C3
100
AcDbEntity
  8
03___PRT_ALL_CURVES
100
AcDbLine
 62
4
  6
CONTINUOUS
 10
76.0354223549
 20
126.0449552048
 11
76.0354223549
 21
96.0449552048
  0
LINE
  5
4C4
100
AcDbEntity
  8
03___PRT_ALL_CURVES
100
AcDbLine
 62
4
  6
CONTINUOUS
 10
76.0654223549
 20
126.0449552048
 11
76.0654223549
 21
96.0449552048
  0
LINE
  5
4C5
100
AcDbEntity
  8
03___PRT_ALL_CURVES
100
AcDbLine
 62
4
  6
CONTINUOUS
 10
76.0954223549
 20
126.0449552048
 11
76.0954223549
 21
96.0449552048
  0
LINE
  5
4C6
100
AcDbEntity
  8
03___PRT_ALL_CURVES
100
AcDbLine
 62
4
  6
CONTINUOUS
 10
76.1254223549
 20
126.0449552048
 11
76.1254223549
 21
96.0449552048
  0
LINE
  5
4C7
100
AcDbEntity
  8
03___PRT_ALL_CURVES
100
AcDbLine
 62
4
  6
CONTINUOUS
 10
76.1554223549
 20
126.0449552048
 11
76.1554223549
 21
96.0449552048
  0
LINE
  5
4C8
100
AcDbEntity
  8
03___PRT_ALL_CURVES
100
AcDbLine
 62
4
  6
CONTINUOUS
 10
76.1854223549
 20
126.0449552048
 11
76.1854223549
 21
96.0449552048
  0
LINE
  5
4C9
100
AcDbEntity
  8
03___PRT_ALL_CURVES
100
AcDbLine
 62
4
  6
CONTINUOUS
 10
76.2154223549
 20
126.0449552048
 11
76.2154223549
 21
96.0449552048
  0
LINE
  5
4CA
100
AcDbEntity
  8
03___PRT_ALL_CURVES
100
AcDbLine
 62
4
  6
CONTINUOUS
 10
76.2454223549
 20
126.0449552048
 11
76.2454223549
 21
96.0449552048
  0
LINE
  5
4CB
100
AcDbEntity
  8
03___PRT_ALL_CURVES
100
AcDbLine
 62
4
  6
CONTINUOUS
 10
76.2754223549
 20
126.0449552048
 11
76.2754223549
 21
96.0449552048
  0
LINE
  5
4CC
100
AcDbEntity
  8
03___PRT_ALL_CURVES
100
AcDbLine
 62
4
  6
CONTINUOUS
 10
76.3054223549
 20
126.0449552048
 11
76.3054223549
 21
96.0449552048
  0
LINE
  5
4CD
100
AcDbEntity
  8
03___PRT_ALL_CURVES
100
AcDbLine
 62
4
  6
CONTINUOUS
 10
76.3354223549
 20
126.0449552048
 11
76.3354223549
 21
96.0449552048
  0
LINE
  5
4CE
100
AcDbEntity
  8
03___PRT_ALL_CURVES
100
AcDbLine
 62
4
  6
CONTINUOUS
 10
76.3654223549
 20
126.0449552048
 11
76.3654223549
 21
96.0449552048
  0
LINE
  5
4CF
100
AcDbEntity
  8
03___PRT_ALL_CURVES
100
AcDbLine
 62
4
  6
CONTINUOUS
 10
76.3954223549
 20
126.0449552048
 11
76.3954223549
 21
96.0449552048
  0
LINE
  5
4D0
100
AcDbEntity
  8
03___PRT_ALL_CURVES
100
AcDbLine
 62
4
  6
CONTINUOUS
 10
76.4254223549
 20
126.0449552048
 11
76.4254223549
 21
96.0449552048
  0
LINE
  5
4D1
100
AcDbEntity
  8
03___PRT_ALL_CURVES
100
AcDbLine
 62
4
  6
CONTINUOUS
 10
76.4554223549
 20
126.0449552048
 11
76.4554223549
 21
96.0449552048
  0
LINE
  5
4D2
100
AcDbEntity
  8
03___PRT_ALL_CURVES
100
AcDbLine
 62
4
  6
CONTINUOUS
 10
76.4854223549
 20
126.0449552048
 11
76.4854223549
 21
96.0449552048
  0
LINE
  5
4D3
100
AcDbEntity
  8
03___PRT_ALL_CURVES
100
AcDbLine
 62
4
  6
CONTINUOUS
 10
76.5154223549
 20
126.0449552048
 11
76.5154223549
 21
96.0449552048
  0
LINE
  5
4D4
100
AcDbEntity
  8
03___PRT_ALL_CURVES
100
AcDbLine
 62
4
  6
CONTINUOUS
 10
76.5454223549
 20
126.0449552048
 11
76.5454223549
 21
96.0449552048
  0
LINE
  5
4D5
100
AcDbEntity
  8
03___PRT_ALL_CURVES
100
AcDbLine
 62
4
  6
CONTINUOUS
 10
76.5754223549
 20
126.0449552048
 11
76.5754223549
 21
96.0449552048
  0
LINE
  5
4D6
100
AcDbEntity
  8
03___PRT_ALL_CURVES
100
AcDbLine
 62
4
  6
CONTINUOUS
 10
76.6054223549
 20
126.0449552048
 11
76.6054223549
 21
96.0449552048
  0
LINE
  5
4D7
100
AcDbEntity
  8
03___PRT_ALL_CURVES
100
AcDbLine
 62
4
  6
CONTINUOUS
 10
76.6354223549
 20
126.0449552048
 11
76.6354223549
 21
96.0449552048
  0
LINE
  5
4D8
100
AcDbEntity
  8
03___PRT_ALL_CURVES
100
AcDbLine
 62
4
  6
CONTINUOUS
 10
76.6654223549
 20
126.0449552048
 11
76.6654223549
 21
96.0449552048
  0
LINE
  5
4D9
100
AcDbEntity
  8
03___PRT_ALL_CURVES
100
AcDbLine
 62
4
  6
CONTINUOUS
 10
76.6954223549
 20
126.0449552048
 11
76.6954223549
 21
96.0449552048
  0
LINE
  5
4DA
100
AcDbEntity
  8
03___PRT_ALL_CURVES
100
AcDbLine
 62
4
  6
CONTINUOUS
 10
76.7254223549
 20
126.0449552048
 11
76.7254223549
 21
96.0449552048
  0
LINE
  5
4DB
100
AcDbEntity
  8
03___PRT_ALL_CURVES
100
AcDbLine
 62
4
  6
CONTINUOUS
 10
76.7554223549
 20
126.0449552048
 11
76.7554223549
 21
96.0449552048
  0
LINE
  5
4DC
100
AcDbEntity
  8
03___PRT_ALL_CURVES
100
AcDbLine
 62
4
  6
CONTINUOUS
 10
76.7854223549
 20
126.0449552048
 11
76.7854223549
 21
96.0449552048
  0
LINE
  5
4DD
100
AcDbEntity
  8
03___PRT_ALL_CURVES
100
AcDbLine
 62
4
  6
CONTINUOUS
 10
76.8154223549
 20
126.0449552048
 11
76.8154223549
 21
96.0449552048
  0
LINE
  5
4DE
100
AcDbEntity
  8
03___PRT_ALL_CURVES
100
AcDbLine
 62
4
  6
CONTINUOUS
 10
76.8454223549
 20
126.0449552048
 11
76.8454223549
 21
96.0449552048
  0
LINE
  5
4DF
100
AcDbEntity
  8
03___PRT_ALL_CURVES
100
AcDbLine
 62
4
  6
CONTINUOUS
 10
76.8754223549
 20
126.0449552048
 11
76.8754223549
 21
96.0449552048
  0
LINE
  5
4E0
100
AcDbEntity
  8
03___PRT_ALL_CURVES
100
AcDbLine
 62
4
  6
CONTINUOUS
 10
76.9054223549
 20
126.0449552048
 11
76.9054223549
 21
96.0449552048
  0
LINE
  5
4E1
100
AcDbEntity
  8
03___PRT_ALL_CURVES
100
AcDbLine
 62
4
  6
CONTINUOUS
 10
76.9354223549
 20
126.0449552048
 11
76.9354223549
 21
96.0449552048
  0
LINE
  5
4E2
100
AcDbEntity
  8
03___PRT_ALL_CURVES
100
AcDbLine
 62
4
  6
CONTINUOUS
 10
76.9654223549
 20
126.0449552048
 11
76.9654223549
 21
96.0449552048
  0
LINE
  5
4E3
100
AcDbEntity
  8
03___PRT_ALL_CURVES
100
AcDbLine
 62
4
  6
CONTINUOUS
 10
76.9954223549
 20
126.0449552048
 11
76.9954223549
 21
96.0449552048
  0
LINE
  5
4E4
100
AcDbEntity
  8
03___PRT_ALL_CURVES
100
AcDbLine
 62
4
  6
CONTINUOUS
 10
77.0254223549
 20
126.0449552048
 11
77.0254223549
 21
96.0449552048
  0
LINE
  5
4E5
100
AcDbEntity
  8
03___PRT_ALL_CURVES
100
AcDbLine
 62
4
  6
CONTINUOUS
 10
77.0554223549
 20
126.0449552048
 11
77.0554223549
 21
96.0449552048
  0
LINE
  5
4E6
100
AcDbEntity
  8
03___PRT_ALL_CURVES
100
AcDbLine
 62
4
  6
CONTINUOUS
 10
77.0854223549
 20
126.0449552048
 11
77.0854223549
 21
96.0449552048
  0
LINE
  5
4E7
100
AcDbEntity
  8
03___PRT_ALL_CURVES
100
AcDbLine
 62
4
  6
CONTINUOUS
 10
77.1154223549
 20
126.0449552048
 11
77.1154223549
 21
96.0449552048
  0
LINE
  5
4E8
100
AcDbEntity
  8
03___PRT_ALL_CURVES
100
AcDbLine
 62
4
  6
CONTINUOUS
 10
77.1454223549
 20
126.0449552048
 11
77.1454223549
 21
96.0449552048
  0
LINE
  5
4E9
100
AcDbEntity
  8
03___PRT_ALL_CURVES
100
AcDbLine
 62
4
  6
CONTINUOUS
 10
77.1754223549
 20
126.0449552048
 11
77.1754223549
 21
96.0449552048
  0
LINE
  5
4EA
100
AcDbEntity
  8
03___PRT_ALL_CURVES
100
AcDbLine
 62
4
  6
CONTINUOUS
 10
77.2054223549
 20
126.0449552048
 11
77.2054223549
 21
96.0449552048
  0
LINE
  5
4EB
100
AcDbEntity
  8
03___PRT_ALL_CURVES
100
AcDbLine
 62
4
  6
CONTINUOUS
 10
77.2354223549
 20
126.0449552048
 11
77.2354223549
 21
96.0449552048
  0
LINE
  5
4EC
100
AcDbEntity
  8
03___PRT_ALL_CURVES
100
AcDbLine
 62
4
  6
CONTINUOUS
 10
77.2654223549
 20
126.0449552048
 11
77.2654223549
 21
96.0449552048
  0
LINE
  5
4ED
100
AcDbEntity
  8
03___PRT_ALL_CURVES
100
AcDbLine
 62
4
  6
CONTINUOUS
 10
77.2954223549
 20
126.0449552048
 11
77.2954223549
 21
96.0449552048
  0
LINE
  5
4EE
100
AcDbEntity
  8
03___PRT_ALL_CURVES
100
AcDbLine
 62
4
  6
CONTINUOUS
 10
77.3254223549
 20
126.0449552048
 11
77.3254223549
 21
96.0449552048
  0
LINE
  5
4EF
100
AcDbEntity
  8
03___PRT_ALL_CURVES
100
AcDbLine
 62
4
  6
CONTINUOUS
 10
77.3554223549
 20
126.0449552048
 11
77.3554223549
 21
96.0449552048
  0
LINE
  5
4F0
100
AcDbEntity
  8
03___PRT_ALL_CURVES
100
AcDbLine
 62
4
  6
CONTINUOUS
 10
77.3854223549
 20
126.0449552048
 11
77.3854223549
 21
96.0449552048
  0
LINE
  5
4F1
100
AcDbEntity
  8
03___PRT_ALL_CURVES
100
AcDbLine
 62
4
  6
CONTINUOUS
 10
77.4154223549
 20
126.0449552048
 11
77.4154223549
 21
96.0449552048
  0
LINE
  5
4F2
100
AcDbEntity
  8
03___PRT_ALL_CURVES
100
AcDbLine
 62
4
  6
CONTINUOUS
 10
77.4454223549
 20
126.0449552048
 11
77.4454223549
 21
96.0449552048
  0
LINE
  5
4F3
100
AcDbEntity
  8
03___PRT_ALL_CURVES
100
AcDbLine
 62
4
  6
CONTINUOUS
 10
77.4754223549
 20
126.0449552048
 11
77.4754223549
 21
96.0449552048
  0
LINE
  5
4F4
100
AcDbEntity
  8
03___PRT_ALL_CURVES
100
AcDbLine
 62
4
  6
CONTINUOUS
 10
77.5054223549
 20
126.0449552048
 11
77.5054223549
 21
96.0449552048
  0
LINE
  5
4F5
100
AcDbEntity
  8
03___PRT_ALL_CURVES
100
AcDbLine
 62
4
  6
CONTINUOUS
 10
77.5354223549
 20
126.0449552048
 11
77.5354223549
 21
96.0449552048
  0
LINE
  5
4F6
100
AcDbEntity
  8
03___PRT_ALL_CURVES
100
AcDbLine
 62
4
  6
CONTINUOUS
 10
77.5654223549
 20
126.0449552048
 11
77.5654223549
 21
96.0449552048
  0
LINE
  5
4F7
100
AcDbEntity
  8
03___PRT_ALL_CURVES
100
AcDbLine
 62
4
  6
CONTINUOUS
 10
77.5954223549
 20
126.0449552048
 11
77.5954223549
 21
96.0449552048
  0
LINE
  5
4F8
100
AcDbEntity
  8
03___PRT_ALL_CURVES
100
AcDbLine
 62
4
  6
CONTINUOUS
 10
77.6254223549
 20
126.0449552048
 11
77.6254223549
 21
96.0449552048
  0
LINE
  5
4F9
100
AcDbEntity
  8
03___PRT_ALL_CURVES
100
AcDbLine
 62
4
  6
CONTINUOUS
 10
77.6554223549
 20
126.0449552048
 11
77.6554223549
 21
96.0449552048
  0
LINE
  5
4FA
100
AcDbEntity
  8
03___PRT_ALL_CURVES
100
AcDbLine
 62
4
  6
CONTINUOUS
 10
77.6854223549
 20
126.0449552048
 11
77.6854223549
 21
96.0449552048
  0
LINE
  5
4FB
100
AcDbEntity
  8
03___PRT_ALL_CURVES
100
AcDbLine
 62
4
  6
CONTINUOUS
 10
77.7154223549
 20
126.0449552048
 11
77.7154223549
 21
96.0449552048
  0
LINE
  5
4FC
100
AcDbEntity
  8
03___PRT_ALL_CURVES
100
AcDbLine
 62
4
  6
CONTINUOUS
 10
77.7454223549
 20
126.0449552048
 11
77.7454223549
 21
96.0449552048
  0
LINE
  5
4FD
100
AcDbEntity
  8
03___PRT_ALL_CURVES
100
AcDbLine
 62
4
  6
CONTINUOUS
 10
77.7754223549
 20
126.0449552048
 11
77.7754223549
 21
96.0449552048
  0
LINE
  5
4FE
100
AcDbEntity
  8
03___PRT_ALL_CURVES
100
AcDbLine
 62
4
  6
CONTINUOUS
 10
77.8054223549
 20
126.0449552048
 11
77.8054223549
 21
96.0449552048
  0
LINE
  5
4FF
100
AcDbEntity
  8
03___PRT_ALL_CURVES
100
AcDbLine
 62
4
  6
CONTINUOUS
 10
77.8354223549
 20
126.0449552048
 11
77.8354223549
 21
96.0449552048
  0
LINE
  5
500
100
AcDbEntity
  8
03___PRT_ALL_CURVES
100
AcDbLine
 62
4
  6
CONTINUOUS
 10
77.8654223549
 20
126.0449552048
 11
77.8654223549
 21
96.0449552048
  0
LINE
  5
501
100
AcDbEntity
  8
03___PRT_ALL_CURVES
100
AcDbLine
 62
4
  6
CONTINUOUS
 10
77.8954223549
 20
126.0449552048
 11
77.8954223549
 21
96.0449552048
  0
LINE
  5
502
100
AcDbEntity
  8
03___PRT_ALL_CURVES
100
AcDbLine
 62
4
  6
CONTINUOUS
 10
77.9254223549
 20
126.0449552048
 11
77.9254223549
 21
96.0449552048
  0
LINE
  5
503
100
AcDbEntity
  8
03___PRT_ALL_CURVES
100
AcDbLine
 62
4
  6
CONTINUOUS
 10
77.9554223549
 20
126.0449552048
 11
77.9554223549
 21
96.0449552048
  0
LINE
  5
504
100
AcDbEntity
  8
03___PRT_ALL_CURVES
100
AcDbLine
 62
4
  6
CONTINUOUS
 10
77.9854223549
 20
126.0449552048
 11
77.9854223549
 21
96.0449552048
  0
LINE
  5
505
100
AcDbEntity
  8
03___PRT_ALL_CURVES
100
AcDbLine
 62
4
  6
CONTINUOUS
 10
78.0154223549
 20
126.0449552048
 11
78.0154223549
 21
96.0449552048
  0
LINE
  5
506
100
AcDbEntity
  8
03___PRT_ALL_CURVES
100
AcDbLine
 62
4
  6
CONTINUOUS
 10
78.0454223549
 20
126.0449552048
 11
78.0454223549
 21
96.0449552048
  0
LINE
  5
507
100
AcDbEntity
  8
03___PRT_ALL_CURVES
100
AcDbLine
 62
4
  6
CONTINUOUS
 10
78.0754223549
 20
126.0449552048
 11
78.0754223549
 21
96.0449552048
  0
LINE
  5
508
100
AcDbEntity
  8
03___PRT_ALL_CURVES
100
AcDbLine
 62
4
  6
CONTINUOUS
 10
78.1054223549
 20
126.0449552048
 11
78.1054223549
 21
96.0449552048
  0
LINE
  5
509
100
AcDbEntity
  8
03___PRT_ALL_CURVES
100
AcDbLine
 62
4
  6
CONTINUOUS
 10
78.1354223549
 20
126.0449552048
 11
78.1354223549
 21
96.0449552048
  0
LINE
  5
50A
100
AcDbEntity
  8
03___PRT_ALL_CURVES
100
AcDbLine
 62
4
  6
CONTINUOUS
 10
78.1654223549
 20
126.0449552048
 11
78.1654223549
 21
96.0449552048
  0
LINE
  5
50B
100
AcDbEntity
  8
03___PRT_ALL_CURVES
100
AcDbLine
 62
4
  6
CONTINUOUS
 10
78.1954223549
 20
126.0449552048
 11
78.1954223549
 21
96.0449552048
  0
LINE
  5
50C
100
AcDbEntity
  8
03___PRT_ALL_CURVES
100
AcDbLine
 62
4
  6
CONTINUOUS
 10
78.2254223549
 20
126.0449552048
 11
78.2254223549
 21
96.0449552048
  0
LINE
  5
50D
100
AcDbEntity
  8
03___PRT_ALL_CURVES
100
AcDbLine
 62
4
  6
CONTINUOUS
 10
78.2554223549
 20
126.0449552048
 11
78.2554223549
 21
96.0449552048
  0
LINE
  5
50E
100
AcDbEntity
  8
03___PRT_ALL_CURVES
100
AcDbLine
 62
4
  6
CONTINUOUS
 10
78.2854223549
 20
126.0449552048
 11
78.2854223549
 21
96.0449552048
  0
LINE
  5
50F
100
AcDbEntity
  8
03___PRT_ALL_CURVES
100
AcDbLine
 62
4
  6
CONTINUOUS
 10
78.3154223549
 20
126.0449552048
 11
78.3154223549
 21
96.0449552048
  0
LINE
  5
510
100
AcDbEntity
  8
03___PRT_ALL_CURVES
100
AcDbLine
 62
4
  6
CONTINUOUS
 10
78.3454223549
 20
126.0449552048
 11
78.3454223549
 21
96.0449552048
  0
LINE
  5
511
100
AcDbEntity
  8
03___PRT_ALL_CURVES
100
AcDbLine
 62
4
  6
CONTINUOUS
 10
78.3754223549
 20
126.0449552048
 11
78.3754223549
 21
96.0449552048
  0
LINE
  5
512
100
AcDbEntity
  8
03___PRT_ALL_CURVES
100
AcDbLine
 62
4
  6
CONTINUOUS
 10
78.4054223549
 20
126.0449552048
 11
78.4054223549
 21
96.0449552048
  0
LINE
  5
513
100
AcDbEntity
  8
03___PRT_ALL_CURVES
100
AcDbLine
 62
4
  6
CONTINUOUS
 10
78.4354223549
 20
126.0449552048
 11
78.4354223549
 21
96.0449552048
  0
LINE
  5
514
100
AcDbEntity
  8
03___PRT_ALL_CURVES
100
AcDbLine
 62
4
  6
CONTINUOUS
 10
78.4654223549
 20
126.0449552048
 11
78.4654223549
 21
96.0449552048
  0
LINE
  5
515
100
AcDbEntity
  8
03___PRT_ALL_CURVES
100
AcDbLine
 62
4
  6
CONTINUOUS
 10
78.4954223549
 20
126.0449552048
 11
78.4954223549
 21
96.0449552048
  0
LINE
  5
516
100
AcDbEntity
  8
03___PRT_ALL_CURVES
100
AcDbLine
 62
4
  6
CONTINUOUS
 10
78.5254223549
 20
126.0449552048
 11
78.5254223549
 21
96.0449552048
  0
LINE
  5
517
100
AcDbEntity
  8
03___PRT_ALL_CURVES
100
AcDbLine
 62
4
  6
CONTINUOUS
 10
78.5554223549
 20
126.0449552048
 11
78.5554223549
 21
96.0449552048
  0
LINE
  5
518
100
AcDbEntity
  8
03___PRT_ALL_CURVES
100
AcDbLine
 62
4
  6
CONTINUOUS
 10
78.5854223549
 20
126.0449552048
 11
78.5854223549
 21
96.0449552048
  0
LINE
  5
519
100
AcDbEntity
  8
03___PRT_ALL_CURVES
100
AcDbLine
 62
4
  6
CONTINUOUS
 10
78.6154223549
 20
126.0449552048
 11
78.6154223549
 21
96.0449552048
  0
LINE
  5
51A
100
AcDbEntity
  8
03___PRT_ALL_CURVES
100
AcDbLine
 62
4
  6
CONTINUOUS
 10
78.6454223549
 20
126.0449552048
 11
78.6454223549
 21
96.0449552048
  0
LINE
  5
51B
100
AcDbEntity
  8
03___PRT_ALL_CURVES
100
AcDbLine
 62
4
  6
CONTINUOUS
 10
78.6754223549
 20
126.0449552048
 11
78.6754223549
 21
96.0449552048
  0
LINE
  5
51C
100
AcDbEntity
  8
03___PRT_ALL_CURVES
100
AcDbLine
 62
4
  6
CONTINUOUS
 10
78.7054223549
 20
126.0449552048
 11
78.7054223549
 21
96.0449552048
  0
LINE
  5
51D
100
AcDbEntity
  8
03___PRT_ALL_CURVES
100
AcDbLine
 62
4
  6
CONTINUOUS
 10
78.7354223549
 20
126.0449552048
 11
78.7354223549
 21
96.0449552048
  0
LINE
  5
51E
100
AcDbEntity
  8
03___PRT_ALL_CURVES
100
AcDbLine
 62
4
  6
CONTINUOUS
 10
78.7654223549
 20
126.0449552048
 11
78.7654223549
 21
96.0449552048
  0
LINE
  5
51F
100
AcDbEntity
  8
03___PRT_ALL_CURVES
100
AcDbLine
 62
4
  6
CONTINUOUS
 10
78.7954223549
 20
126.0449552048
 11
78.7954223549
 21
96.0449552048
  0
LINE
  5
520
100
AcDbEntity
  8
03___PRT_ALL_CURVES
100
AcDbLine
 62
4
  6
CONTINUOUS
 10
78.8254223549
 20
126.0449552048
 11
78.8254223549
 21
96.0449552048
  0
LINE
  5
521
100
AcDbEntity
  8
03___PRT_ALL_CURVES
100
AcDbLine
 62
4
  6
CONTINUOUS
 10
78.8554223549
 20
126.0449552048
 11
78.8554223549
 21
96.0449552048
  0
LINE
  5
522
100
AcDbEntity
  8
03___PRT_ALL_CURVES
100
AcDbLine
 62
4
  6
CONTINUOUS
 10
78.8854223549
 20
126.0449552048
 11
78.8854223549
 21
96.0449552048
  0
LINE
  5
523
100
AcDbEntity
  8
03___PRT_ALL_CURVES
100
AcDbLine
 62
4
  6
CONTINUOUS
 10
78.9154223549
 20
126.0449552048
 11
78.9154223549
 21
96.0449552048
  0
LINE
  5
524
100
AcDbEntity
  8
03___PRT_ALL_CURVES
100
AcDbLine
 62
4
  6
CONTINUOUS
 10
78.9454223549
 20
126.0449552048
 11
78.9454223549
 21
96.0449552048
  0
LINE
  5
525
100
AcDbEntity
  8
03___PRT_ALL_CURVES
100
AcDbLine
 62
4
  6
CONTINUOUS
 10
78.9754223549
 20
126.0449552048
 11
78.9754223549
 21
96.0449552048
  0
LINE
  5
526
100
AcDbEntity
  8
03___PRT_ALL_CURVES
100
AcDbLine
 62
4
  6
CONTINUOUS
 10
79.0054223549
 20
126.0449552048
 11
79.0054223549
 21
96.0449552048
  0
LINE
  5
527
100
AcDbEntity
  8
03___PRT_ALL_CURVES
100
AcDbLine
 62
4
  6
CONTINUOUS
 10
79.0354223549
 20
126.0449552048
 11
79.0354223549
 21
96.0449552048
  0
LINE
  5
528
100
AcDbEntity
  8
03___PRT_ALL_CURVES
100
AcDbLine
 62
4
  6
CONTINUOUS
 10
79.0654223549
 20
126.0449552048
 11
79.0654223549
 21
96.0449552048
  0
LINE
  5
529
100
AcDbEntity
  8
03___PRT_ALL_CURVES
100
AcDbLine
 62
4
  6
CONTINUOUS
 10
79.0954223549
 20
126.0449552048
 11
79.0954223549
 21
96.0449552048
  0
LINE
  5
52A
100
AcDbEntity
  8
03___PRT_ALL_CURVES
100
AcDbLine
 62
4
  6
CONTINUOUS
 10
79.1254223549
 20
126.0449552048
 11
79.1254223549
 21
96.0449552048
  0
LINE
  5
52B
100
AcDbEntity
  8
03___PRT_ALL_CURVES
100
AcDbLine
 62
4
  6
CONTINUOUS
 10
79.1554223549
 20
126.0449552048
 11
79.1554223549
 21
96.0449552048
  0
LINE
  5
52C
100
AcDbEntity
  8
03___PRT_ALL_CURVES
100
AcDbLine
 62
4
  6
CONTINUOUS
 10
79.1854223549
 20
126.0449552048
 11
79.1854223549
 21
96.0449552048
  0
LINE
  5
52D
100
AcDbEntity
  8
03___PRT_ALL_CURVES
100
AcDbLine
 62
4
  6
CONTINUOUS
 10
79.2154223549
 20
126.0449552048
 11
79.2154223549
 21
96.0449552048
  0
LINE
  5
52E
100
AcDbEntity
  8
03___PRT_ALL_CURVES
100
AcDbLine
 62
4
  6
CONTINUOUS
 10
79.2454223549
 20
126.0449552048
 11
79.2454223549
 21
96.0449552048
  0
LINE
  5
52F
100
AcDbEntity
  8
03___PRT_ALL_CURVES
100
AcDbLine
 62
4
  6
CONTINUOUS
 10
79.2754223549
 20
126.0449552048
 11
79.2754223549
 21
96.0449552048
  0
LINE
  5
530
100
AcDbEntity
  8
03___PRT_ALL_CURVES
100
AcDbLine
 62
4
  6
CONTINUOUS
 10
79.3054223549
 20
126.0449552048
 11
79.3054223549
 21
96.0449552048
  0
LINE
  5
531
100
AcDbEntity
  8
03___PRT_ALL_CURVES
100
AcDbLine
 62
4
  6
CONTINUOUS
 10
79.3354223549
 20
126.0449552048
 11
79.3354223549
 21
96.0449552048
  0
LINE
  5
532
100
AcDbEntity
  8
03___PRT_ALL_CURVES
100
AcDbLine
 62
4
  6
CONTINUOUS
 10
79.3654223549
 20
126.0449552048
 11
79.3654223549
 21
96.0449552048
  0
LINE
  5
533
100
AcDbEntity
  8
03___PRT_ALL_CURVES
100
AcDbLine
 62
4
  6
CONTINUOUS
 10
79.3954223549
 20
126.0449552048
 11
79.3954223549
 21
96.0449552048
  0
LINE
  5
534
100
AcDbEntity
  8
03___PRT_ALL_CURVES
100
AcDbLine
 62
4
  6
CONTINUOUS
 10
79.4254223549
 20
126.0449552048
 11
79.4254223549
 21
96.0449552048
  0
LINE
  5
535
100
AcDbEntity
  8
03___PRT_ALL_CURVES
100
AcDbLine
 62
4
  6
CONTINUOUS
 10
79.4554223549
 20
126.0449552048
 11
79.4554223549
 21
96.0449552048
  0
LINE
  5
536
100
AcDbEntity
  8
03___PRT_ALL_CURVES
100
AcDbLine
 62
4
  6
CONTINUOUS
 10
79.4854223549
 20
126.0449552048
 11
79.4854223549
 21
96.0449552048
  0
LINE
  5
537
100
AcDbEntity
  8
03___PRT_ALL_CURVES
100
AcDbLine
 62
4
  6
CONTINUOUS
 10
79.5154223549
 20
126.0449552048
 11
79.5154223549
 21
96.0449552048
  0
LINE
  5
538
100
AcDbEntity
  8
03___PRT_ALL_CURVES
100
AcDbLine
 62
4
  6
CONTINUOUS
 10
79.5454223549
 20
126.0449552048
 11
79.5454223549
 21
96.0449552048
  0
LINE
  5
539
100
AcDbEntity
  8
03___PRT_ALL_CURVES
100
AcDbLine
 62
4
  6
CONTINUOUS
 10
79.5754223549
 20
126.0449552048
 11
79.5754223549
 21
96.0449552048
  0
LINE
  5
53A
100
AcDbEntity
  8
03___PRT_ALL_CURVES
100
AcDbLine
 62
4
  6
CONTINUOUS
 10
79.6054223549
 20
126.0449552048
 11
79.6054223549
 21
96.0449552048
  0
LINE
  5
53B
100
AcDbEntity
  8
03___PRT_ALL_CURVES
100
AcDbLine
 62
4
  6
CONTINUOUS
 10
79.6354223549
 20
126.0449552048
 11
79.6354223549
 21
96.0449552048
  0
LINE
  5
53C
100
AcDbEntity
  8
03___PRT_ALL_CURVES
100
AcDbLine
 62
4
  6
CONTINUOUS
 10
79.6654223549
 20
126.0449552048
 11
79.6654223549
 21
96.0449552048
  0
LINE
  5
53D
100
AcDbEntity
  8
03___PRT_ALL_CURVES
100
AcDbLine
 62
4
  6
CONTINUOUS
 10
79.6954223549
 20
126.0449552048
 11
79.6954223549
 21
96.0449552048
  0
LINE
  5
53E
100
AcDbEntity
  8
03___PRT_ALL_CURVES
100
AcDbLine
 62
4
  6
CONTINUOUS
 10
79.7254223549
 20
126.0449552048
 11
79.7254223549
 21
96.0449552048
  0
LINE
  5
53F
100
AcDbEntity
  8
03___PRT_ALL_CURVES
100
AcDbLine
 62
4
  6
CONTINUOUS
 10
79.7554223549
 20
126.0449552048
 11
79.7554223549
 21
96.0449552048
  0
LINE
  5
540
100
AcDbEntity
  8
03___PRT_ALL_CURVES
100
AcDbLine
 62
4
  6
CONTINUOUS
 10
79.7854223549
 20
126.0449552048
 11
79.7854223549
 21
96.0449552048
  0
LINE
  5
541
100
AcDbEntity
  8
03___PRT_ALL_CURVES
100
AcDbLine
 62
4
  6
CONTINUOUS
 10
79.8154223549
 20
126.0449552048
 11
79.8154223549
 21
96.0449552048
  0
LINE
  5
542
100
AcDbEntity
  8
03___PRT_ALL_CURVES
100
AcDbLine
 62
4
  6
CONTINUOUS
 10
79.8454223549
 20
126.0449552048
 11
79.8454223549
 21
96.0449552048
  0
LINE
  5
543
100
AcDbEntity
  8
03___PRT_ALL_CURVES
100
AcDbLine
 62
4
  6
CONTINUOUS
 10
79.8754223549
 20
126.0449552048
 11
79.8754223549
 21
96.0449552048
  0
LINE
  5
544
100
AcDbEntity
  8
03___PRT_ALL_CURVES
100
AcDbLine
 62
4
  6
CONTINUOUS
 10
79.9054223549
 20
126.0449552048
 11
79.9054223549
 21
96.0449552048
  0
LINE
  5
545
100
AcDbEntity
  8
03___PRT_ALL_CURVES
100
AcDbLine
 62
4
  6
CONTINUOUS
 10
79.9354223549
 20
126.0449552048
 11
79.9354223549
 21
96.0449552048
  0
LINE
  5
546
100
AcDbEntity
  8
03___PRT_ALL_CURVES
100
AcDbLine
 62
4
  6
CONTINUOUS
 10
79.9654223549
 20
126.0449552048
 11
79.9654223549
 21
96.0449552048
  0
LINE
  5
547
100
AcDbEntity
  8
03___PRT_ALL_CURVES
100
AcDbLine
 62
4
  6
CONTINUOUS
 10
79.9954223549
 20
126.0449552048
 11
79.9954223549
 21
96.0449552048
  0
LINE
  5
548
100
AcDbEntity
  8
03___PRT_ALL_CURVES
100
AcDbLine
 62
4
  6
CONTINUOUS
 10
80.0254223549
 20
126.0449552048
 11
80.0254223549
 21
96.0449552048
  0
LINE
  5
549
100
AcDbEntity
  8
03___PRT_ALL_CURVES
100
AcDbLine
 62
4
  6
CONTINUOUS
 10
80.0554223549
 20
126.0449552048
 11
80.0554223549
 21
96.0449552048
  0
LINE
  5
54A
100
AcDbEntity
  8
03___PRT_ALL_CURVES
100
AcDbLine
 62
4
  6
CONTINUOUS
 10
80.0854223549
 20
126.0449552048
 11
80.0854223549
 21
96.0449552048
  0
LINE
  5
54B
100
AcDbEntity
  8
03___PRT_ALL_CURVES
100
AcDbLine
 62
4
  6
CONTINUOUS
 10
80.1154223549
 20
126.0449552048
 11
80.1154223549
 21
96.0449552048
  0
LINE
  5
54C
100
AcDbEntity
  8
03___PRT_ALL_CURVES
100
AcDbLine
 62
4
  6
CONTINUOUS
 10
80.1454223549
 20
126.0449552048
 11
80.1454223549
 21
96.0449552048
  0
LINE
  5
54D
100
AcDbEntity
  8
03___PRT_ALL_CURVES
100
AcDbLine
 62
4
  6
CONTINUOUS
 10
80.1754223549
 20
126.0449552048
 11
80.1754223549
 21
96.0449552048
  0
LINE
  5
54E
100
AcDbEntity
  8
03___PRT_ALL_CURVES
100
AcDbLine
 62
4
  6
CONTINUOUS
 10
80.2054223549
 20
126.0449552048
 11
80.2054223549
 21
96.0449552048
  0
LINE
  5
54F
100
AcDbEntity
  8
03___PRT_ALL_CURVES
100
AcDbLine
 62
4
  6
CONTINUOUS
 10
80.2354223549
 20
126.0449552048
 11
80.2354223549
 21
96.0449552048
  0
LINE
  5
550
100
AcDbEntity
  8
03___PRT_ALL_CURVES
100
AcDbLine
 62
4
  6
CONTINUOUS
 10
80.2654223549
 20
126.0449552048
 11
80.2654223549
 21
96.0449552048
  0
LINE
  5
551
100
AcDbEntity
  8
03___PRT_ALL_CURVES
100
AcDbLine
 62
4
  6
CONTINUOUS
 10
80.2954223549
 20
126.0449552048
 11
80.2954223549
 21
96.0449552048
  0
LINE
  5
552
100
AcDbEntity
  8
03___PRT_ALL_CURVES
100
AcDbLine
 62
4
  6
CONTINUOUS
 10
80.3254223549
 20
126.0449552048
 11
80.3254223549
 21
96.0449552048
  0
LINE
  5
553
100
AcDbEntity
  8
03___PRT_ALL_CURVES
100
AcDbLine
 62
4
  6
CONTINUOUS
 10
80.3554223549
 20
126.0449552048
 11
80.3554223549
 21
96.0449552048
  0
LINE
  5
554
100
AcDbEntity
  8
03___PRT_ALL_CURVES
100
AcDbLine
 62
4
  6
CONTINUOUS
 10
80.3854223549
 20
126.0449552048
 11
80.3854223549
 21
96.0449552048
  0
LINE
  5
555
100
AcDbEntity
  8
03___PRT_ALL_CURVES
100
AcDbLine
 62
4
  6
CONTINUOUS
 10
80.4154223549
 20
126.0449552048
 11
80.4154223549
 21
96.0449552048
  0
LINE
  5
556
100
AcDbEntity
  8
03___PRT_ALL_CURVES
100
AcDbLine
 62
4
  6
CONTINUOUS
 10
80.4454223549
 20
126.0449552048
 11
80.4454223549
 21
96.0449552048
  0
LINE
  5
557
100
AcDbEntity
  8
03___PRT_ALL_CURVES
100
AcDbLine
 62
4
  6
CONTINUOUS
 10
80.4754223549
 20
126.0449552048
 11
80.4754223549
 21
96.0449552048
  0
LINE
  5
558
100
AcDbEntity
  8
03___PRT_ALL_CURVES
100
AcDbLine
 62
4
  6
CONTINUOUS
 10
80.5054223549
 20
126.0449552048
 11
80.5054223549
 21
96.0449552048
  0
LINE
  5
559
100
AcDbEntity
  8
03___PRT_ALL_CURVES
100
AcDbLine
 62
4
  6
CONTINUOUS
 10
80.5354223549
 20
126.0449552048
 11
80.5354223549
 21
96.0449552048
  0
LINE
  5
55A
100
AcDbEntity
  8
03___PRT_ALL_CURVES
100
AcDbLine
 62
4
  6
CONTINUOUS
 10
80.5654223549
 20
126.0449552048
 11
80.5654223549
 21
96.0449552048
  0
LINE
  5
55B
100
AcDbEntity
  8
03___PRT_ALL_CURVES
100
AcDbLine
 62
4
  6
CONTINUOUS
 10
80.5954223549
 20
126.0449552048
 11
80.5954223549
 21
96.0449552048
  0
LINE
  5
55C
100
AcDbEntity
  8
03___PRT_ALL_CURVES
100
AcDbLine
 62
4
  6
CONTINUOUS
 10
80.6254223549
 20
126.0449552048
 11
80.6254223549
 21
96.0449552048
  0
LINE
  5
55D
100
AcDbEntity
  8
03___PRT_ALL_CURVES
100
AcDbLine
 62
4
  6
CONTINUOUS
 10
80.6554223549
 20
126.0449552048
 11
80.6554223549
 21
96.0449552048
  0
LINE
  5
55E
100
AcDbEntity
  8
03___PRT_ALL_CURVES
100
AcDbLine
 62
4
  6
CONTINUOUS
 10
80.6854223549
 20
126.0449552048
 11
80.6854223549
 21
96.0449552048
  0
LINE
  5
55F
100
AcDbEntity
  8
03___PRT_ALL_CURVES
100
AcDbLine
 62
4
  6
CONTINUOUS
 10
80.7154223549
 20
126.0449552048
 11
80.7154223549
 21
96.0449552048
  0
LINE
  5
560
100
AcDbEntity
  8
03___PRT_ALL_CURVES
100
AcDbLine
 62
4
  6
CONTINUOUS
 10
80.7454223549
 20
126.0449552048
 11
80.7454223549
 21
96.0449552048
  0
LINE
  5
561
100
AcDbEntity
  8
03___PRT_ALL_CURVES
100
AcDbLine
 62
4
  6
CONTINUOUS
 10
80.7754223549
 20
126.0449552048
 11
80.7754223549
 21
96.0449552048
  0
LINE
  5
562
100
AcDbEntity
  8
03___PRT_ALL_CURVES
100
AcDbLine
 62
4
  6
CONTINUOUS
 10
80.8054223549
 20
126.0449552048
 11
80.8054223549
 21
96.0449552048
  0
LINE
  5
563
100
AcDbEntity
  8
03___PRT_ALL_CURVES
100
AcDbLine
 62
4
  6
CONTINUOUS
 10
80.8354223549
 20
126.0449552048
 11
80.8354223549
 21
96.0449552048
  0
LINE
  5
564
100
AcDbEntity
  8
03___PRT_ALL_CURVES
100
AcDbLine
 62
4
  6
CONTINUOUS
 10
80.8654223549
 20
126.0449552048
 11
80.8654223549
 21
96.0449552048
  0
LINE
  5
565
100
AcDbEntity
  8
03___PRT_ALL_CURVES
100
AcDbLine
 62
4
  6
CONTINUOUS
 10
80.8954223549
 20
126.0449552048
 11
80.8954223549
 21
96.0449552048
  0
LINE
  5
566
100
AcDbEntity
  8
03___PRT_ALL_CURVES
100
AcDbLine
 62
4
  6
CONTINUOUS
 10
80.9254223549
 20
126.0449552048
 11
80.9254223549
 21
96.0449552048
  0
LINE
  5
567
100
AcDbEntity
  8
03___PRT_ALL_CURVES
100
AcDbLine
 62
4
  6
CONTINUOUS
 10
80.9554223549
 20
126.0449552048
 11
80.9554223549
 21
96.0449552048
  0
LINE
  5
568
100
AcDbEntity
  8
03___PRT_ALL_CURVES
100
AcDbLine
 62
4
  6
CONTINUOUS
 10
80.9854223549
 20
126.0449552048
 11
80.9854223549
 21
96.0449552048
  0
LINE
  5
569
100
AcDbEntity
  8
03___PRT_ALL_CURVES
100
AcDbLine
 62
4
  6
CONTINUOUS
 10
81.0154223549
 20
126.0449552048
 11
81.0154223549
 21
96.0449552048
  0
LINE
  5
56A
100
AcDbEntity
  8
03___PRT_ALL_CURVES
100
AcDbLine
 62
4
  6
CONTINUOUS
 10
81.0454223549
 20
126.0449552048
 11
81.0454223549
 21
96.0449552048
  0
LINE
  5
56B
100
AcDbEntity
  8
03___PRT_ALL_CURVES
100
AcDbLine
 62
4
  6
CONTINUOUS
 10
81.0754223549
 20
126.0449552048
 11
81.0754223549
 21
96.0449552048
  0
LINE
  5
56C
100
AcDbEntity
  8
03___PRT_ALL_CURVES
100
AcDbLine
 62
4
  6
CONTINUOUS
 10
81.1054223549
 20
126.0449552048
 11
81.1054223549
 21
96.0449552048
  0
LINE
  5
56D
100
AcDbEntity
  8
03___PRT_ALL_CURVES
100
AcDbLine
 62
4
  6
CONTINUOUS
 10
81.1354223549
 20
126.0449552048
 11
81.1354223549
 21
96.0449552048
  0
LINE
  5
56E
100
AcDbEntity
  8
03___PRT_ALL_CURVES
100
AcDbLine
 62
4
  6
CONTINUOUS
 10
81.1654223549
 20
126.0449552048
 11
81.1654223549
 21
96.0449552048
  0
LINE
  5
56F
100
AcDbEntity
  8
03___PRT_ALL_CURVES
100
AcDbLine
 62
4
  6
CONTINUOUS
 10
81.1954223549
 20
126.0449552048
 11
81.1954223549
 21
96.0449552048
  0
LINE
  5
570
100
AcDbEntity
  8
03___PRT_ALL_CURVES
100
AcDbLine
 62
4
  6
CONTINUOUS
 10
81.2254223549
 20
126.0449552048
 11
81.2254223549
 21
96.0449552048
  0
LINE
  5
571
100
AcDbEntity
  8
03___PRT_ALL_CURVES
100
AcDbLine
 62
4
  6
CONTINUOUS
 10
81.2554223549
 20
126.0449552048
 11
81.2554223549
 21
96.0449552048
  0
LINE
  5
572
100
AcDbEntity
  8
03___PRT_ALL_CURVES
100
AcDbLine
 62
4
  6
CONTINUOUS
 10
81.2854223549
 20
126.0449552048
 11
81.2854223549
 21
96.0449552048
  0
LINE
  5
573
100
AcDbEntity
  8
03___PRT_ALL_CURVES
100
AcDbLine
 62
4
  6
CONTINUOUS
 10
81.3154223549
 20
126.0449552048
 11
81.3154223549
 21
96.0449552048
  0
LINE
  5
574
100
AcDbEntity
  8
03___PRT_ALL_CURVES
100
AcDbLine
 62
4
  6
CONTINUOUS
 10
81.3454223549
 20
126.0449552048
 11
81.3454223549
 21
96.0449552048
  0
LINE
  5
575
100
AcDbEntity
  8
03___PRT_ALL_CURVES
100
AcDbLine
 62
4
  6
CONTINUOUS
 10
81.3754223549
 20
126.0449552048
 11
81.3754223549
 21
96.0449552048
  0
LINE
  5
576
100
AcDbEntity
  8
03___PRT_ALL_CURVES
100
AcDbLine
 62
4
  6
CONTINUOUS
 10
81.4054223549
 20
126.0449552048
 11
81.4054223549
 21
96.0449552048
  0
LINE
  5
577
100
AcDbEntity
  8
03___PRT_ALL_CURVES
100
AcDbLine
 62
4
  6
CONTINUOUS
 10
81.4354223549
 20
126.0449552048
 11
81.4354223549
 21
96.0449552048
  0
LINE
  5
578
100
AcDbEntity
  8
03___PRT_ALL_CURVES
100
AcDbLine
 62
4
  6
CONTINUOUS
 10
81.4654223549
 20
126.0449552048
 11
81.4654223549
 21
96.0449552048
  0
LINE
  5
579
100
AcDbEntity
  8
03___PRT_ALL_CURVES
100
AcDbLine
 62
4
  6
CONTINUOUS
 10
81.4954223549
 20
126.0449552048
 11
81.4954223549
 21
96.0449552048
  0
LINE
  5
57A
100
AcDbEntity
  8
03___PRT_ALL_CURVES
100
AcDbLine
 62
4
  6
CONTINUOUS
 10
81.5254223549
 20
126.0449552048
 11
81.5254223549
 21
96.0449552048
  0
LINE
  5
57B
100
AcDbEntity
  8
03___PRT_ALL_CURVES
100
AcDbLine
 62
4
  6
CONTINUOUS
 10
81.5554223549
 20
126.0449552048
 11
81.5554223549
 21
96.0449552048
  0
LINE
  5
57C
100
AcDbEntity
  8
03___PRT_ALL_CURVES
100
AcDbLine
 62
4
  6
CONTINUOUS
 10
81.5854223549
 20
126.0449552048
 11
81.5854223549
 21
96.0449552048
  0
LINE
  5
57D
100
AcDbEntity
  8
03___PRT_ALL_CURVES
100
AcDbLine
 62
4
  6
CONTINUOUS
 10
81.6154223549
 20
126.0449552048
 11
81.6154223549
 21
96.0449552048
  0
LINE
  5
57E
100
AcDbEntity
  8
03___PRT_ALL_CURVES
100
AcDbLine
 62
4
  6
CONTINUOUS
 10
81.6454223549
 20
126.0449552048
 11
81.6454223549
 21
96.0449552048
  0
LINE
  5
57F
100
AcDbEntity
  8
03___PRT_ALL_CURVES
100
AcDbLine
 62
4
  6
CONTINUOUS
 10
81.6754223549
 20
126.0449552048
 11
81.6754223549
 21
96.0449552048
  0
LINE
  5
580
100
AcDbEntity
  8
03___PRT_ALL_CURVES
100
AcDbLine
 62
4
  6
CONTINUOUS
 10
81.7054223549
 20
126.0449552048
 11
81.7054223549
 21
96.0449552048
  0
LINE
  5
581
100
AcDbEntity
  8
03___PRT_ALL_CURVES
100
AcDbLine
 62
4
  6
CONTINUOUS
 10
81.7354223549
 20
126.0449552048
 11
81.7354223549
 21
96.0449552048
  0
LINE
  5
582
100
AcDbEntity
  8
03___PRT_ALL_CURVES
100
AcDbLine
 62
4
  6
CONTINUOUS
 10
81.7654223549
 20
126.0449552048
 11
81.7654223549
 21
96.0449552048
  0
LINE
  5
583
100
AcDbEntity
  8
03___PRT_ALL_CURVES
100
AcDbLine
 62
4
  6
CONTINUOUS
 10
81.7954223549
 20
126.0449552048
 11
81.7954223549
 21
96.0449552048
  0
LINE
  5
584
100
AcDbEntity
  8
03___PRT_ALL_CURVES
100
AcDbLine
 62
4
  6
CONTINUOUS
 10
81.8254223549
 20
126.0449552048
 11
81.8254223549
 21
96.0449552048
  0
LINE
  5
585
100
AcDbEntity
  8
03___PRT_ALL_CURVES
100
AcDbLine
 62
4
  6
CONTINUOUS
 10
81.8554223549
 20
126.0449552048
 11
81.8554223549
 21
96.0449552048
  0
LINE
  5
586
100
AcDbEntity
  8
03___PRT_ALL_CURVES
100
AcDbLine
 62
4
  6
CONTINUOUS
 10
81.8854223549
 20
126.0449552048
 11
81.8854223549
 21
96.0449552048
  0
LINE
  5
587
100
AcDbEntity
  8
03___PRT_ALL_CURVES
100
AcDbLine
 62
4
  6
CONTINUOUS
 10
81.9154223549
 20
126.0449552048
 11
81.9154223549
 21
96.0449552048
  0
LINE
  5
588
100
AcDbEntity
  8
03___PRT_ALL_CURVES
100
AcDbLine
 62
4
  6
CONTINUOUS
 10
81.9454223549
 20
126.0449552048
 11
81.9454223549
 21
96.0449552048
  0
LINE
  5
589
100
AcDbEntity
  8
03___PRT_ALL_CURVES
100
AcDbLine
 62
4
  6
CONTINUOUS
 10
81.9754223549
 20
126.0449552048
 11
81.9754223549
 21
96.0449552048
  0
LINE
  5
58A
100
AcDbEntity
  8
03___PRT_ALL_CURVES
100
AcDbLine
 62
4
  6
CONTINUOUS
 10
82.0054223549
 20
126.0449552048
 11
82.0054223549
 21
96.0449552048
  0
LINE
  5
58B
100
AcDbEntity
  8
03___PRT_ALL_CURVES
100
AcDbLine
 62
4
  6
CONTINUOUS
 10
82.0354223549
 20
126.0449552048
 11
82.0354223549
 21
96.0449552048
  0
LINE
  5
58C
100
AcDbEntity
  8
03___PRT_ALL_CURVES
100
AcDbLine
 62
4
  6
CONTINUOUS
 10
82.0654223549
 20
126.0449552048
 11
82.0654223549
 21
96.0449552048
  0
LINE
  5
58D
100
AcDbEntity
  8
03___PRT_ALL_CURVES
100
AcDbLine
 62
4
  6
CONTINUOUS
 10
82.0954223549
 20
126.0449552048
 11
82.0954223549
 21
96.0449552048
  0
LINE
  5
58E
100
AcDbEntity
  8
03___PRT_ALL_CURVES
100
AcDbLine
 62
4
  6
CONTINUOUS
 10
82.1254223549
 20
126.0449552048
 11
82.1254223549
 21
96.0449552048
  0
LINE
  5
58F
100
AcDbEntity
  8
03___PRT_ALL_CURVES
100
AcDbLine
 62
4
  6
CONTINUOUS
 10
82.1554223549
 20
126.0449552048
 11
82.1554223549
 21
96.0449552048
  0
LINE
  5
590
100
AcDbEntity
  8
03___PRT_ALL_CURVES
100
AcDbLine
 62
4
  6
CONTINUOUS
 10
82.1854223549
 20
126.0449552048
 11
82.1854223549
 21
96.0449552048
  0
LINE
  5
591
100
AcDbEntity
  8
03___PRT_ALL_CURVES
100
AcDbLine
 62
4
  6
CONTINUOUS
 10
82.2154223549
 20
126.0449552048
 11
82.2154223549
 21
96.0449552048
  0
LINE
  5
592
100
AcDbEntity
  8
03___PRT_ALL_CURVES
100
AcDbLine
 62
4
  6
CONTINUOUS
 10
82.2454223549
 20
126.0449552048
 11
82.2454223549
 21
96.0449552048
  0
LINE
  5
593
100
AcDbEntity
  8
03___PRT_ALL_CURVES
100
AcDbLine
 62
4
  6
CONTINUOUS
 10
82.2754223549
 20
126.0449552048
 11
82.2754223549
 21
96.0449552048
  0
LINE
  5
594
100
AcDbEntity
  8
03___PRT_ALL_CURVES
100
AcDbLine
 62
4
  6
CONTINUOUS
 10
82.3054223549
 20
126.0449552048
 11
82.3054223549
 21
96.0449552048
  0
LINE
  5
595
100
AcDbEntity
  8
03___PRT_ALL_CURVES
100
AcDbLine
 62
4
  6
CONTINUOUS
 10
82.3354223549
 20
126.0449552048
 11
82.3354223549
 21
96.0449552048
  0
LINE
  5
596
100
AcDbEntity
  8
03___PRT_ALL_CURVES
100
AcDbLine
 62
4
  6
CONTINUOUS
 10
82.3654223549
 20
126.0449552048
 11
82.3654223549
 21
96.0449552048
  0
LINE
  5
597
100
AcDbEntity
  8
03___PRT_ALL_CURVES
100
AcDbLine
 62
4
  6
CONTINUOUS
 10
82.3954223549
 20
126.0449552048
 11
82.3954223549
 21
96.0449552048
  0
LINE
  5
598
100
AcDbEntity
  8
03___PRT_ALL_CURVES
100
AcDbLine
 62
4
  6
CONTINUOUS
 10
82.4254223549
 20
126.0449552048
 11
82.4254223549
 21
96.0449552048
  0
LINE
  5
599
100
AcDbEntity
  8
03___PRT_ALL_CURVES
100
AcDbLine
 62
4
  6
CONTINUOUS
 10
82.4554223549
 20
126.0449552048
 11
82.4554223549
 21
96.0449552048
  0
LINE
  5
59A
100
AcDbEntity
  8
03___PRT_ALL_CURVES
100
AcDbLine
 62
4
  6
CONTINUOUS
 10
82.4854223549
 20
126.0449552048
 11
82.4854223549
 21
96.0449552048
  0
LINE
  5
59B
100
AcDbEntity
  8
03___PRT_ALL_CURVES
100
AcDbLine
 62
4
  6
CONTINUOUS
 10
82.5154223549
 20
126.0449552048
 11
82.5154223549
 21
96.0449552048
  0
LINE
  5
59C
100
AcDbEntity
  8
03___PRT_ALL_CURVES
100
AcDbLine
 62
4
  6
CONTINUOUS
 10
82.5454223549
 20
126.0449552048
 11
82.5454223549
 21
96.0449552048
  0
LINE
  5
59D
100
AcDbEntity
  8
03___PRT_ALL_CURVES
100
AcDbLine
 62
4
  6
CONTINUOUS
 10
82.5754223549
 20
126.0449552048
 11
82.5754223549
 21
96.0449552048
  0
LINE
  5
59E
100
AcDbEntity
  8
03___PRT_ALL_CURVES
100
AcDbLine
 62
4
  6
CONTINUOUS
 10
82.6054223549
 20
126.0449552048
 11
82.6054223549
 21
96.0449552048
  0
LINE
  5
59F
100
AcDbEntity
  8
03___PRT_ALL_CURVES
100
AcDbLine
 62
4
  6
CONTINUOUS
 10
82.6354223549
 20
126.0449552048
 11
82.6354223549
 21
96.0449552048
  0
LINE
  5
5A0
100
AcDbEntity
  8
03___PRT_ALL_CURVES
100
AcDbLine
 62
4
  6
CONTINUOUS
 10
82.6654223549
 20
126.0449552048
 11
82.6654223549
 21
96.0449552048
  0
LINE
  5
5A1
100
AcDbEntity
  8
03___PRT_ALL_CURVES
100
AcDbLine
 62
4
  6
CONTINUOUS
 10
82.6954223549
 20
126.0449552048
 11
82.6954223549
 21
96.0449552048
  0
LINE
  5
5A2
100
AcDbEntity
  8
03___PRT_ALL_CURVES
100
AcDbLine
 62
4
  6
CONTINUOUS
 10
82.7254223549
 20
126.0449552048
 11
82.7254223549
 21
96.0449552048
  0
LINE
  5
5A3
100
AcDbEntity
  8
03___PRT_ALL_CURVES
100
AcDbLine
 62
4
  6
CONTINUOUS
 10
82.7554223549
 20
126.0449552048
 11
82.7554223549
 21
96.0449552048
  0
LINE
  5
5A4
100
AcDbEntity
  8
03___PRT_ALL_CURVES
100
AcDbLine
 62
4
  6
CONTINUOUS
 10
82.7854223549
 20
126.0449552048
 11
82.7854223549
 21
96.0449552048
  0
LINE
  5
5A5
100
AcDbEntity
  8
03___PRT_ALL_CURVES
100
AcDbLine
 62
4
  6
CONTINUOUS
 10
82.8154223549
 20
126.0449552048
 11
82.8154223549
 21
96.0449552048
  0
LINE
  5
5A6
100
AcDbEntity
  8
03___PRT_ALL_CURVES
100
AcDbLine
 62
4
  6
CONTINUOUS
 10
82.8454223549
 20
126.0449552048
 11
82.8454223549
 21
96.0449552048
  0
LINE
  5
5A7
100
AcDbEntity
  8
03___PRT_ALL_CURVES
100
AcDbLine
 62
4
  6
CONTINUOUS
 10
82.8754223549
 20
126.0449552048
 11
82.8754223549
 21
96.0449552048
  0
LINE
  5
5A8
100
AcDbEntity
  8
03___PRT_ALL_CURVES
100
AcDbLine
 62
4
  6
CONTINUOUS
 10
82.9054223549
 20
126.0449552048
 11
82.9054223549
 21
96.0449552048
  0
LINE
  5
5A9
100
AcDbEntity
  8
03___PRT_ALL_CURVES
100
AcDbLine
 62
4
  6
CONTINUOUS
 10
82.9354223549
 20
126.0449552048
 11
82.9354223549
 21
96.0449552048
  0
LINE
  5
5AA
100
AcDbEntity
  8
03___PRT_ALL_CURVES
100
AcDbLine
 62
4
  6
CONTINUOUS
 10
82.9654223549
 20
126.0449552048
 11
82.9654223549
 21
96.0449552048
  0
LINE
  5
5AB
100
AcDbEntity
  8
03___PRT_ALL_CURVES
100
AcDbLine
 62
4
  6
CONTINUOUS
 10
82.9954223549
 20
126.0449552048
 11
82.9954223549
 21
96.0449552048
  0
LINE
  5
5AC
100
AcDbEntity
  8
03___PRT_ALL_CURVES
100
AcDbLine
 62
4
  6
CONTINUOUS
 10
83.0254223549
 20
126.0449552048
 11
83.0254223549
 21
96.0449552048
  0
LINE
  5
5AD
100
AcDbEntity
  8
03___PRT_ALL_CURVES
100
AcDbLine
 62
4
  6
CONTINUOUS
 10
83.0554223549
 20
126.0449552048
 11
83.0554223549
 21
96.0449552048
  0
LINE
  5
5AE
100
AcDbEntity
  8
03___PRT_ALL_CURVES
100
AcDbLine
 62
4
  6
CONTINUOUS
 10
83.0854223549
 20
126.0449552048
 11
83.0854223549
 21
96.0449552048
  0
LINE
  5
5AF
100
AcDbEntity
  8
03___PRT_ALL_CURVES
100
AcDbLine
 62
4
  6
CONTINUOUS
 10
83.1154223549
 20
126.0449552048
 11
83.1154223549
 21
96.0449552048
  0
LINE
  5
5B0
100
AcDbEntity
  8
03___PRT_ALL_CURVES
100
AcDbLine
 62
4
  6
CONTINUOUS
 10
83.1454223549
 20
126.0449552048
 11
83.1454223549
 21
96.0449552048
  0
LINE
  5
5B1
100
AcDbEntity
  8
03___PRT_ALL_CURVES
100
AcDbLine
 62
4
  6
CONTINUOUS
 10
83.1754223549
 20
126.0449552048
 11
83.1754223549
 21
96.0449552048
  0
LINE
  5
5B2
100
AcDbEntity
  8
03___PRT_ALL_CURVES
100
AcDbLine
 62
4
  6
CONTINUOUS
 10
83.2054223549
 20
126.0449552048
 11
83.2054223549
 21
96.0449552048
  0
LINE
  5
5B3
100
AcDbEntity
  8
03___PRT_ALL_CURVES
100
AcDbLine
 62
4
  6
CONTINUOUS
 10
83.2354223549
 20
126.0449552048
 11
83.2354223549
 21
96.0449552048
  0
LINE
  5
5B4
100
AcDbEntity
  8
03___PRT_ALL_CURVES
100
AcDbLine
 62
4
  6
CONTINUOUS
 10
83.2654223549
 20
126.0449552048
 11
83.2654223549
 21
96.0449552048
  0
LINE
  5
5B5
100
AcDbEntity
  8
03___PRT_ALL_CURVES
100
AcDbLine
 62
4
  6
CONTINUOUS
 10
83.2954223549
 20
126.0449552048
 11
83.2954223549
 21
96.0449552048
  0
LINE
  5
5B6
100
AcDbEntity
  8
03___PRT_ALL_CURVES
100
AcDbLine
 62
4
  6
CONTINUOUS
 10
83.3254223549
 20
126.0449552048
 11
83.3254223549
 21
96.0449552048
  0
LINE
  5
5B7
100
AcDbEntity
  8
03___PRT_ALL_CURVES
100
AcDbLine
 62
4
  6
CONTINUOUS
 10
83.3554223549
 20
126.0449552048
 11
83.3554223549
 21
96.0449552048
  0
LINE
  5
5B8
100
AcDbEntity
  8
03___PRT_ALL_CURVES
100
AcDbLine
 62
4
  6
CONTINUOUS
 10
83.3854223549
 20
126.0449552048
 11
83.3854223549
 21
96.0449552048
  0
LINE
  5
5B9
100
AcDbEntity
  8
03___PRT_ALL_CURVES
100
AcDbLine
 62
4
  6
CONTINUOUS
 10
83.4154223549
 20
126.0449552048
 11
83.4154223549
 21
96.0449552048
  0
LINE
  5
5BA
100
AcDbEntity
  8
03___PRT_ALL_CURVES
100
AcDbLine
 62
4
  6
CONTINUOUS
 10
83.4454223549
 20
126.0449552048
 11
83.4454223549
 21
96.0449552048
  0
LINE
  5
5BB
100
AcDbEntity
  8
03___PRT_ALL_CURVES
100
AcDbLine
 62
4
  6
CONTINUOUS
 10
83.4754223549
 20
126.0449552048
 11
83.4754223549
 21
96.0449552048
  0
LINE
  5
5BC
100
AcDbEntity
  8
03___PRT_ALL_CURVES
100
AcDbLine
 62
4
  6
CONTINUOUS
 10
83.5054223549
 20
126.0449552048
 11
83.5054223549
 21
96.0449552048
  0
LINE
  5
5BD
100
AcDbEntity
  8
03___PRT_ALL_CURVES
100
AcDbLine
 62
4
  6
CONTINUOUS
 10
83.5354223549
 20
126.0449552048
 11
83.5354223549
 21
96.0449552048
  0
LINE
  5
5BE
100
AcDbEntity
  8
03___PRT_ALL_CURVES
100
AcDbLine
 62
4
  6
CONTINUOUS
 10
83.5654223549
 20
126.0449552048
 11
83.5654223549
 21
96.0449552048
  0
LINE
  5
5BF
100
AcDbEntity
  8
03___PRT_ALL_CURVES
100
AcDbLine
 62
4
  6
CONTINUOUS
 10
83.5954223549
 20
126.0449552048
 11
83.5954223549
 21
96.0449552048
  0
LINE
  5
5C0
100
AcDbEntity
  8
03___PRT_ALL_CURVES
100
AcDbLine
 62
4
  6
CONTINUOUS
 10
83.6254223549
 20
126.0449552048
 11
83.6254223549
 21
96.0449552048
  0
LINE
  5
5C1
100
AcDbEntity
  8
03___PRT_ALL_CURVES
100
AcDbLine
 62
4
  6
CONTINUOUS
 10
83.6554223549
 20
126.0449552048
 11
83.6554223549
 21
96.0449552048
  0
LINE
  5
5C2
100
AcDbEntity
  8
03___PRT_ALL_CURVES
100
AcDbLine
 62
4
  6
CONTINUOUS
 10
83.6854223549
 20
126.0449552048
 11
83.6854223549
 21
96.0449552048
  0
LINE
  5
5C3
100
AcDbEntity
  8
03___PRT_ALL_CURVES
100
AcDbLine
 62
4
  6
CONTINUOUS
 10
83.7154223549
 20
126.0449552048
 11
83.7154223549
 21
96.0449552048
  0
LINE
  5
5C4
100
AcDbEntity
  8
03___PRT_ALL_CURVES
100
AcDbLine
 62
4
  6
CONTINUOUS
 10
83.7454223549
 20
126.0449552048
 11
83.7454223549
 21
96.0449552048
  0
LINE
  5
5C5
100
AcDbEntity
  8
03___PRT_ALL_CURVES
100
AcDbLine
 62
4
  6
CONTINUOUS
 10
83.7754223549
 20
126.0449552048
 11
83.7754223549
 21
96.0449552048
  0
LINE
  5
5C6
100
AcDbEntity
  8
03___PRT_ALL_CURVES
100
AcDbLine
 62
4
  6
CONTINUOUS
 10
83.8054223549
 20
126.0449552048
 11
83.8054223549
 21
96.0449552048
  0
LINE
  5
5C7
100
AcDbEntity
  8
03___PRT_ALL_CURVES
100
AcDbLine
 62
4
  6
CONTINUOUS
 10
83.8354223549
 20
126.0449552048
 11
83.8354223549
 21
96.0449552048
  0
LINE
  5
5C8
100
AcDbEntity
  8
03___PRT_ALL_CURVES
100
AcDbLine
 62
4
  6
CONTINUOUS
 10
83.8654223549
 20
126.0449552048
 11
83.8654223549
 21
96.0449552048
  0
LINE
  5
5C9
100
AcDbEntity
  8
03___PRT_ALL_CURVES
100
AcDbLine
 62
4
  6
CONTINUOUS
 10
83.8954223549
 20
126.0449552048
 11
83.8954223549
 21
96.0449552048
  0
LINE
  5
5CA
100
AcDbEntity
  8
03___PRT_ALL_CURVES
100
AcDbLine
 62
4
  6
CONTINUOUS
 10
83.9254223549
 20
126.0449552048
 11
83.9254223549
 21
96.0449552048
  0
LINE
  5
5CB
100
AcDbEntity
  8
03___PRT_ALL_CURVES
100
AcDbLine
 62
4
  6
CONTINUOUS
 10
83.9554223549
 20
126.0449552048
 11
83.9554223549
 21
96.0449552048
  0
LINE
  5
5CC
100
AcDbEntity
  8
03___PRT_ALL_CURVES
100
AcDbLine
 62
4
  6
CONTINUOUS
 10
83.9854223549
 20
126.0449552048
 11
83.9854223549
 21
96.0449552048
  0
LINE
  5
5CD
100
AcDbEntity
  8
03___PRT_ALL_CURVES
100
AcDbLine
 62
4
  6
CONTINUOUS
 10
84.0154223549
 20
126.0449552048
 11
84.0154223549
 21
96.0449552048
  0
LINE
  5
5CE
100
AcDbEntity
  8
03___PRT_ALL_CURVES
100
AcDbLine
 62
4
  6
CONTINUOUS
 10
84.0454223549
 20
126.0449552048
 11
84.0454223549
 21
96.0449552048
  0
LINE
  5
5CF
100
AcDbEntity
  8
03___PRT_ALL_CURVES
100
AcDbLine
 62
4
  6
CONTINUOUS
 10
84.0754223549
 20
126.0449552048
 11
84.0754223549
 21
96.0449552048
  0
LINE
  5
5D0
100
AcDbEntity
  8
03___PRT_ALL_CURVES
100
AcDbLine
 62
4
  6
CONTINUOUS
 10
84.1054223549
 20
126.0449552048
 11
84.1054223549
 21
96.0449552048
  0
LINE
  5
5D1
100
AcDbEntity
  8
03___PRT_ALL_CURVES
100
AcDbLine
 62
4
  6
CONTINUOUS
 10
84.1354223549
 20
126.0449552048
 11
84.1354223549
 21
96.0449552048
  0
LINE
  5
5D2
100
AcDbEntity
  8
03___PRT_ALL_CURVES
100
AcDbLine
 62
4
  6
CONTINUOUS
 10
84.1654223549
 20
126.0449552048
 11
84.1654223549
 21
96.0449552048
  0
LINE
  5
5D3
100
AcDbEntity
  8
03___PRT_ALL_CURVES
100
AcDbLine
 62
4
  6
CONTINUOUS
 10
84.1954223549
 20
126.0449552048
 11
84.1954223549
 21
96.0449552048
  0
LINE
  5
5D4
100
AcDbEntity
  8
03___PRT_ALL_CURVES
100
AcDbLine
 62
4
  6
CONTINUOUS
 10
84.2254223549
 20
126.0449552048
 11
84.2254223549
 21
96.0449552048
  0
LINE
  5
5D5
100
AcDbEntity
  8
03___PRT_ALL_CURVES
100
AcDbLine
 62
4
  6
CONTINUOUS
 10
84.2554223549
 20
126.0449552048
 11
84.2554223549
 21
96.0449552048
  0
LINE
  5
5D6
100
AcDbEntity
  8
03___PRT_ALL_CURVES
100
AcDbLine
 62
4
  6
CONTINUOUS
 10
84.2854223549
 20
126.0449552048
 11
84.2854223549
 21
96.0449552048
  0
LINE
  5
5D7
100
AcDbEntity
  8
03___PRT_ALL_CURVES
100
AcDbLine
 62
4
  6
CONTINUOUS
 10
84.3154223549
 20
126.0449552048
 11
84.3154223549
 21
96.0449552048
  0
LINE
  5
5D8
100
AcDbEntity
  8
03___PRT_ALL_CURVES
100
AcDbLine
 62
4
  6
CONTINUOUS
 10
84.3454223549
 20
126.0449552048
 11
84.3454223549
 21
96.0449552048
  0
LINE
  5
5D9
100
AcDbEntity
  8
03___PRT_ALL_CURVES
100
AcDbLine
 62
4
  6
CONTINUOUS
 10
84.3754223549
 20
126.0449552048
 11
84.3754223549
 21
96.0449552048
  0
LINE
  5
5DA
100
AcDbEntity
  8
03___PRT_ALL_CURVES
100
AcDbLine
 62
4
  6
CONTINUOUS
 10
84.4054223549
 20
126.0449552048
 11
84.4054223549
 21
96.0449552048
  0
LINE
  5
5DB
100
AcDbEntity
  8
03___PRT_ALL_CURVES
100
AcDbLine
 62
4
  6
CONTINUOUS
 10
84.4354223549
 20
126.0449552048
 11
84.4354223549
 21
96.0449552048
  0
LINE
  5
5DC
100
AcDbEntity
  8
03___PRT_ALL_CURVES
100
AcDbLine
 62
4
  6
CONTINUOUS
 10
84.4654223549
 20
126.0449552048
 11
84.4654223549
 21
96.0449552048
  0
LINE
  5
5DD
100
AcDbEntity
  8
03___PRT_ALL_CURVES
100
AcDbLine
 62
4
  6
CONTINUOUS
 10
84.4954223549
 20
126.0449552048
 11
84.4954223549
 21
96.0449552048
  0
LINE
  5
5DE
100
AcDbEntity
  8
03___PRT_ALL_CURVES
100
AcDbLine
 62
4
  6
CONTINUOUS
 10
84.5254223549
 20
126.0449552048
 11
84.5254223549
 21
96.0449552048
  0
LINE
  5
5DF
100
AcDbEntity
  8
03___PRT_ALL_CURVES
100
AcDbLine
 62
4
  6
CONTINUOUS
 10
84.5554223549
 20
126.0449552048
 11
84.5554223549
 21
96.0449552048
  0
LINE
  5
5E0
100
AcDbEntity
  8
03___PRT_ALL_CURVES
100
AcDbLine
 62
4
  6
CONTINUOUS
 10
84.5854223549
 20
126.0449552048
 11
84.5854223549
 21
96.0449552048
  0
LINE
  5
5E1
100
AcDbEntity
  8
03___PRT_ALL_CURVES
100
AcDbLine
 62
4
  6
CONTINUOUS
 10
84.6154223549
 20
126.0449552048
 11
84.6154223549
 21
96.0449552048
  0
LINE
  5
5E2
100
AcDbEntity
  8
03___PRT_ALL_CURVES
100
AcDbLine
 62
4
  6
CONTINUOUS
 10
84.6454223549
 20
126.0449552048
 11
84.6454223549
 21
96.0449552048
  0
LINE
  5
5E3
100
AcDbEntity
  8
03___PRT_ALL_CURVES
100
AcDbLine
 62
4
  6
CONTINUOUS
 10
84.6754223549
 20
126.0449552048
 11
84.6754223549
 21
96.0449552048
  0
LINE
  5
5E4
100
AcDbEntity
  8
03___PRT_ALL_CURVES
100
AcDbLine
 62
4
  6
CONTINUOUS
 10
84.7054223549
 20
126.0449552048
 11
84.7054223549
 21
96.0449552048
  0
LINE
  5
5E5
100
AcDbEntity
  8
03___PRT_ALL_CURVES
100
AcDbLine
 62
4
  6
CONTINUOUS
 10
84.7354223549
 20
126.0449552048
 11
84.7354223549
 21
96.0449552048
  0
LINE
  5
5E6
100
AcDbEntity
  8
03___PRT_ALL_CURVES
100
AcDbLine
 62
4
  6
CONTINUOUS
 10
84.7654223549
 20
126.0449552048
 11
84.7654223549
 21
96.0449552048
  0
LINE
  5
5E7
100
AcDbEntity
  8
03___PRT_ALL_CURVES
100
AcDbLine
 62
4
  6
CONTINUOUS
 10
84.7954223549
 20
126.0449552048
 11
84.7954223549
 21
96.0449552048
  0
LINE
  5
5E8
100
AcDbEntity
  8
03___PRT_ALL_CURVES
100
AcDbLine
 62
4
  6
CONTINUOUS
 10
84.8254223549
 20
126.0449552048
 11
84.8254223549
 21
96.0449552048
  0
LINE
  5
5E9
100
AcDbEntity
  8
03___PRT_ALL_CURVES
100
AcDbLine
 62
4
  6
CONTINUOUS
 10
84.8554223549
 20
126.0449552048
 11
84.8554223549
 21
96.0449552048
  0
LINE
  5
5EA
100
AcDbEntity
  8
03___PRT_ALL_CURVES
100
AcDbLine
 62
4
  6
CONTINUOUS
 10
84.8854223549
 20
126.0449552048
 11
84.8854223549
 21
96.0449552048
  0
LINE
  5
5EB
100
AcDbEntity
  8
03___PRT_ALL_CURVES
100
AcDbLine
 62
4
  6
CONTINUOUS
 10
84.9154223549
 20
126.0449552048
 11
84.9154223549
 21
96.0449552048
  0
LINE
  5
5EC
100
AcDbEntity
  8
03___PRT_ALL_CURVES
100
AcDbLine
 62
4
  6
CONTINUOUS
 10
84.9454223549
 20
126.0449552048
 11
84.9454223549
 21
96.0449552048
  0
LINE
  5
5ED
100
AcDbEntity
  8
03___PRT_ALL_CURVES
100
AcDbLine
 62
4
  6
CONTINUOUS
 10
84.9754223549
 20
126.0449552048
 11
84.9754223549
 21
96.0449552048
  0
LINE
  5
5EE
100
AcDbEntity
  8
03___PRT_ALL_CURVES
100
AcDbLine
 62
4
  6
CONTINUOUS
 10
85.0054223549
 20
126.0449552048
 11
85.0054223549
 21
96.0449552048
  0
LINE
  5
5EF
100
AcDbEntity
  8
03___PRT_ALL_CURVES
100
AcDbLine
 62
4
  6
CONTINUOUS
 10
85.0354223549
 20
126.0449552048
 11
85.0354223549
 21
96.0449552048
  0
LINE
  5
5F0
100
AcDbEntity
  8
03___PRT_ALL_CURVES
100
AcDbLine
 62
4
  6
CONTINUOUS
 10
85.0654223549
 20
126.0449552048
 11
85.0654223549
 21
96.0449552048
  0
LINE
  5
5F1
100
AcDbEntity
  8
03___PRT_ALL_CURVES
100
AcDbLine
 62
4
  6
CONTINUOUS
 10
85.0954223549
 20
126.0449552048
 11
85.0954223549
 21
96.0449552048
  0
LINE
  5
5F2
100
AcDbEntity
  8
03___PRT_ALL_CURVES
100
AcDbLine
 62
4
  6
CONTINUOUS
 10
85.1254223549
 20
126.0449552048
 11
85.1254223549
 21
96.0449552048
  0
LINE
  5
5F3
100
AcDbEntity
  8
03___PRT_ALL_CURVES
100
AcDbLine
 62
4
  6
CONTINUOUS
 10
85.1554223549
 20
126.0449552048
 11
85.1554223549
 21
96.0449552048
  0
LINE
  5
5F4
100
AcDbEntity
  8
03___PRT_ALL_CURVES
100
AcDbLine
 62
4
  6
CONTINUOUS
 10
85.1854223549
 20
126.0449552048
 11
85.1854223549
 21
96.0449552048
  0
LINE
  5
5F5
100
AcDbEntity
  8
03___PRT_ALL_CURVES
100
AcDbLine
 62
4
  6
CONTINUOUS
 10
85.2154223549
 20
126.0449552048
 11
85.2154223549
 21
96.0449552048
  0
LINE
  5
5F6
100
AcDbEntity
  8
03___PRT_ALL_CURVES
100
AcDbLine
 62
4
  6
CONTINUOUS
 10
85.2454223549
 20
126.0449552048
 11
85.2454223549
 21
96.0449552048
  0
LINE
  5
5F7
100
AcDbEntity
  8
03___PRT_ALL_CURVES
100
AcDbLine
 62
4
  6
CONTINUOUS
 10
85.2754223549
 20
126.0449552048
 11
85.2754223549
 21
96.0449552048
  0
ENDSEC
  0
SECTION
  2
OBJECTS
  0
DICTIONARY
  5
C
100
AcDbDictionary
280
0
281
1
  3
ACAD_GROUP
350
D
  3
ACAD_MLINESTYLE
350
17
  3
ACAD_LAYOUT
350
1A
  3
ACAD_PLOTSETTINGS
350
19
  3
ACAD_PLOTSTYLENAME
350
E
  0
DICTIONARY
  5
D
102
{ACAD_REACTORS
330
C
102
}
100
AcDbDictionary
280
0
281
1
  0
ACDBDICTIONARYWDFLT
  5
E
102
{ACAD_REACTORS
330
C
102
}
100
AcDbDictionary
281
1
  3
Normal
350
F
100
AcDbDictionaryWithDefault
340
F
  0
DICTIONARY
  5
17
102
{ACAD_REACTORS
330
C
102
}
100
AcDbDictionary
280
0
281
1
  3
Standard
350
18
  0
DICTIONARY
  5
19
102
{ACAD_REACTORS
330
C
102
}
100
AcDbDictionary
281
1
  0
DICTIONARY
  5
1A
102
{ACAD_REACTORS
330
C
102
}
100
AcDbDictionary
281
1
  3
Model
350
5F8
  3
Layout1
350
5F9
  0
ACDBPLACEHOLDER
  5
F
102
{ACAD_REACTORS
330
E
102
}
  0
MLINESTYLE
  5
18
102
{ACAD_REACTORS
330
17
102
}
100
AcDbMlineStyle
  2
STANDARD
 70
0
  3

 62
256
 51
90.0
 52
90.0
 71
2
 49
0.5
 62
256
  6
BYLAYER
 49
-0.5
 62
256
  6
BYLAYER
  0
LAYOUT
  5
5F8
102
{ACAD_REACTORS
330
1A
102
}
100
AcDbPlotSettings
  1

  2
none_device
  4
ISO_A4_(297.00_x_210.00_MM)
  6

 40
0.0
 41
0.0
 42
0.0
 43
0.0
 44
297.0
 45
210.0
 46
0.0
 47
0.0
 48
0.0
 49
0.0
140
0.0
141
0.0
142
1.0
143
1.0
 70
1024
 72
1
 73
0
 74
0
  7

 75
0
147
1.0
148
0.0
149
0.0
100
AcDbLayout
  1
Model
 70
0
 71
0
 10
0.0
 20
0.0
 11
297.0
 21
210.0
 12
0.0
 22
0.0
 32
0.0
 14
0.0
 24
0.0
 34
0.0
 15
0.0
 25
0.0
 35
0.0
146
0.0
 13
0.0
 23
0.0
 33
0.0
 16
1.0
 26
0.0
 36
0.0
 17
0.0
 27
1.0
 37
0.0
 76
0
330
208
345
0
346
0
  0
LAYOUT
  5
5F9
102
{ACAD_REACTORS
330
1A
102
}
100
AcDbPlotSettings
  1

  2
none_device
  4
ISO_A4_(297.00_x_210.00_MM)
  6

 40
0.0
 41
0.0
 42
0.0
 43
0.0
 44
297.0
 45
210.0
 46
0.0
 47
0.0
 48
0.0
 49
0.0
140
0.0
141
0.0
142
1.0
143
1.0
 70
0
 72
1
 73
0
 74
0
  7

 75
0
147
1.0
148
0.0
149
0.0
100
AcDbLayout
  1
Layout1
 70
0
 71
1
 10
0.0
 20
0.0
 11
297.0
 21
210.0
 12
0.0
 22
0.0
 32
0.0
 14
0.0
 24
0.0
 34
0.0
 15
0.0
 25
0.0
 35
0.0
146
0.0
 13
0.0
 23
0.0
 33
0.0
 16
1.0
 26
0.0
 36
0.0
 17
0.0
 27
1.0
 37
0.0
 76
0
330
209
345
0
346
0
  0
ENDSEC
  0
EOF
